<svg width="204" height="387" viewBox="0 0 204 387" fill="none" xmlns="http://www.w3.org/2000/svg">
<path d="M195.307 0.279454C195.705 -0.103504 196.338 -0.0913537 196.721 0.306593L202.961 6.79151C203.344 7.18946 203.332 7.8225 202.934 8.20546C202.536 8.58842 201.903 8.57627 201.52 8.17832L195.973 2.41395L190.208 7.96121C189.811 8.34417 189.177 8.33202 188.795 7.93407C188.412 7.53612 188.424 6.90307 188.822 6.52012L195.307 0.279454ZM0.499954 384.5C5.98314 384.5 13.0736 382.625 21.3348 378.757C29.5817 374.896 38.9338 369.079 48.923 361.267C68.9006 345.644 91.3773 322.085 112.607 290.381C155.06 226.981 192.504 131.044 195 0.98081L197 1.01919C194.496 131.456 156.94 227.769 114.268 291.494C92.9352 323.353 70.3182 347.075 50.1551 362.842C40.0741 370.726 30.5941 376.631 22.1828 380.569C13.7858 384.5 6.3918 386.5 0.499954 386.5V384.5Z" fill="white"/>
</svg>
