<svg width="280" height="406" viewBox="0 0 280 406" fill="none" xmlns="http://www.w3.org/2000/svg">
<path d="M8.69064 0.333397C8.32248 -0.078283 7.6903 -0.113568 7.27862 0.254587L0.5699 6.25401C0.158219 6.62216 0.122935 7.25435 0.491089 7.66603C0.859243 8.07771 1.49142 8.11299 1.9031 7.74484L7.86641 2.41202L13.1992 8.37532C13.5674 8.787 14.1996 8.82229 14.6112 8.45413C15.0229 8.08598 15.0582 7.4538 14.6901 7.04212L8.69064 0.333397ZM279.945 404C268.766 404 245.099 398.964 216.119 386.31C187.17 373.67 153.005 353.464 120.818 323.209C56.4717 262.725 -0.0400434 162.013 8.94367 1.05573L6.94678 0.944272C-2.06964 162.487 54.6686 263.775 119.448 324.666C151.823 355.098 186.189 375.424 215.319 388.143C244.417 400.848 268.374 406 279.945 406V404Z" fill="white"/>
</svg>
