<svg width="101" height="101" viewBox="0 0 101 101" fill="none" xmlns="http://www.w3.org/2000/svg">
<path d="M93.173 25.4163L75.0352 41.6583" stroke="white" stroke-miterlimit="10" stroke-linecap="round" stroke-linejoin="round"/>
<path d="M24.0428 63.0103L11.8789 73.9078" stroke="white" stroke-miterlimit="10" stroke-linecap="round" stroke-linejoin="round"/>
<path d="M94.7083 24.5745L83.7734 28.2318L90.049 35.1219L94.7083 24.5745Z" fill="white" stroke="#4285F4" stroke-miterlimit="10" stroke-linecap="round" stroke-linejoin="round"/>
<path d="M70.8129 33.6619H28.2617V75.9822H70.8129V33.6619Z" fill="#22262B" stroke="#3C4043" stroke-miterlimit="10" stroke-linecap="round" stroke-linejoin="round"/>
<path d="M75.0337 29.4683H24.043V71.7886H75.0337V29.4683Z" fill="white" stroke="#3C4043" stroke-miterlimit="10" stroke-linecap="round" stroke-linejoin="round"/>
<path d="M75.0337 29.4683H24.043V38.0828H75.0337V29.4683Z" fill="#4FDFFF" stroke="#3C4043" stroke-miterlimit="10" stroke-linecap="round" stroke-linejoin="round"/>
<path d="M28.0604 34.824C28.7022 34.824 29.2225 34.3038 29.2225 33.662C29.2225 33.0202 28.7022 32.5 28.0604 32.5C27.4187 32.5 26.8984 33.0202 26.8984 33.662C26.8984 34.3038 27.4187 34.824 28.0604 34.824Z" fill="#3C4043"/>
<path d="M32.2519 34.824C32.8936 34.824 33.4139 34.3038 33.4139 33.662C33.4139 33.0202 32.8936 32.5 32.2519 32.5C31.6101 32.5 31.0898 33.0202 31.0898 33.662C31.0898 34.3038 31.6101 34.824 32.2519 34.824Z" fill="#3C4043"/>
<path d="M75.0337 41.6582L53.421 61.0139L53.3577 60.9692L39.8419 48.8649L24.043 63.0102" stroke="#3C4043" stroke-miterlimit="10" stroke-linecap="round" stroke-linejoin="round"/>
<path d="M39.8422 51.9375C41.5391 51.9375 42.9148 50.5618 42.9148 48.8649C42.9148 47.1679 41.5391 45.7922 39.8422 45.7922C38.1452 45.7922 36.7695 47.1679 36.7695 48.8649C36.7695 50.5618 38.1452 51.9375 39.8422 51.9375Z" fill="white" stroke="#3C4043" stroke-miterlimit="10" stroke-linecap="round" stroke-linejoin="round"/>
<path d="M53.4125 64.0493C55.1094 64.0493 56.4851 62.6736 56.4851 60.9767C56.4851 59.2797 55.1094 57.9041 53.4125 57.9041C51.7155 57.9041 50.3398 59.2797 50.3398 60.9767C50.3398 62.6736 51.7155 64.0493 53.4125 64.0493Z" fill="#FF6454" stroke="#3C4043" stroke-miterlimit="10" stroke-linecap="round" stroke-linejoin="round"/>
</svg>
