<svg width="171" height="109" viewBox="0 0 171 109" fill="none" xmlns="http://www.w3.org/2000/svg">
<path d="M154.472 10.9H24.0718V98.1H154.472V10.9Z" fill="white" stroke="#3C4043" stroke-miterlimit="10" stroke-linecap="round" stroke-linejoin="round"/>
<path d="M24.0718 25.8875H143.605" stroke="#3C4043" stroke-miterlimit="10" stroke-linecap="round" stroke-linejoin="round"/>
<path d="M36.2969 62.675L40.3719 66.7625" stroke="white" stroke-miterlimit="10" stroke-linecap="round" stroke-linejoin="round"/>
<path d="M32.2219 64.0375C35.2227 64.0375 37.6552 61.5975 37.6552 58.5875C37.6552 55.5776 35.2227 53.1375 32.2219 53.1375C29.2212 53.1375 26.7886 55.5776 26.7886 58.5875C26.7886 61.5975 29.2212 64.0375 32.2219 64.0375Z" stroke="white" stroke-miterlimit="10" stroke-linecap="round" stroke-linejoin="round"/>
<path d="M85.1968 53.1375V66.7625L90.6301 63.3576L96.0634 59.9527L85.1968 53.1375Z" stroke="white" stroke-linecap="round" stroke-linejoin="round"/>
<path d="M33.8768 41.2774H4.70884C2.78429 41.2774 1.22852 39.1254 1.22852 36.4634C1.22852 33.8013 2.78429 31.6494 4.70884 31.6494H33.8768C35.8013 31.6494 37.3571 33.8013 37.3571 36.4634C37.3571 39.1254 35.8013 41.2774 33.8768 41.2774Z" fill="#4285F4" stroke="#4285F4" stroke-linecap="round" stroke-linejoin="round"/>
<path d="M76.6571 41.2774H47.4891C45.5646 41.2774 44.0088 39.1254 44.0088 36.4634C44.0088 33.8013 45.5646 31.6494 47.4891 31.6494H76.6571C78.5816 31.6494 80.1374 33.8013 80.1374 36.4634C80.1374 39.1254 78.5816 41.2774 76.6571 41.2774Z" fill="#4285F4" stroke="#4285F4" stroke-linecap="round" stroke-linejoin="round"/>
<path d="M119.437 41.2774H90.2694C88.3448 41.2774 86.7891 39.1254 86.7891 36.4634C86.7891 33.8013 88.3448 31.6494 90.2694 31.6494H119.437C121.362 31.6494 122.918 33.8013 122.918 36.4634C122.918 39.1254 121.362 41.2774 119.437 41.2774Z" fill="#4285F4" stroke="#4285F4" stroke-linecap="round" stroke-linejoin="round"/>
<path d="M162.218 41.2774H133.05C131.125 41.2774 129.569 39.1254 129.569 36.4634C129.569 33.8013 131.125 31.6494 133.05 31.6494H162.218C164.142 31.6494 165.698 33.8013 165.698 36.4634C165.698 39.1254 164.142 41.2774 162.218 41.2774Z" fill="#4285F4" stroke="#4285F4" stroke-linecap="round" stroke-linejoin="round"/>
<path d="M102.144 18.3007H113.423" stroke="black"/>
<path d="M117.275 18.3007H128.555" stroke="black"/>
<path d="M132.682 18.3007H143.962" stroke="black"/>
<rect x="30.0098" y="15.7958" width="6.10693" height="6.10693" stroke="black"/>
<path fill-rule="evenodd" clip-rule="evenodd" d="M144.665 66.8597L117.275 51.7405L125.418 81.7967L131.073 74.062L138.611 83.6546L143.282 80.0163L135.743 70.4228L144.665 66.8597Z" fill="white" stroke="#3C4043" stroke-linejoin="round"/>
</svg>
