<svg width="219" height="219" viewBox="0 0 219 219" fill="none" xmlns="http://www.w3.org/2000/svg">
<path d="M211.18 50.9323C211.786 51.9828 212.377 53.0435 212.951 54.1142C211.908 53.4318 211.211 52.2644 211.18 50.9323Z" fill="#4FDFFF"/>
<path d="M189.767 23.9332C191.589 25.6434 193.357 27.411 195.067 29.2334C194.405 30.4556 193.112 31.2857 191.625 31.2857C189.465 31.2857 187.714 29.5348 187.714 27.375C187.714 25.8878 188.544 24.5945 189.767 23.9332Z" fill="#4FDFFF"/>
<path d="M164.886 6.04897C165.956 6.6234 167.017 7.21396 168.068 7.82034C166.736 7.78925 165.568 7.09207 164.886 6.04897Z" fill="#4FDFFF"/>
<path d="M50.9323 7.82034C51.9828 7.21396 53.0435 6.62339 54.1142 6.04896C53.4318 7.09207 52.2644 7.78925 50.9323 7.82034Z" fill="#4FDFFF"/>
<path d="M23.9332 29.2334C25.6434 27.411 27.411 25.6434 29.2334 23.9332C30.4556 24.5945 31.2857 25.8878 31.2857 27.375C31.2857 29.5348 29.5348 31.2857 27.375 31.2857C25.8878 31.2857 24.5945 30.4556 23.9332 29.2334Z" fill="#4FDFFF"/>
<path d="M6.04896 54.1142C6.62339 53.0435 7.21396 51.9828 7.82034 50.9323C7.78925 52.2644 7.09207 53.4318 6.04896 54.1142Z" fill="#4FDFFF"/>
<path d="M212.951 164.886C212.377 165.956 211.786 167.017 211.18 168.068C211.211 166.736 211.908 165.568 212.951 164.886Z" fill="#4FDFFF"/>
<path d="M195.067 189.767C194.405 188.544 193.112 187.714 191.625 187.714C189.465 187.714 187.714 189.465 187.714 191.625C187.714 193.112 188.544 194.405 189.767 195.067C191.589 193.357 193.357 191.589 195.067 189.767Z" fill="#4FDFFF"/>
<path d="M168.068 211.18C166.736 211.211 165.568 211.908 164.886 212.951C165.956 212.377 167.017 211.786 168.068 211.18Z" fill="#4FDFFF"/>
<path d="M54.1142 212.951C53.4318 211.908 52.2644 211.211 50.9323 211.18C51.9828 211.786 53.0435 212.377 54.1142 212.951Z" fill="#4FDFFF"/>
<path d="M29.2334 195.067C30.4556 194.405 31.2857 193.112 31.2857 191.625C31.2857 189.465 29.5348 187.714 27.375 187.714C25.8878 187.714 24.5945 188.544 23.9332 189.767C25.6434 191.589 27.411 193.357 29.2334 195.067Z" fill="#4FDFFF"/>
<path d="M7.82034 168.068C7.78925 166.736 7.09207 165.568 6.04897 164.886C6.6234 165.956 7.21396 167.017 7.82034 168.068Z" fill="#4FDFFF"/>
<path d="M78.2143 3.91071C78.2143 6.07054 76.4634 7.82143 74.3036 7.82143C72.1437 7.82143 70.3929 6.07054 70.3929 3.91071C70.3929 1.75089 72.1437 0 74.3036 0C76.4634 0 78.2143 1.75089 78.2143 3.91071Z" fill="#4FDFFF"/>
<path d="M101.679 3.91071C101.679 6.07054 99.9277 7.82143 97.7679 7.82143C95.608 7.82143 93.8571 6.07054 93.8571 3.91071C93.8571 1.75089 95.608 0 97.7679 0C99.9277 0 101.679 1.75089 101.679 3.91071Z" fill="#4FDFFF"/>
<path d="M125.143 3.91071C125.143 6.07054 123.392 7.82143 121.232 7.82143C119.072 7.82143 117.321 6.07054 117.321 3.91071C117.321 1.75089 119.072 0 121.232 0C123.392 0 125.143 1.75089 125.143 3.91071Z" fill="#4FDFFF"/>
<path d="M148.607 3.91071C148.607 6.07054 146.856 7.82143 144.696 7.82143C142.537 7.82143 140.786 6.07054 140.786 3.91071C140.786 1.75089 142.537 0 144.696 0C146.856 0 148.607 1.75089 148.607 3.91071Z" fill="#4FDFFF"/>
<path d="M54.75 27.375C54.75 29.5348 52.9991 31.2857 50.8393 31.2857C48.6795 31.2857 46.9286 29.5348 46.9286 27.375C46.9286 25.2152 48.6795 23.4643 50.8393 23.4643C52.9991 23.4643 54.75 25.2152 54.75 27.375Z" fill="#4FDFFF"/>
<path d="M78.2143 27.375C78.2143 29.5348 76.4634 31.2857 74.3036 31.2857C72.1437 31.2857 70.3929 29.5348 70.3929 27.375C70.3929 25.2152 72.1437 23.4643 74.3036 23.4643C76.4634 23.4643 78.2143 25.2152 78.2143 27.375Z" fill="#4FDFFF"/>
<path d="M101.679 27.375C101.679 29.5348 99.9277 31.2857 97.7679 31.2857C95.608 31.2857 93.8571 29.5348 93.8571 27.375C93.8571 25.2152 95.608 23.4643 97.7679 23.4643C99.9277 23.4643 101.679 25.2152 101.679 27.375Z" fill="#4FDFFF"/>
<path d="M125.143 27.375C125.143 29.5348 123.392 31.2857 121.232 31.2857C119.072 31.2857 117.321 29.5348 117.321 27.375C117.321 25.2152 119.072 23.4643 121.232 23.4643C123.392 23.4643 125.143 25.2152 125.143 27.375Z" fill="#4FDFFF"/>
<path d="M148.607 27.375C148.607 29.5348 146.856 31.2857 144.696 31.2857C142.537 31.2857 140.786 29.5348 140.786 27.375C140.786 25.2152 142.537 23.4643 144.696 23.4643C146.856 23.4643 148.607 25.2152 148.607 27.375Z" fill="#4FDFFF"/>
<path d="M172.071 27.375C172.071 29.5348 170.321 31.2857 168.161 31.2857C166.001 31.2857 164.25 29.5348 164.25 27.375C164.25 25.2152 166.001 23.4643 168.161 23.4643C170.321 23.4643 172.071 25.2152 172.071 27.375Z" fill="#4FDFFF"/>
<path d="M31.2857 50.8393C31.2857 52.9991 29.5348 54.75 27.375 54.75C25.2152 54.75 23.4643 52.9991 23.4643 50.8393C23.4643 48.6795 25.2152 46.9286 27.375 46.9286C29.5348 46.9286 31.2857 48.6795 31.2857 50.8393Z" fill="#4FDFFF"/>
<path d="M54.75 50.8393C54.75 52.9991 52.9991 54.75 50.8393 54.75C48.6795 54.75 46.9286 52.9991 46.9286 50.8393C46.9286 48.6795 48.6795 46.9286 50.8393 46.9286C52.9991 46.9286 54.75 48.6795 54.75 50.8393Z" fill="#4FDFFF"/>
<path d="M78.2143 50.8393C78.2143 52.9991 76.4634 54.75 74.3036 54.75C72.1437 54.75 70.3929 52.9991 70.3929 50.8393C70.3929 48.6795 72.1437 46.9286 74.3036 46.9286C76.4634 46.9286 78.2143 48.6795 78.2143 50.8393Z" fill="#4FDFFF"/>
<path d="M101.679 50.8393C101.679 52.9991 99.9277 54.75 97.7679 54.75C95.608 54.75 93.8571 52.9991 93.8571 50.8393C93.8571 48.6795 95.608 46.9286 97.7679 46.9286C99.9277 46.9286 101.679 48.6795 101.679 50.8393Z" fill="#4FDFFF"/>
<path d="M125.143 50.8393C125.143 52.9991 123.392 54.75 121.232 54.75C119.072 54.75 117.321 52.9991 117.321 50.8393C117.321 48.6795 119.072 46.9286 121.232 46.9286C123.392 46.9286 125.143 48.6795 125.143 50.8393Z" fill="#4FDFFF"/>
<path d="M148.607 50.8393C148.607 52.9991 146.856 54.75 144.696 54.75C142.537 54.75 140.786 52.9991 140.786 50.8393C140.786 48.6795 142.537 46.9286 144.696 46.9286C146.856 46.9286 148.607 48.6795 148.607 50.8393Z" fill="#4FDFFF"/>
<path d="M172.071 50.8393C172.071 52.9991 170.321 54.75 168.161 54.75C166.001 54.75 164.25 52.9991 164.25 50.8393C164.25 48.6795 166.001 46.9286 168.161 46.9286C170.321 46.9286 172.071 48.6795 172.071 50.8393Z" fill="#4FDFFF"/>
<path d="M195.536 50.8393C195.536 52.9991 193.785 54.75 191.625 54.75C189.465 54.75 187.714 52.9991 187.714 50.8393C187.714 48.6795 189.465 46.9286 191.625 46.9286C193.785 46.9286 195.536 48.6795 195.536 50.8393Z" fill="#4FDFFF"/>
<path d="M7.82143 74.3036C7.82143 76.4634 6.07054 78.2143 3.91071 78.2143C1.75089 78.2143 0 76.4634 0 74.3036C0 72.1437 1.75089 70.3929 3.91071 70.3929C6.07054 70.3929 7.82143 72.1437 7.82143 74.3036Z" fill="#4FDFFF"/>
<path d="M31.2857 74.3036C31.2857 76.4634 29.5348 78.2143 27.375 78.2143C25.2152 78.2143 23.4643 76.4634 23.4643 74.3036C23.4643 72.1437 25.2152 70.3929 27.375 70.3929C29.5348 70.3929 31.2857 72.1437 31.2857 74.3036Z" fill="#4FDFFF"/>
<path d="M54.75 74.3036C54.75 76.4634 52.9991 78.2143 50.8393 78.2143C48.6795 78.2143 46.9286 76.4634 46.9286 74.3036C46.9286 72.1437 48.6795 70.3929 50.8393 70.3929C52.9991 70.3929 54.75 72.1437 54.75 74.3036Z" fill="#4FDFFF"/>
<path d="M78.2143 74.3036C78.2143 76.4634 76.4634 78.2143 74.3036 78.2143C72.1437 78.2143 70.3929 76.4634 70.3929 74.3036C70.3929 72.1437 72.1437 70.3929 74.3036 70.3929C76.4634 70.3929 78.2143 72.1437 78.2143 74.3036Z" fill="#4FDFFF"/>
<path d="M101.679 74.3036C101.679 76.4634 99.9277 78.2143 97.7679 78.2143C95.608 78.2143 93.8571 76.4634 93.8571 74.3036C93.8571 72.1437 95.608 70.3929 97.7679 70.3929C99.9277 70.3929 101.679 72.1437 101.679 74.3036Z" fill="#4FDFFF"/>
<path d="M125.143 74.3036C125.143 76.4634 123.392 78.2143 121.232 78.2143C119.072 78.2143 117.321 76.4634 117.321 74.3036C117.321 72.1437 119.072 70.3929 121.232 70.3929C123.392 70.3929 125.143 72.1437 125.143 74.3036Z" fill="#4FDFFF"/>
<path d="M148.607 74.3036C148.607 76.4634 146.856 78.2143 144.696 78.2143C142.537 78.2143 140.786 76.4634 140.786 74.3036C140.786 72.1437 142.537 70.3929 144.696 70.3929C146.856 70.3929 148.607 72.1437 148.607 74.3036Z" fill="#4FDFFF"/>
<path d="M172.071 74.3036C172.071 76.4634 170.321 78.2143 168.161 78.2143C166.001 78.2143 164.25 76.4634 164.25 74.3036C164.25 72.1437 166.001 70.3929 168.161 70.3929C170.321 70.3929 172.071 72.1437 172.071 74.3036Z" fill="#4FDFFF"/>
<path d="M195.536 74.3036C195.536 76.4634 193.785 78.2143 191.625 78.2143C189.465 78.2143 187.714 76.4634 187.714 74.3036C187.714 72.1437 189.465 70.3929 191.625 70.3929C193.785 70.3929 195.536 72.1437 195.536 74.3036Z" fill="#4FDFFF"/>
<path d="M219 74.3036C219 76.4634 217.249 78.2143 215.089 78.2143C212.929 78.2143 211.179 76.4634 211.179 74.3036C211.179 72.1437 212.929 70.3929 215.089 70.3929C217.249 70.3929 219 72.1437 219 74.3036Z" fill="#4FDFFF"/>
<path d="M7.82143 97.7679C7.82143 99.9277 6.07054 101.679 3.91071 101.679C1.75089 101.679 0 99.9277 0 97.7679C0 95.608 1.75089 93.8571 3.91071 93.8571C6.07054 93.8571 7.82143 95.608 7.82143 97.7679Z" fill="#4FDFFF"/>
<path d="M31.2857 97.7679C31.2857 99.9277 29.5348 101.679 27.375 101.679C25.2152 101.679 23.4643 99.9277 23.4643 97.7679C23.4643 95.608 25.2152 93.8571 27.375 93.8571C29.5348 93.8571 31.2857 95.608 31.2857 97.7679Z" fill="#4FDFFF"/>
<path d="M54.75 97.7679C54.75 99.9277 52.9991 101.679 50.8393 101.679C48.6795 101.679 46.9286 99.9277 46.9286 97.7679C46.9286 95.608 48.6795 93.8571 50.8393 93.8571C52.9991 93.8571 54.75 95.608 54.75 97.7679Z" fill="#4FDFFF"/>
<path d="M78.2143 97.7679C78.2143 99.9277 76.4634 101.679 74.3036 101.679C72.1437 101.679 70.3929 99.9277 70.3929 97.7679C70.3929 95.608 72.1437 93.8571 74.3036 93.8571C76.4634 93.8571 78.2143 95.608 78.2143 97.7679Z" fill="#4FDFFF"/>
<path d="M101.679 97.7679C101.679 99.9277 99.9277 101.679 97.7679 101.679C95.608 101.679 93.8571 99.9277 93.8571 97.7679C93.8571 95.608 95.608 93.8571 97.7679 93.8571C99.9277 93.8571 101.679 95.608 101.679 97.7679Z" fill="#4FDFFF"/>
<path d="M125.143 97.7679C125.143 99.9277 123.392 101.679 121.232 101.679C119.072 101.679 117.321 99.9277 117.321 97.7679C117.321 95.608 119.072 93.8571 121.232 93.8571C123.392 93.8571 125.143 95.608 125.143 97.7679Z" fill="#4FDFFF"/>
<path d="M148.607 97.7679C148.607 99.9277 146.856 101.679 144.696 101.679C142.537 101.679 140.786 99.9277 140.786 97.7679C140.786 95.608 142.537 93.8571 144.696 93.8571C146.856 93.8571 148.607 95.608 148.607 97.7679Z" fill="#4FDFFF"/>
<path d="M172.071 97.7679C172.071 99.9277 170.321 101.679 168.161 101.679C166.001 101.679 164.25 99.9277 164.25 97.7679C164.25 95.608 166.001 93.8571 168.161 93.8571C170.321 93.8571 172.071 95.608 172.071 97.7679Z" fill="#4FDFFF"/>
<path d="M195.536 97.7679C195.536 99.9277 193.785 101.679 191.625 101.679C189.465 101.679 187.714 99.9277 187.714 97.7679C187.714 95.608 189.465 93.8571 191.625 93.8571C193.785 93.8571 195.536 95.608 195.536 97.7679Z" fill="#4FDFFF"/>
<path d="M219 97.7679C219 99.9277 217.249 101.679 215.089 101.679C212.929 101.679 211.179 99.9277 211.179 97.7679C211.179 95.608 212.929 93.8571 215.089 93.8571C217.249 93.8571 219 95.608 219 97.7679Z" fill="#4FDFFF"/>
<path d="M7.82143 121.232C7.82143 123.392 6.07054 125.143 3.91071 125.143C1.75089 125.143 0 123.392 0 121.232C0 119.072 1.75089 117.321 3.91071 117.321C6.07054 117.321 7.82143 119.072 7.82143 121.232Z" fill="#4FDFFF"/>
<path d="M31.2857 121.232C31.2857 123.392 29.5348 125.143 27.375 125.143C25.2152 125.143 23.4643 123.392 23.4643 121.232C23.4643 119.072 25.2152 117.321 27.375 117.321C29.5348 117.321 31.2857 119.072 31.2857 121.232Z" fill="#4FDFFF"/>
<path d="M54.75 121.232C54.75 123.392 52.9991 125.143 50.8393 125.143C48.6795 125.143 46.9286 123.392 46.9286 121.232C46.9286 119.072 48.6795 117.321 50.8393 117.321C52.9991 117.321 54.75 119.072 54.75 121.232Z" fill="#4FDFFF"/>
<path d="M78.2143 121.232C78.2143 123.392 76.4634 125.143 74.3036 125.143C72.1437 125.143 70.3929 123.392 70.3929 121.232C70.3929 119.072 72.1437 117.321 74.3036 117.321C76.4634 117.321 78.2143 119.072 78.2143 121.232Z" fill="#4FDFFF"/>
<path d="M101.679 121.232C101.679 123.392 99.9277 125.143 97.7679 125.143C95.608 125.143 93.8571 123.392 93.8571 121.232C93.8571 119.072 95.608 117.321 97.7679 117.321C99.9277 117.321 101.679 119.072 101.679 121.232Z" fill="#4FDFFF"/>
<path d="M125.143 121.232C125.143 123.392 123.392 125.143 121.232 125.143C119.072 125.143 117.321 123.392 117.321 121.232C117.321 119.072 119.072 117.321 121.232 117.321C123.392 117.321 125.143 119.072 125.143 121.232Z" fill="#4FDFFF"/>
<path d="M148.607 121.232C148.607 123.392 146.856 125.143 144.696 125.143C142.537 125.143 140.786 123.392 140.786 121.232C140.786 119.072 142.537 117.321 144.696 117.321C146.856 117.321 148.607 119.072 148.607 121.232Z" fill="#4FDFFF"/>
<path d="M172.071 121.232C172.071 123.392 170.321 125.143 168.161 125.143C166.001 125.143 164.25 123.392 164.25 121.232C164.25 119.072 166.001 117.321 168.161 117.321C170.321 117.321 172.071 119.072 172.071 121.232Z" fill="#4FDFFF"/>
<path d="M195.536 121.232C195.536 123.392 193.785 125.143 191.625 125.143C189.465 125.143 187.714 123.392 187.714 121.232C187.714 119.072 189.465 117.321 191.625 117.321C193.785 117.321 195.536 119.072 195.536 121.232Z" fill="#4FDFFF"/>
<path d="M219 121.232C219 123.392 217.249 125.143 215.089 125.143C212.929 125.143 211.179 123.392 211.179 121.232C211.179 119.072 212.929 117.321 215.089 117.321C217.249 117.321 219 119.072 219 121.232Z" fill="#4FDFFF"/>
<path d="M7.82143 144.696C7.82143 146.856 6.07054 148.607 3.91071 148.607C1.75089 148.607 0 146.856 0 144.696C0 142.537 1.75089 140.786 3.91071 140.786C6.07054 140.786 7.82143 142.537 7.82143 144.696Z" fill="#4FDFFF"/>
<path d="M31.2857 144.696C31.2857 146.856 29.5348 148.607 27.375 148.607C25.2152 148.607 23.4643 146.856 23.4643 144.696C23.4643 142.537 25.2152 140.786 27.375 140.786C29.5348 140.786 31.2857 142.537 31.2857 144.696Z" fill="#4FDFFF"/>
<path d="M54.75 144.696C54.75 146.856 52.9991 148.607 50.8393 148.607C48.6795 148.607 46.9286 146.856 46.9286 144.696C46.9286 142.537 48.6795 140.786 50.8393 140.786C52.9991 140.786 54.75 142.537 54.75 144.696Z" fill="#4FDFFF"/>
<path d="M78.2143 144.696C78.2143 146.856 76.4634 148.607 74.3036 148.607C72.1437 148.607 70.3929 146.856 70.3929 144.696C70.3929 142.537 72.1437 140.786 74.3036 140.786C76.4634 140.786 78.2143 142.537 78.2143 144.696Z" fill="#4FDFFF"/>
<path d="M101.679 144.696C101.679 146.856 99.9277 148.607 97.7679 148.607C95.608 148.607 93.8571 146.856 93.8571 144.696C93.8571 142.537 95.608 140.786 97.7679 140.786C99.9277 140.786 101.679 142.537 101.679 144.696Z" fill="#4FDFFF"/>
<path d="M125.143 144.696C125.143 146.856 123.392 148.607 121.232 148.607C119.072 148.607 117.321 146.856 117.321 144.696C117.321 142.537 119.072 140.786 121.232 140.786C123.392 140.786 125.143 142.537 125.143 144.696Z" fill="#4FDFFF"/>
<path d="M148.607 144.696C148.607 146.856 146.856 148.607 144.696 148.607C142.537 148.607 140.786 146.856 140.786 144.696C140.786 142.537 142.537 140.786 144.696 140.786C146.856 140.786 148.607 142.537 148.607 144.696Z" fill="#4FDFFF"/>
<path d="M172.071 144.696C172.071 146.856 170.321 148.607 168.161 148.607C166.001 148.607 164.25 146.856 164.25 144.696C164.25 142.537 166.001 140.786 168.161 140.786C170.321 140.786 172.071 142.537 172.071 144.696Z" fill="#4FDFFF"/>
<path d="M195.536 144.696C195.536 146.856 193.785 148.607 191.625 148.607C189.465 148.607 187.714 146.856 187.714 144.696C187.714 142.537 189.465 140.786 191.625 140.786C193.785 140.786 195.536 142.537 195.536 144.696Z" fill="#4FDFFF"/>
<path d="M219 144.696C219 146.856 217.249 148.607 215.089 148.607C212.929 148.607 211.179 146.856 211.179 144.696C211.179 142.537 212.929 140.786 215.089 140.786C217.249 140.786 219 142.537 219 144.696Z" fill="#4FDFFF"/>
<path d="M31.2857 168.161C31.2857 170.321 29.5348 172.071 27.375 172.071C25.2152 172.071 23.4643 170.321 23.4643 168.161C23.4643 166.001 25.2152 164.25 27.375 164.25C29.5348 164.25 31.2857 166.001 31.2857 168.161Z" fill="#4FDFFF"/>
<path d="M54.75 168.161C54.75 170.321 52.9991 172.071 50.8393 172.071C48.6795 172.071 46.9286 170.321 46.9286 168.161C46.9286 166.001 48.6795 164.25 50.8393 164.25C52.9991 164.25 54.75 166.001 54.75 168.161Z" fill="#4FDFFF"/>
<path d="M78.2143 168.161C78.2143 170.321 76.4634 172.071 74.3036 172.071C72.1437 172.071 70.3929 170.321 70.3929 168.161C70.3929 166.001 72.1437 164.25 74.3036 164.25C76.4634 164.25 78.2143 166.001 78.2143 168.161Z" fill="#4FDFFF"/>
<path d="M101.679 168.161C101.679 170.321 99.9277 172.071 97.7679 172.071C95.608 172.071 93.8571 170.321 93.8571 168.161C93.8571 166.001 95.608 164.25 97.7679 164.25C99.9277 164.25 101.679 166.001 101.679 168.161Z" fill="#4FDFFF"/>
<path d="M125.143 168.161C125.143 170.321 123.392 172.071 121.232 172.071C119.072 172.071 117.321 170.321 117.321 168.161C117.321 166.001 119.072 164.25 121.232 164.25C123.392 164.25 125.143 166.001 125.143 168.161Z" fill="#4FDFFF"/>
<path d="M148.607 168.161C148.607 170.321 146.856 172.071 144.696 172.071C142.537 172.071 140.786 170.321 140.786 168.161C140.786 166.001 142.537 164.25 144.696 164.25C146.856 164.25 148.607 166.001 148.607 168.161Z" fill="#4FDFFF"/>
<path d="M172.071 168.161C172.071 170.321 170.321 172.071 168.161 172.071C166.001 172.071 164.25 170.321 164.25 168.161C164.25 166.001 166.001 164.25 168.161 164.25C170.321 164.25 172.071 166.001 172.071 168.161Z" fill="#4FDFFF"/>
<path d="M195.536 168.161C195.536 170.321 193.785 172.071 191.625 172.071C189.465 172.071 187.714 170.321 187.714 168.161C187.714 166.001 189.465 164.25 191.625 164.25C193.785 164.25 195.536 166.001 195.536 168.161Z" fill="#4FDFFF"/>
<path d="M54.75 191.625C54.75 193.785 52.9991 195.536 50.8393 195.536C48.6795 195.536 46.9286 193.785 46.9286 191.625C46.9286 189.465 48.6795 187.714 50.8393 187.714C52.9991 187.714 54.75 189.465 54.75 191.625Z" fill="#4FDFFF"/>
<path d="M78.2143 191.625C78.2143 193.785 76.4634 195.536 74.3036 195.536C72.1437 195.536 70.3929 193.785 70.3929 191.625C70.3929 189.465 72.1437 187.714 74.3036 187.714C76.4634 187.714 78.2143 189.465 78.2143 191.625Z" fill="#4FDFFF"/>
<path d="M101.679 191.625C101.679 193.785 99.9277 195.536 97.7679 195.536C95.608 195.536 93.8571 193.785 93.8571 191.625C93.8571 189.465 95.608 187.714 97.7679 187.714C99.9277 187.714 101.679 189.465 101.679 191.625Z" fill="#4FDFFF"/>
<path d="M125.143 191.625C125.143 193.785 123.392 195.536 121.232 195.536C119.072 195.536 117.321 193.785 117.321 191.625C117.321 189.465 119.072 187.714 121.232 187.714C123.392 187.714 125.143 189.465 125.143 191.625Z" fill="#4FDFFF"/>
<path d="M148.607 191.625C148.607 193.785 146.856 195.536 144.696 195.536C142.537 195.536 140.786 193.785 140.786 191.625C140.786 189.465 142.537 187.714 144.696 187.714C146.856 187.714 148.607 189.465 148.607 191.625Z" fill="#4FDFFF"/>
<path d="M172.071 191.625C172.071 193.785 170.321 195.536 168.161 195.536C166.001 195.536 164.25 193.785 164.25 191.625C164.25 189.465 166.001 187.714 168.161 187.714C170.321 187.714 172.071 189.465 172.071 191.625Z" fill="#4FDFFF"/>
<path d="M78.2143 215.089C78.2143 217.249 76.4634 219 74.3036 219C72.1437 219 70.3929 217.249 70.3929 215.089C70.3929 212.929 72.1437 211.179 74.3036 211.179C76.4634 211.179 78.2143 212.929 78.2143 215.089Z" fill="#4FDFFF"/>
<path d="M101.679 215.089C101.679 217.249 99.9277 219 97.7679 219C95.608 219 93.8571 217.249 93.8571 215.089C93.8571 212.929 95.608 211.179 97.7679 211.179C99.9277 211.179 101.679 212.929 101.679 215.089Z" fill="#4FDFFF"/>
<path d="M125.143 215.089C125.143 217.249 123.392 219 121.232 219C119.072 219 117.321 217.249 117.321 215.089C117.321 212.929 119.072 211.179 121.232 211.179C123.392 211.179 125.143 212.929 125.143 215.089Z" fill="#4FDFFF"/>
<path d="M148.607 215.089C148.607 217.249 146.856 219 144.696 219C142.537 219 140.786 217.249 140.786 215.089C140.786 212.929 142.537 211.179 144.696 211.179C146.856 211.179 148.607 212.929 148.607 215.089Z" fill="#4FDFFF"/>
</svg>
