<svg width="58" height="63" viewBox="0 0 58 63" fill="none" xmlns="http://www.w3.org/2000/svg">
<path d="M20.18 41.0667C20.18 40.5144 19.7323 40.0667 19.18 40.0667H2.26953C1.71725 40.0667 1.26953 40.5144 1.26953 41.0667V60.4189C1.26953 60.9712 1.71725 61.4189 2.26953 61.4189H19.18C19.7323 61.4189 20.18 60.9712 20.18 60.4189V41.0667Z" fill="#4FDFFF" stroke="#22262B" stroke-width="2" stroke-miterlimit="10" stroke-linecap="round" stroke-linejoin="round"/>
<path d="M56.18 2.3584C56.18 1.80611 55.7323 1.3584 55.18 1.3584H38.2695C37.7172 1.3584 37.2695 1.80611 37.2695 2.3584V60.4151C37.2695 60.9674 37.7172 61.4151 38.2695 61.4151H55.18C55.7323 61.4151 56.18 60.9674 56.18 60.4151V2.3584Z" fill="#FF6454" stroke="#22262B" stroke-width="2" stroke-miterlimit="10" stroke-linecap="round" stroke-linejoin="round"/>
<path d="M37.0863 21.7107C37.0863 21.1584 36.6386 20.7107 36.0863 20.7107H19.1758C18.6235 20.7107 18.1758 21.1584 18.1758 21.7107V60.4152C18.1758 60.9674 18.6235 61.4152 19.1758 61.4152H36.0863C36.6386 61.4152 37.0863 60.9674 37.0863 60.4152V21.7107Z" fill="white" stroke="#22262B" stroke-width="2" stroke-miterlimit="10" stroke-linecap="round" stroke-linejoin="round"/>
</svg>
