<svg width="29" height="29" viewBox="0 0 29 29" fill="none" xmlns="http://www.w3.org/2000/svg">
<path fill-rule="evenodd" clip-rule="evenodd" d="M12.774 0C12.2218 0 11.774 0.447715 11.774 1V11.774H1C0.447715 11.774 0 12.2218 0 12.774V16.4051C0 16.9574 0.447715 17.4051 1 17.4051H11.774V28C11.774 28.5523 12.2218 29 12.774 29H16.4051C16.9574 29 17.4051 28.5523 17.4051 28V17.4051H28C28.5523 17.4051 29 16.9574 29 16.4051V12.774C29 12.2218 28.5523 11.774 28 11.774H17.4051V1C17.4051 0.447715 16.9574 0 16.4051 0H12.774Z" fill="#FFE89B"/>
</svg>
