<svg width="153" height="230" viewBox="0 0 153 230" fill="none" xmlns="http://www.w3.org/2000/svg">
<path d="M0 13.0248V20.107L34.7506 0H22.5106L0 13.0248Z" fill="#4FDFFF"/>
<path d="M55.636 0L0 32.1915V39.2736L67.876 0H55.636Z" fill="#4FDFFF"/>
<path d="M88.7615 0L0 51.3581V58.4403L101.002 0H88.7615Z" fill="#4FDFFF"/>
<path d="M121.887 0L0 70.5248V77.607L134.127 0H121.887Z" fill="#4FDFFF"/>
<path d="M153 1.16443L0 89.6915V96.7736L153 8.24659V1.16443Z" fill="#4FDFFF"/>
<path d="M153 20.3311L0 108.858V115.94L153 27.4133V20.3311Z" fill="#4FDFFF"/>
<path d="M153 39.4978L0 128.025V135.107L153 46.5799V39.4978Z" fill="#4FDFFF"/>
<path d="M153 58.6644L0 147.191V154.274L153 65.7466V58.6644Z" fill="#4FDFFF"/>
<path d="M153 77.8311L0 166.358V173.44L153 84.9133V77.8311Z" fill="#4FDFFF"/>
<path d="M153 96.9978L0 185.525V192.607L153 104.08V96.9978Z" fill="#4FDFFF"/>
<path d="M153 116.164L0 204.691V211.774L153 123.247V116.164Z" fill="#4FDFFF"/>
<path d="M153 135.331L0 223.858V230H1.62509L153 142.413V135.331Z" fill="#4FDFFF"/>
<path d="M153 154.498L22.5106 230H34.7506L153 161.58V154.498Z" fill="#4FDFFF"/>
<path d="M153 173.664L55.6361 230H67.876L153 180.747V173.664Z" fill="#4FDFFF"/>
<path d="M153 192.831L88.7615 230H101.002L153 199.913V192.831Z" fill="#4FDFFF"/>
<path d="M153 211.998L121.887 230H134.127L153 219.08V211.998Z" fill="#4FDFFF"/>
</svg>
