<?xml version="1.0" encoding="utf-8"?>
<svg version="1.1" id="Layer_1" xmlns="http://www.w3.org/2000/svg" xmlns:xlink="http://www.w3.org/1999/xlink" x="0px" y="0px"
	 viewBox="0 0 337 19" style="enable-background:new 0 0 337 19;" xml:space="preserve">
<style type="text/css">
	.st0{fill-rule:evenodd;clip-rule:evenodd;fill:#FF6454;}
	.st1{fill:#FFFFFF;filter:url(#Adobe_OpacityMaskFilter);}
	.st2{fill-rule:evenodd;clip-rule:evenodd;}
	.st3{mask:url(#path-1-outside-1_1755_12534_00000091012973704430998260000007629584606111109311_);fill:none;}
</style>
<path class="st0" d="M335.7,1.5c-1.4,0.6-2.9,1.5-4.4,2.9c-1.4,1.2-2.7,2.5-4,3.7c-1.2,1.2-2.5,2.4-3.8,3.5
	c-3.6,3.2-6.5,3.3-10.3,0.4c-1.8-1.3-3.4-2.9-5-4.5l0,0v0c-1.3-1.2-2.5-2.5-3.9-3.6c-4.6-3.8-8.9-4-13.7-0.5c-2,1.5-3.8,3.2-5.5,5
	l0,0c-0.6,0.6-1.2,1.2-1.7,1.7c-5.5,5.3-8.7,5.3-14.2,0.1c-0.7-0.6-1.4-1.3-2-2c-1.8-1.7-3.6-3.5-5.6-4.9c-2-1.5-4-2.3-6.1-2.3
	c-2.7-0.2-5.3,0.9-8.1,3.4c-1,0.9-2,1.9-3.1,2.9v0c-1.2,1.1-2.3,2.2-3.5,3.3c-2.7,2.4-4.8,3.6-6.8,3.7c-1.3,0-2.5-0.5-3.9-1.4
	c-1.5-0.9-2.7-2.1-3.8-3.2c-0.5-0.4-0.9-0.9-1.3-1.2c-0.4-0.4-0.8-0.7-1.1-1.1c-1.7-1.6-3.3-3.1-5.1-4.3c-0.8-0.5-1.6-0.9-2.4-1.2
	c-3-1.2-6.1-0.7-9.1,1.4c-1,0.7-1.9,1.4-2.8,2.2c-0.9,0.8-1.7,1.6-2.5,2.4l0,0c-1.5,1.4-2.9,2.8-4.5,4.1c-4.2,3.5-6.8,3.3-11-0.1
	c-1.4-1.1-2.7-2.4-4-3.6c-1.5-1.4-2.9-2.9-4.5-4.1c-4.7-3.6-9.1-3.7-13.7,0c-1.8,1.4-3.4,3-5,4.5l0,0v0c-1,1-1.9,1.9-2.9,2.8
	c-4.6,4.1-7.8,4.2-12.4,0.1c-0.6-0.6-1.2-1.2-1.9-1.7l0,0c-0.2-0.1-0.3-0.3-0.5-0.4c-0.4-0.4-0.9-0.9-1.3-1.3
	c-1.1-1-2.2-2.1-3.3-3.1c-5.5-4.7-10.2-4.7-15.6,0c-1.4,1.2-2.7,2.5-4,3.7l0,0c-1.2,1.2-2.5,2.4-3.8,3.5c-3.6,3.2-6.5,3.3-10.3,0.4
	c-1.8-1.3-3.4-2.9-5-4.5l0,0c-1.3-1.2-2.5-2.5-3.9-3.6c-4.6-3.8-8.9-4-13.7-0.5c-2,1.5-3.8,3.2-5.5,5l0,0l0,0
	c-0.6,0.6-1.2,1.2-1.7,1.7c-5.5,5.3-8.7,5.3-14.2,0.1c-0.7-0.6-1.4-1.3-2-2v0c-1.8-1.7-3.6-3.5-5.6-4.9c-3.9-2.9-7.7-3.1-11.9-0.5
	c-1.7,1-3.1,2.4-4.5,3.7c-0.6,0.5-1.1,1.1-1.7,1.7c-1.6,1.6-3.1,3.1-5,4.4c-2.9,2.1-5.4,2.1-8.4,0.2c-1.5-0.9-2.7-2.1-3.8-3.2
	c-0.5-0.4-0.9-0.9-1.3-1.2c-0.4-0.4-0.8-0.7-1.1-1.1l0,0C12,6.3,10.5,4.8,8.7,3.6C6.2,2,3.6,1.4,1,2.1c0.1,1.1,0.1,2.1,0.2,3.2
	c2.6-0.9,5,0.1,8.1,2.8C10.3,9,11.4,10,12.4,11l0,0c1.6,1.6,3.3,3.2,5.1,4.6c4.7,3.4,9,3.3,13.6-0.4c1.7-1.3,3.2-2.8,4.7-4.3h0
	c1.1-1.1,2.2-2.1,3.3-3.2c4.1-3.6,7-3.8,11.3-0.5c0.8,0.6,1.6,1.4,2.4,2.1l0,0c0.3,0.3,0.5,0.5,0.8,0.8c0.6,0.5,1.2,1.1,1.7,1.7l0,0
	v0c1,1,2.1,2,3.2,2.9c5.1,4.4,10.1,4.4,15.1-0.1c1.6-1.4,3.1-2.9,4.6-4.4c1.6-1.6,3.2-3.1,5.1-4.3c2.3-1.5,4.6-1.7,7-0.2
	c2,1.2,3.8,2.8,5.5,4.5c1.7,1.8,3.5,3.5,5.5,5c4.3,3.4,8.6,3.5,13,0.3c0.6-0.4,1.2-0.9,1.8-1.4v0c0.2-0.2,0.4-0.3,0.5-0.5
	c1.2-1,2.3-2.1,3.3-3.1v0c1.3-1.3,2.5-2.5,3.9-3.6c3.8-3,6.6-3,10.3,0c1,0.8,1.8,1.6,2.7,2.5c0.3,0.3,0.7,0.7,1,1
	c0.4,0.4,0.9,0.8,1.3,1.2l0,0c1.4,1.3,2.8,2.7,4.4,3.8c4.4,3.1,8.6,3.1,12.9-0.2c1.8-1.4,3.5-3,5.1-4.6v0c0.7-0.7,1.4-1.4,2.2-2.1
	c5.6-5.3,8.7-5.3,14.4,0c0.7,0.6,1.3,1.2,2,1.9c1.5,1.4,3,2.8,4.5,4.2c4.7,4,9.3,4.1,14.1,0.3c1.5-1.2,2.8-2.5,4.2-3.8
	c0.2-0.2,0.4-0.4,0.7-0.7c1.7-1.7,3.4-3.4,5.4-4.7c0.7-0.5,1.4-0.8,2.1-1l0,0c0.6-0.2,1.2-0.3,1.7-0.3c1.2,0,2.4,0.4,3.6,1.2
	c1.5,0.9,2.7,2,4,3.2c0.6,0.5,1.1,1.1,1.7,1.6l0,0c1.7,1.6,3.4,3.3,5.3,4.7c2.2,1.6,4.4,2.4,6.6,2.4c2.3,0,4.6-0.9,6.9-2.8
	c1.7-1.3,3.2-2.8,4.7-4.3c1.1-1.1,2.2-2.1,3.3-3.2c2.6-2.4,4.8-3.3,7.2-2.7c1,0.3,2.1,0.8,3.3,1.7c0.8,0.6,1.5,1.2,2.3,1.9l0,0
	c0.2,0.2,0.5,0.4,0.7,0.6c0.8,0.7,1.5,1.4,2.3,2.2l0,0c1.7,1.6,3.3,3.2,5.3,4.6c0.4,0.2,0.7,0.5,1.1,0.7l0,0
	c4.2,2.4,8.3,1.7,12.5-1.9c1.6-1.4,3.1-2.9,4.6-4.4c1.6-1.6,3.2-3.1,5.1-4.3c2.3-1.5,4.6-1.7,7-0.2c2,1.2,3.8,2.8,5.5,4.5
	c1.7,1.8,3.5,3.5,5.5,5c4.3,3.4,8.6,3.5,13,0.3c0.6-0.4,1.2-0.9,1.8-1.4c0.2-0.2,0.4-0.3,0.5-0.5c1.2-1,2.3-2.1,3.3-3.1l0,0
	c1.3-1.3,2.5-2.5,3.9-3.6c0.6-0.5,1.2-0.9,1.8-1.2V1.5z"/>
<defs>
	<filter id="Adobe_OpacityMaskFilter" filterUnits="userSpaceOnUse" x="0.5" y="0.5" width="335.8" height="18">
		<feColorMatrix  type="matrix" values="1 0 0 0 0  0 1 0 0 0  0 0 1 0 0  0 0 0 1 0"/>
	</filter>
</defs>
<mask maskUnits="userSpaceOnUse" x="0.5" y="0.5" width="335.8" height="18" id="path-1-outside-1_1755_12534_00000091012973704430998260000007629584606111109311_">
	<rect y="0" class="st1" width="337" height="19"/>
	<path class="st2" d="M335.7,1.5c-1.4,0.6-2.9,1.5-4.4,2.9c-1.4,1.2-2.7,2.5-4,3.7c-1.2,1.2-2.5,2.4-3.8,3.5
		c-3.6,3.2-6.5,3.3-10.3,0.4c-1.8-1.3-3.4-2.9-5-4.5l0,0v0c-1.3-1.2-2.5-2.5-3.9-3.6c-4.6-3.8-8.9-4-13.7-0.5c-2,1.5-3.8,3.2-5.5,5
		l0,0c-0.6,0.6-1.2,1.2-1.7,1.7c-5.5,5.3-8.7,5.3-14.2,0.1c-0.7-0.6-1.4-1.3-2-2c-1.8-1.7-3.6-3.5-5.6-4.9c-2-1.5-4-2.3-6.1-2.3
		c-2.7-0.2-5.3,0.9-8.1,3.4c-1,0.9-2,1.9-3.1,2.9v0c-1.2,1.1-2.3,2.2-3.5,3.3c-2.7,2.4-4.8,3.6-6.8,3.7c-1.3,0-2.5-0.5-3.9-1.4
		c-1.5-0.9-2.7-2.1-3.8-3.2c-0.5-0.4-0.9-0.9-1.3-1.2c-0.4-0.4-0.8-0.7-1.1-1.1c-1.7-1.6-3.3-3.1-5.1-4.3c-0.8-0.5-1.6-0.9-2.4-1.2
		c-3-1.2-6.1-0.7-9.1,1.4c-1,0.7-1.9,1.4-2.8,2.2c-0.9,0.8-1.7,1.6-2.5,2.4l0,0c-1.5,1.4-2.9,2.8-4.5,4.1c-4.2,3.5-6.8,3.3-11-0.1
		c-1.4-1.1-2.7-2.4-4-3.6c-1.5-1.4-2.9-2.9-4.5-4.1c-4.7-3.6-9.1-3.7-13.7,0c-1.8,1.4-3.4,3-5,4.5l0,0v0c-1,1-1.9,1.9-2.9,2.8
		c-4.6,4.1-7.8,4.2-12.4,0.1c-0.6-0.6-1.2-1.2-1.9-1.7l0,0c-0.2-0.1-0.3-0.3-0.5-0.4c-0.4-0.4-0.9-0.9-1.3-1.3
		c-1.1-1-2.2-2.1-3.3-3.1c-5.5-4.7-10.2-4.7-15.6,0c-1.4,1.2-2.7,2.5-4,3.7l0,0c-1.2,1.2-2.5,2.4-3.8,3.5c-3.6,3.2-6.5,3.3-10.3,0.4
		c-1.8-1.3-3.4-2.9-5-4.5l0,0c-1.3-1.2-2.5-2.5-3.9-3.6c-4.6-3.8-8.9-4-13.7-0.5c-2,1.5-3.8,3.2-5.5,5l0,0l0,0
		c-0.6,0.6-1.2,1.2-1.7,1.7c-5.5,5.3-8.7,5.3-14.2,0.1c-0.7-0.6-1.4-1.3-2-2v0c-1.8-1.7-3.6-3.5-5.6-4.9c-3.9-2.9-7.7-3.1-11.9-0.5
		c-1.7,1-3.1,2.4-4.5,3.7c-0.6,0.5-1.1,1.1-1.7,1.7c-1.6,1.6-3.1,3.1-5,4.4c-2.9,2.1-5.4,2.1-8.4,0.2c-1.5-0.9-2.7-2.1-3.8-3.2
		c-0.5-0.4-0.9-0.9-1.3-1.2c-0.4-0.4-0.8-0.7-1.1-1.1l0,0C12,6.3,10.5,4.8,8.7,3.6C6.2,2,3.6,1.4,1,2.1c0.1,1.1,0.1,2.1,0.2,3.2
		c2.6-0.9,5,0.1,8.1,2.8C10.3,9,11.4,10,12.4,11l0,0c1.6,1.6,3.3,3.2,5.1,4.6c4.7,3.4,9,3.3,13.6-0.4c1.7-1.3,3.2-2.8,4.7-4.3h0
		c1.1-1.1,2.2-2.1,3.3-3.2c4.1-3.6,7-3.8,11.3-0.5c0.8,0.6,1.6,1.4,2.4,2.1l0,0c0.3,0.3,0.5,0.5,0.8,0.8c0.6,0.5,1.2,1.1,1.7,1.7
		l0,0v0c1,1,2.1,2,3.2,2.9c5.1,4.4,10.1,4.4,15.1-0.1c1.6-1.4,3.1-2.9,4.6-4.4c1.6-1.6,3.2-3.1,5.1-4.3c2.3-1.5,4.6-1.7,7-0.2
		c2,1.2,3.8,2.8,5.5,4.5c1.7,1.8,3.5,3.5,5.5,5c4.3,3.4,8.6,3.5,13,0.3c0.6-0.4,1.2-0.9,1.8-1.4v0c0.2-0.2,0.4-0.3,0.5-0.5
		c1.2-1,2.3-2.1,3.3-3.1v0c1.3-1.3,2.5-2.5,3.9-3.6c3.8-3,6.6-3,10.3,0c1,0.8,1.8,1.6,2.7,2.5c0.3,0.3,0.7,0.7,1,1
		c0.4,0.4,0.9,0.8,1.3,1.2l0,0c1.4,1.3,2.8,2.7,4.4,3.8c4.4,3.1,8.6,3.1,12.9-0.2c1.8-1.4,3.5-3,5.1-4.6v0c0.7-0.7,1.4-1.4,2.2-2.1
		c5.6-5.3,8.7-5.3,14.4,0c0.7,0.6,1.3,1.2,2,1.9c1.5,1.4,3,2.8,4.5,4.2c4.7,4,9.3,4.1,14.1,0.3c1.5-1.2,2.8-2.5,4.2-3.8
		c0.2-0.2,0.4-0.4,0.7-0.7c1.7-1.7,3.4-3.4,5.4-4.7c0.7-0.5,1.4-0.8,2.1-1l0,0c0.6-0.2,1.2-0.3,1.7-0.3c1.2,0,2.4,0.4,3.6,1.2
		c1.5,0.9,2.7,2,4,3.2c0.6,0.5,1.1,1.1,1.7,1.6l0,0c1.7,1.6,3.4,3.3,5.3,4.7c2.2,1.6,4.4,2.4,6.6,2.4c2.3,0,4.6-0.9,6.9-2.8
		c1.7-1.3,3.2-2.8,4.7-4.3c1.1-1.1,2.2-2.1,3.3-3.2c2.6-2.4,4.8-3.3,7.2-2.7c1,0.3,2.1,0.8,3.3,1.7c0.8,0.6,1.5,1.2,2.3,1.9l0,0
		c0.2,0.2,0.5,0.4,0.7,0.6c0.8,0.7,1.5,1.4,2.3,2.2l0,0c1.7,1.6,3.3,3.2,5.3,4.6c0.4,0.2,0.7,0.5,1.1,0.7l0,0
		c4.2,2.4,8.3,1.7,12.5-1.9c1.6-1.4,3.1-2.9,4.6-4.4c1.6-1.6,3.2-3.1,5.1-4.3c2.3-1.5,4.6-1.7,7-0.2c2,1.2,3.8,2.8,5.5,4.5
		c1.7,1.8,3.5,3.5,5.5,5c4.3,3.4,8.6,3.5,13,0.3c0.6-0.4,1.2-0.9,1.8-1.4c0.2-0.2,0.4-0.3,0.5-0.5c1.2-1,2.3-2.1,3.3-3.1l0,0
		c1.3-1.3,2.5-2.5,3.9-3.6c0.6-0.5,1.2-0.9,1.8-1.2V1.5z"/>
</mask>
<path class="st3" d="M335.7,1.5h0.5V0.8l-0.7,0.3L335.7,1.5z M331.3,4.4l0.3,0.4l0,0L331.3,4.4z M327.3,8.1l0.3,0.4l0,0L327.3,8.1z
	 M323.5,11.6l-0.3-0.4v0L323.5,11.6z M313.2,12.1l-0.3,0.4l0,0L313.2,12.1z M308.2,7.6l0.4-0.4l0,0L308.2,7.6z M308.2,7.6l-0.4,0.4
	l0,0l0,0L308.2,7.6z M308.2,7.6l0.4-0.4l0,0L308.2,7.6z M304.3,4l0.3-0.4l0,0L304.3,4z M290.6,3.5l-0.3-0.4v0L290.6,3.5z M285,8.5
	l-0.4-0.4l0,0L285,8.5z M285,8.5l0.4,0.4l0,0L285,8.5z M283.3,10.2l0.3,0.4v0L283.3,10.2z M269.1,10.3l0.3-0.4v0L269.1,10.3z
	 M267,8.4l0.3-0.4l0,0L267,8.4z M261.4,3.4l-0.3,0.4v0L261.4,3.4z M255.4,1.1l0,0.5l0,0l0,0L255.4,1.1z M247.3,4.5L247,4.1l0,0
	L247.3,4.5z M244.3,7.4l0.3,0.4l0,0L244.3,7.4z M244.3,7.4L243.9,7l0,0L244.3,7.4z M240.8,10.7l0.3,0.4l0,0L240.8,10.7z M234,14.3
	l0,0.5l0,0l0,0L234,14.3z M230.1,12.9l-0.3,0.4l0,0L230.1,12.9z M226.3,9.7l-0.3,0.4l0,0L226.3,9.7z M224.9,8.5l-0.3,0.4l0,0l0,0
	L224.9,8.5z M223.8,7.4l0.3-0.4v0L223.8,7.4z M218.7,3.1l0.3-0.4l0,0L218.7,3.1z M216.3,1.8l-0.2,0.5l0,0L216.3,1.8z M207.2,3.2
	l-0.3-0.4l0,0L207.2,3.2z M204.4,5.4l-0.3-0.4l0,0L204.4,5.4z M201.9,7.8l0.3,0.4l0,0L201.9,7.8z M201.9,7.8l-0.3-0.4l0,0L201.9,7.8
	z M197.4,11.9l0.3,0.4v0L197.4,11.9z M186.4,11.9l0.3-0.4l0,0L186.4,11.9z M182.5,8.2l0.3-0.4l0,0L182.5,8.2z M177.9,4.1l0.3-0.4
	l0,0L177.9,4.1z M164.2,4l-0.3-0.4v0L164.2,4z M159.2,8.6l-0.4-0.4l0,0l0,0L159.2,8.6z M159.2,8.6l0.4,0.4l0,0l0,0L159.2,8.6z
	 M159.2,8.6l0.4,0.4l0,0L159.2,8.6z M156.3,11.4l-0.3-0.4v0L156.3,11.4z M143.9,11.5l0.3-0.4l0,0L143.9,11.5z M142,9.8l-0.3,0.4l0,0
	L142,9.8z M142,9.8l0.3-0.4l0,0L142,9.8z M141.6,9.3l0.3-0.4v0L141.6,9.3z M140.2,8l0.3-0.4v0L140.2,8z M136.9,5l-0.3,0.4l0,0
	L136.9,5z M121.3,5l0.3,0.4v0L121.3,5z M117.2,8.7l-0.3-0.4l0,0l0,0L117.2,8.7z M117.2,8.7l0.3,0.4l0,0l0,0L117.2,8.7z M113.5,12.2
	l-0.3-0.4v0L113.5,12.2z M103.2,12.6l-0.3,0.4v0L103.2,12.6z M98.1,8.1l0.4-0.4l0,0L98.1,8.1z M98.1,8.1l-0.4,0.4l0,0L98.1,8.1z
	 M94.2,4.5l0.3-0.4l0,0L94.2,4.5z M80.5,4.1l-0.3-0.4l0,0L80.5,4.1z M75,9.1l0.3,0.4l0,0L75,9.1z M75,9.1l-0.3-0.4l0,0L75,9.1z
	 M75,9.1l-0.4-0.4l0,0L75,9.1z M73.2,10.8l0.3,0.4l0,0L73.2,10.8z M59,10.9l0.3-0.4l0,0L59,10.9z M57,8.9l0.3-0.4l0,0l0,0L57,8.9z
	 M57,8.9l-0.3,0.4l0,0l0,0L57,8.9z M51.4,4l-0.3,0.4l0,0L51.4,4z M39.6,3.5l-0.3-0.4l0,0L39.6,3.5z M35.1,7.2l0.3,0.4l0,0L35.1,7.2z
	 M33.3,8.9l0.4,0.4L33.3,8.9z M28.4,13.3l-0.3-0.4h0L28.4,13.3z M20,13.5l-0.3,0.4l0,0L20,13.5z M16.2,10.3l-0.3,0.4l0,0L16.2,10.3z
	 M14.9,9l-0.3,0.4l0,0l0,0L14.9,9z M13.7,7.9l-0.4,0.4l0,0L13.7,7.9z M13.7,7.9l0.4-0.4l0,0L13.7,7.9z M8.7,3.6L9,3.2l0,0L8.7,3.6z
	 M1,2.1L0.9,1.6L0.5,1.7l0,0.4L1,2.1z M1.2,5.3l-0.5,0l0,0.6l0.6-0.2L1.2,5.3z M9.3,8l0.3-0.4l0,0L9.3,8z M12.4,11l0.4-0.4l0,0
	L12.4,11z M12.4,11L12,11.3l0,0L12.4,11z M17.5,15.5l-0.3,0.4l0,0L17.5,15.5z M31.1,15.2l0.3,0.4l0,0L31.1,15.2z M35.8,10.9l0.4,0.4
	l0,0l0,0L35.8,10.9z M35.8,10.9l-0.4-0.4l0,0l0,0L35.8,10.9z M39.1,7.7l0.3,0.4l0,0L39.1,7.7z M50.4,7.2l-0.3,0.4l0,0L50.4,7.2z
	 M52.8,9.3L53.1,9l0,0L52.8,9.3z M52.8,9.3l-0.3,0.4l0,0L52.8,9.3z M53.6,10.1l-0.3,0.4l0,0L53.6,10.1z M55.3,11.7L55,12.1l0,0
	L55.3,11.7z M55.3,11.7l0.3-0.4l0,0L55.3,11.7z M55.3,11.7L55,12.1l0,0L55.3,11.7z M58.5,14.7l0.3-0.4l0,0L58.5,14.7z M73.6,14.6
	l0.3,0.4l0,0L73.6,14.6z M78.2,10.3l-0.3-0.4l0,0L78.2,10.3z M83.4,5.9l0.3,0.4l0,0L83.4,5.9z M90.4,5.7l-0.3,0.4l0,0L90.4,5.7z
	 M95.8,10.2l-0.4,0.3l0,0L95.8,10.2z M101.3,15.2l0.3-0.4v0L101.3,15.2z M114.3,15.5l-0.3-0.4l0,0L114.3,15.5z M116.1,14.1l0.3,0.4
	l0,0l0,0L116.1,14.1z M116.1,14.1l-0.3-0.4l0,0l0,0L116.1,14.1z M116.7,13.6L117,14l0,0L116.7,13.6z M120,10.5l0.4,0.4l0,0l0,0
	L120,10.5z M120,10.5l-0.4-0.4l0,0l0,0L120,10.5z M123.9,6.8l-0.3-0.4v0L123.9,6.8z M134.3,6.9l-0.3,0.4l0,0L134.3,6.9z M137,9.4
	l0.3-0.4l0,0L137,9.4z M138,10.4l-0.3,0.4l0,0L138,10.4z M139.3,11.6l0.3-0.4l0,0L139.3,11.6z M139.3,11.6L139,12l0,0L139.3,11.6z
	 M143.7,15.4l-0.3,0.4v0L143.7,15.4z M156.6,15.2l0.3,0.4v0L156.6,15.2z M161.7,10.6l0.4,0.4l0,0l0,0L161.7,10.6z M161.7,10.6
	l-0.4-0.4l0,0l0,0L161.7,10.6z M163.9,8.5l-0.3-0.4l0,0L163.9,8.5z M178.3,8.5l0.3-0.4v0L178.3,8.5z M180.2,10.4l0.3-0.4l0,0
	L180.2,10.4z M184.7,14.5l0.3-0.4l0,0L184.7,14.5z M198.9,14.9l-0.3-0.4v0L198.9,14.9z M203,11l-0.3-0.4l0,0L203,11z M203.7,10.4
	l0.4,0.4l0,0L203.7,10.4z M209.2,5.7l-0.3-0.4l0,0L209.2,5.7z M211.2,4.6l0.5,0l0-0.6l-0.6,0.2L211.2,4.6z M211.2,4.7l-0.5,0l0,0.6
	l0.6-0.2L211.2,4.7z M213,4.4V3.9l0,0L213,4.4z M216.6,5.5L216.3,6v0L216.6,5.5z M220.6,8.8l0.3-0.4l0,0L220.6,8.8z M222.3,10.4
	l-0.3,0.4l0,0L222.3,10.4z M222.3,10.4l0.3-0.4l0,0L222.3,10.4z M227.5,15.1l-0.3,0.4l0,0L227.5,15.1z M234.2,17.5V17l0,0
	L234.2,17.5z M241.1,14.6l0.3,0.4v0L241.1,14.6z M245.8,10.3l0.4,0.4l0,0L245.8,10.3z M249.1,7.1l0.3,0.4l0,0L249.1,7.1z M256.3,4.4
	l0.1-0.5l0,0L256.3,4.4z M259.6,6.1l-0.3,0.4l0,0L259.6,6.1z M261.9,8l-0.3,0.4l0,0L261.9,8z M261.9,8l0.3-0.4v0L261.9,8z
	 M262.6,8.7l0.3-0.4l0,0L262.6,8.7z M264.8,10.8l0.4-0.3l0,0l0,0L264.8,10.8z M264.8,10.8l-0.4,0.3l0,0l0,0L264.8,10.8z M270.1,15.4
	l-0.3,0.4v0L270.1,15.4z M271.2,16l-0.2,0.4l0.6,0.3l0.1-0.7L271.2,16z M271.2,16l0.2-0.4l-0.6-0.4l-0.1,0.7L271.2,16z M283.6,14.1
	l0.3,0.4v0L283.6,14.1z M288.3,9.7l-0.3-0.4l0,0L288.3,9.7z M293.4,5.4l0.3,0.4v0L293.4,5.4z M300.4,5.2l-0.3,0.4l0,0L300.4,5.2z
	 M305.9,9.6l-0.4,0.3v0L305.9,9.6z M311.4,14.7l0.3-0.4v0L311.4,14.7z M324.4,14.9l-0.3-0.4l0,0L324.4,14.9z M326.2,13.5l-0.3-0.4
	l0,0L326.2,13.5z M326.7,13l0.3,0.4v0L326.7,13z M330,9.9l0.4,0.4l0,0l0,0L330,9.9z M330,9.9l-0.4-0.4l0,0l0,0L330,9.9z M333.9,6.3
	l-0.3-0.4v0L333.9,6.3z M335.7,5l0.2,0.4l0.3-0.1V5H335.7z M335.6,1.1c-1.5,0.6-3,1.6-4.6,3l0.7,0.8c1.5-1.3,2.9-2.2,4.3-2.8
	L335.6,1.1z M331,4c-1.4,1.2-2.7,2.5-4.1,3.8l0.7,0.7c1.3-1.3,2.7-2.5,4-3.7L331,4z M326.9,7.8c-1.2,1.2-2.5,2.3-3.7,3.5l0.7,0.7
	c1.3-1.1,2.5-2.3,3.8-3.5L326.9,7.8z M323.2,11.3c-1.8,1.6-3.3,2.3-4.8,2.4c-1.5,0.1-3-0.6-4.9-2l-0.6,0.8c2,1.4,3.8,2.2,5.6,2.1
	c1.8-0.1,3.5-1,5.4-2.6L323.2,11.3z M313.5,11.7c-1.8-1.3-3.4-2.9-5-4.4l-0.7,0.7c1.6,1.6,3.2,3.2,5.1,4.5L313.5,11.7z M308.5,7.2
	L308.5,7.2l-0.7,0.7l0,0L308.5,7.2z M308.5,7.2L308.5,7.2l-0.7,0.7l0,0L308.5,7.2z M308.5,7.2c-1.3-1.2-2.5-2.5-3.9-3.6L304,4.3
	c1.4,1.1,2.6,2.3,3.9,3.6L308.5,7.2z M304.6,3.6c-2.4-1.9-4.7-3-7.1-3.1c-2.4-0.1-4.8,0.8-7.2,2.6l0.6,0.8c2.3-1.7,4.5-2.5,6.6-2.4
	c2.1,0.1,4.2,1,6.5,2.8L304.6,3.6z M290.3,3.1c-2.1,1.5-3.8,3.3-5.6,5l0.7,0.7c1.8-1.8,3.5-3.5,5.5-4.9L290.3,3.1z M284.7,8.2
	L284.7,8.2l0.7,0.7l0,0L284.7,8.2z M284.7,8.2c-0.6,0.6-1.2,1.2-1.7,1.7l0.7,0.7c0.6-0.6,1.2-1.2,1.8-1.7L284.7,8.2z M282.9,9.9
	c-2.7,2.6-4.8,3.8-6.8,3.9c-2,0-4-1.2-6.8-3.8l-0.7,0.7c2.8,2.6,5.1,4,7.5,4c2.4,0,4.7-1.5,7.4-4.1L282.9,9.9z M269.4,10
	c-0.7-0.6-1.4-1.3-2-2l-0.7,0.7c0.7,0.7,1.4,1.3,2,2L269.4,10z M267.4,8c-1.8-1.7-3.6-3.5-5.6-5l-0.6,0.8c2,1.5,3.7,3.2,5.5,4.9
	L267.4,8z M261.7,3c-2.1-1.5-4.2-2.4-6.3-2.4l0,1c1.9,0,3.8,0.8,5.8,2.2L261.7,3z M255.4,0.6c-2.9-0.2-5.6,1-8.4,3.5l0.7,0.7
	c2.7-2.4,5.2-3.4,7.7-3.2L255.4,0.6z M247,4.1C246,5.1,244.9,6,243.9,7l0.7,0.7c1-1,2-2,3-2.9L247,4.1z M243.9,7L243.9,7l0.7,0.7
	l0,0L243.9,7z M243.9,7c-1.2,1.1-2.3,2.2-3.5,3.3l0.7,0.8c1.2-1.1,2.4-2.2,3.5-3.3L243.9,7z M240.4,10.3c-2.7,2.4-4.7,3.5-6.5,3.5
	l0,1c2.2-0.1,4.4-1.4,7.1-3.8L240.4,10.3z M234,13.8c-1.1,0-2.3-0.5-3.6-1.3l-0.5,0.8c1.4,0.9,2.8,1.4,4.2,1.5L234,13.8z
	 M230.4,12.5c-1.4-0.9-2.6-2.1-3.8-3.2l-0.7,0.7c1.1,1.1,2.4,2.3,3.9,3.3L230.4,12.5z M226.6,9.3c-0.5-0.4-0.9-0.9-1.3-1.3l-0.7,0.7
	c0.4,0.4,0.9,0.8,1.3,1.2L226.6,9.3z M225.3,8.1c-0.4-0.4-0.8-0.7-1.1-1.1l-0.7,0.7c0.4,0.4,0.7,0.7,1.1,1.1L225.3,8.1z M224.1,7
	c-1.7-1.6-3.3-3.2-5.1-4.4l-0.5,0.8c1.8,1.2,3.3,2.6,5,4.3L224.1,7z M219,2.6c-0.8-0.5-1.7-1-2.5-1.3l-0.3,0.9
	c0.8,0.3,1.5,0.7,2.3,1.2L219,2.6z M216.5,1.4c-3.2-1.2-6.4-0.7-9.6,1.4l0.6,0.8c2.9-2,5.8-2.4,8.7-1.3L216.5,1.4z M206.9,2.8
	c-1,0.7-1.9,1.5-2.8,2.3l0.7,0.7c0.9-0.8,1.7-1.5,2.7-2.2L206.9,2.8z M204.1,5.1c-0.9,0.8-1.7,1.6-2.5,2.4l0.7,0.7
	c0.8-0.8,1.7-1.6,2.5-2.4L204.1,5.1z M201.6,7.4L201.6,7.4l0.7,0.7l0,0L201.6,7.4z M201.6,7.5c-1.5,1.4-2.9,2.8-4.5,4.1l0.6,0.8
	c1.6-1.3,3.1-2.7,4.5-4.2L201.6,7.5z M197.1,11.6c-2.1,1.7-3.7,2.5-5.2,2.4c-1.5,0-3.1-0.8-5.2-2.5l-0.6,0.8
	c2.1,1.7,3.9,2.7,5.8,2.7c1.9,0,3.7-0.9,5.8-2.7L197.1,11.6z M186.7,11.5c-1.4-1.1-2.6-2.4-3.9-3.6l-0.7,0.7c1.3,1.3,2.6,2.5,4,3.7
	L186.7,11.5z M182.8,7.9c-1.5-1.4-2.9-2.9-4.6-4.2l-0.6,0.8c1.6,1.2,3,2.6,4.5,4.1L182.8,7.9z M178.2,3.7c-2.4-1.9-4.8-2.8-7.2-2.8
	c-2.4,0-4.8,0.9-7.1,2.8l0.6,0.8c2.2-1.8,4.4-2.6,6.5-2.6c2.1,0,4.3,0.9,6.6,2.6L178.2,3.7z M163.9,3.7c-1.8,1.4-3.4,3-5,4.6
	l0.7,0.7c1.6-1.6,3.2-3.1,4.9-4.5L163.9,3.7z M158.9,8.2L158.9,8.2l0.7,0.7v0L158.9,8.2z M158.9,8.2L158.9,8.2l0.7,0.7v0L158.9,8.2z
	 M158.9,8.2c-1,1-1.9,1.9-2.9,2.8l0.7,0.7c1-0.9,2-1.9,3-2.8L158.9,8.2z M155.9,11c-2.3,2-4.1,3-5.9,3c-1.8,0-3.6-0.9-5.9-2.9
	l-0.7,0.7c2.3,2.1,4.4,3.2,6.5,3.2c2.1,0,4.2-1.2,6.5-3.3L155.9,11z M144.2,11.1c-0.6-0.6-1.2-1.1-1.9-1.7l-0.7,0.7
	c0.6,0.6,1.2,1.2,1.9,1.7L144.2,11.1z M142.4,9.4L142.4,9.4l-0.7,0.7l0,0L142.4,9.4z M142.4,9.4c-0.2-0.1-0.3-0.3-0.5-0.4l-0.7,0.7
	c0.2,0.1,0.3,0.3,0.5,0.4L142.4,9.4z M141.9,9c-0.4-0.4-0.9-0.9-1.3-1.3l-0.7,0.7c0.4,0.4,0.9,0.9,1.3,1.3L141.9,9z M140.6,7.7
	c-1.1-1-2.2-2.1-3.3-3.1l-0.7,0.8c1.1,1,2.2,2,3.3,3.1L140.6,7.7z M137.2,4.6c-2.8-2.4-5.4-3.7-8.2-3.7c-2.7,0-5.4,1.3-8.1,3.7
	l0.7,0.8c2.7-2.3,5.1-3.4,7.5-3.4c2.4,0,4.8,1.1,7.5,3.4L137.2,4.6z M120.9,4.6c-1.4,1.2-2.7,2.5-4.1,3.8l0.7,0.7
	c1.3-1.3,2.7-2.5,4-3.7L120.9,4.6z M116.9,8.4L116.9,8.4l0.7,0.7v0L116.9,8.4z M116.9,8.3c-1.2,1.2-2.5,2.3-3.7,3.5l0.7,0.7
	c1.3-1.1,2.5-2.3,3.8-3.5L116.9,8.3z M113.1,11.8c-1.8,1.6-3.3,2.3-4.8,2.4c-1.5,0.1-3-0.6-4.9-2l-0.6,0.8c2,1.4,3.8,2.2,5.6,2.1
	c1.8-0.1,3.5-1,5.4-2.6L113.1,11.8z M103.5,12.2c-1.8-1.3-3.4-2.9-5-4.4l-0.7,0.7c1.6,1.6,3.2,3.2,5.1,4.5L103.5,12.2z M98.5,7.8
	L98.5,7.8l-0.7,0.7l0,0L98.5,7.8z M98.5,7.8c-1.3-1.2-2.5-2.5-3.9-3.6l-0.6,0.8c1.4,1.1,2.6,2.3,3.9,3.6L98.5,7.8z M94.6,4.1
	c-2.4-1.9-4.7-3-7.1-3.1c-2.4-0.1-4.8,0.8-7.2,2.6l0.6,0.8c2.3-1.7,4.5-2.5,6.6-2.4c2.1,0.1,4.2,1,6.5,2.8L94.6,4.1z M80.2,3.7
	c-2.1,1.5-3.8,3.3-5.6,5l0.7,0.7c1.8-1.8,3.5-3.5,5.5-5L80.2,3.7z M74.6,8.7L74.6,8.7l0.7,0.7l0,0L74.6,8.7z M74.6,8.7L74.6,8.7
	l0.7,0.7l0,0L74.6,8.7z M74.6,8.7c-0.6,0.6-1.2,1.2-1.7,1.7l0.7,0.7c0.6-0.6,1.2-1.2,1.7-1.7L74.6,8.7z M72.9,10.4
	c-2.7,2.6-4.8,3.8-6.8,3.9c-2,0-4-1.2-6.8-3.8l-0.7,0.7c2.8,2.6,5.1,4,7.5,4c2.4,0,4.7-1.5,7.4-4.1L72.9,10.4z M59.4,10.5
	c-0.7-0.6-1.4-1.3-2-2l-0.7,0.7c0.7,0.7,1.4,1.3,2,2L59.4,10.5z M57.3,8.6L57.3,8.6l-0.7,0.7l0,0L57.3,8.6z M57.3,8.6
	c-1.8-1.7-3.6-3.5-5.6-5l-0.6,0.8c2,1.5,3.7,3.2,5.5,4.9L57.3,8.6z M51.7,3.6c-2-1.5-4-2.3-6.1-2.4c-2.1-0.1-4.2,0.5-6.3,1.9
	l0.5,0.8c2-1.2,3.9-1.8,5.7-1.7c1.8,0.1,3.7,0.8,5.6,2.2L51.7,3.6z M39.3,3.1c-1.7,1.1-3.2,2.4-4.6,3.8l0.7,0.7
	c1.4-1.4,2.8-2.7,4.4-3.7L39.3,3.1z M34.7,6.8C34.1,7.4,33.6,8,33,8.5l0.7,0.7c0.6-0.6,1.1-1.1,1.7-1.7L34.7,6.8z M33,8.5
	c-1.6,1.6-3.1,3.1-4.9,4.4l0.6,0.8c1.8-1.3,3.4-2.9,5-4.5L33,8.5z M28.1,12.9c-1.4,1-2.6,1.5-3.9,1.5c-1.2,0-2.5-0.4-3.9-1.3
	l-0.5,0.8c1.5,1,3,1.5,4.5,1.5c1.5,0,2.9-0.6,4.4-1.7L28.1,12.9z M20.3,13.1c-1.4-0.9-2.6-2.1-3.8-3.2l-0.7,0.7
	c1.1,1.1,2.4,2.3,3.9,3.3L20.3,13.1z M16.6,9.9c-0.5-0.4-0.9-0.9-1.3-1.3l-0.7,0.7c0.4,0.4,0.9,0.8,1.3,1.2L16.6,9.9z M15.2,8.7
	c-0.4-0.4-0.8-0.7-1.1-1.1l-0.7,0.7c0.4,0.4,0.7,0.7,1.1,1.1L15.2,8.7z M14.1,7.6L14.1,7.6l-0.7,0.7l0,0L14.1,7.6z M14.1,7.6
	C12.4,5.9,10.8,4.4,9,3.2L8.4,4c1.8,1.2,3.3,2.6,5,4.3L14.1,7.6z M9,3.2C6.4,1.5,3.7,0.9,0.9,1.6l0.2,1C3.6,1.9,6,2.5,8.4,4L9,3.2z
	 M0.5,2.1c0.1,1.1,0.1,2.1,0.2,3.2l1-0.1C1.6,4.2,1.6,3.1,1.5,2L0.5,2.1z M1.4,5.7c1.2-0.4,2.3-0.4,3.5,0c1.2,0.4,2.5,1.3,4.1,2.6
	l0.7-0.8C8,6.3,6.6,5.3,5.2,4.8C3.8,4.3,2.4,4.3,1,4.8L1.4,5.7z M8.9,8.4C10,9.3,11,10.3,12,11.3l0.7-0.7c-1-1-2-2-3.1-3L8.9,8.4z
	 M12,11.3L12,11.3l0.7-0.7l0,0L12,11.3z M12,11.3c1.6,1.6,3.3,3.2,5.2,4.6l0.6-0.8c-1.8-1.3-3.4-2.9-5.1-4.5L12,11.3z M17.2,15.9
	c2.4,1.8,4.8,2.6,7.1,2.6s4.7-1.1,7-3l-0.6-0.8c-2.2,1.8-4.3,2.7-6.4,2.7c-2.1,0.1-4.2-0.7-6.5-2.4L17.2,15.9z M31.4,15.6
	c1.7-1.4,3.2-2.9,4.7-4.4l-0.7-0.7c-1.5,1.5-3,3-4.7,4.3L31.4,15.6z M36.2,11.2L36.2,11.2l-0.7-0.7l0,0L36.2,11.2z M36.1,11.2
	c1.1-1.1,2.2-2.1,3.3-3.1l-0.7-0.7c-1.2,1-2.3,2.1-3.3,3.2L36.1,11.2z M39.4,8.1c2-1.8,3.7-2.7,5.3-2.7C46.3,5.3,48,6,50.1,7.6
	l0.6-0.8c-2.2-1.7-4.1-2.6-6.1-2.5c-2,0.1-3.8,1.1-5.9,3L39.4,8.1z M50.1,7.6c0.8,0.6,1.5,1.3,2.3,2.1L53.1,9
	c-0.8-0.7-1.5-1.5-2.4-2.1L50.1,7.6z M52.4,9.7L52.4,9.7L53.1,9l0,0L52.4,9.7z M52.4,9.7c0.3,0.3,0.5,0.5,0.8,0.8l0.7-0.7
	c-0.3-0.2-0.5-0.5-0.8-0.8L52.4,9.7z M53.2,10.4c0.6,0.5,1.2,1.1,1.7,1.7l0.7-0.7c-0.6-0.6-1.2-1.1-1.8-1.7L53.2,10.4z M55,12.1
	L55,12.1l0.7-0.7l0,0L55,12.1z M55,12.1L55,12.1l0.7-0.7l0,0L55,12.1z M55,12.1c1,1,2.1,2,3.2,3l0.7-0.8c-1.1-0.9-2.1-1.9-3.2-2.9
	L55,12.1z M58.2,15.1c2.6,2.2,5.2,3.4,7.9,3.4c2.7,0,5.3-1.2,7.9-3.5l-0.7-0.8c-2.5,2.2-4.8,3.2-7.2,3.2c-2.4,0-4.8-1-7.2-3.2
	L58.2,15.1z M73.9,15c1.6-1.4,3.1-2.9,4.7-4.4l-0.7-0.7c-1.5,1.5-3,3-4.6,4.4L73.9,15z M78.6,10.6c1.6-1.6,3.2-3.1,5-4.3l-0.5-0.8
	c-2,1.3-3.6,2.8-5.2,4.4L78.6,10.6z M83.6,6.3c1.1-0.7,2.1-1.1,3.2-1.1c1.1,0,2.1,0.2,3.3,0.9l0.5-0.9c-1.3-0.8-2.5-1.1-3.8-1.1
	c-1.3,0.1-2.5,0.5-3.7,1.3L83.6,6.3z M90.1,6.1c2,1.2,3.7,2.7,5.4,4.4l0.7-0.7c-1.7-1.7-3.5-3.3-5.6-4.6L90.1,6.1z M95.5,10.6
	c1.7,1.8,3.6,3.5,5.5,5.1l0.6-0.8c-1.9-1.5-3.7-3.2-5.5-5L95.5,10.6z M101,15.6c2.2,1.7,4.5,2.7,6.7,2.7s4.6-0.8,6.9-2.4l-0.6-0.8
	c-2.1,1.6-4.2,2.3-6.2,2.2c-2,0-4.1-0.9-6.2-2.5L101,15.6z M114.6,15.9c0.6-0.5,1.2-1,1.8-1.5l-0.6-0.8c-0.6,0.5-1.2,1-1.8,1.4
	L114.6,15.9z M116.5,14.4L116.5,14.4l-0.7-0.7v0L116.5,14.4z M116.4,14.4c0.2-0.2,0.4-0.3,0.5-0.5l-0.6-0.8
	c-0.2,0.2-0.4,0.3-0.5,0.5L116.4,14.4z M117,14c1.2-1,2.3-2.1,3.4-3.2l-0.7-0.7c-1.1,1.1-2.1,2.1-3.3,3.1L117,14z M120.4,10.8
	L120.4,10.8l-0.7-0.7v0L120.4,10.8z M120.3,10.8c1.3-1.3,2.5-2.5,3.9-3.6l-0.6-0.8c-1.4,1.1-2.7,2.4-4,3.7L120.3,10.8z M124.2,7.2
	c1.9-1.5,3.4-2.1,4.9-2.1c1.5,0,3,0.7,4.8,2.2l0.6-0.8c-1.9-1.6-3.7-2.4-5.5-2.4c-1.8,0-3.6,0.8-5.5,2.3L124.2,7.2z M133.9,7.3
	c0.9,0.8,1.8,1.6,2.7,2.5l0.7-0.7c-0.9-0.9-1.8-1.7-2.8-2.5L133.9,7.3z M136.6,9.7c0.3,0.3,0.7,0.7,1,1l0.7-0.7
	c-0.3-0.3-0.7-0.7-1-1L136.6,9.7z M137.7,10.7c0.4,0.4,0.9,0.8,1.3,1.2l0.7-0.7c-0.4-0.4-0.9-0.8-1.3-1.3L137.7,10.7z M139,12
	L139,12l0.7-0.7l0,0L139,12z M139,12c1.4,1.3,2.8,2.7,4.4,3.9L144,15c-1.6-1.1-2.9-2.4-4.3-3.8L139,12z M143.4,15.8
	c2.3,1.6,4.5,2.4,6.8,2.4s4.5-0.9,6.7-2.6l-0.6-0.8c-2.1,1.6-4.1,2.4-6.1,2.4s-4-0.7-6.2-2.2L143.4,15.8z M156.9,15.6
	c1.9-1.4,3.5-3.1,5.1-4.7l-0.7-0.7c-1.6,1.6-3.2,3.2-5.1,4.6L156.9,15.6z M162.1,10.9L162.1,10.9l-0.7-0.7v0L162.1,10.9z
	 M162.1,10.9c0.7-0.7,1.4-1.4,2.2-2.1l-0.7-0.7c-0.7,0.7-1.5,1.4-2.2,2.1L162.1,10.9z M164.2,8.8c2.8-2.6,4.9-3.8,6.8-3.8
	c2,0,4,1.2,6.9,3.9l0.7-0.7c-2.8-2.7-5.2-4.1-7.6-4.1c-2.4,0-4.7,1.5-7.5,4.1L164.2,8.8z M177.9,8.9c0.7,0.6,1.3,1.2,2,1.9l0.7-0.7
	c-0.7-0.6-1.3-1.3-2-1.9L177.9,8.9z M179.9,10.7c1.5,1.4,3,2.9,4.5,4.2l0.6-0.8c-1.5-1.3-3-2.7-4.5-4.2L179.9,10.7z M184.4,14.9
	c2.4,2.1,4.8,3.1,7.3,3.2c2.5,0.1,5-0.9,7.4-2.9l-0.6-0.8c-2.3,1.8-4.6,2.7-6.8,2.6c-2.2,0-4.4-1-6.7-3L184.4,14.9z M199.2,15.3
	c1.5-1.2,2.9-2.5,4.2-3.9l-0.7-0.7c-1.3,1.3-2.7,2.6-4.1,3.8L199.2,15.3z M203.4,11.4c0.2-0.2,0.4-0.4,0.7-0.7l-0.7-0.7
	c-0.2,0.2-0.4,0.4-0.7,0.7L203.4,11.4z M204.1,10.7c1.7-1.7,3.4-3.3,5.4-4.7l-0.6-0.8c-2.1,1.4-3.8,3.1-5.5,4.8L204.1,10.7z
	 M209.4,6.1c0.7-0.4,1.3-0.8,1.9-1l-0.3-1c-0.7,0.2-1.5,0.6-2.2,1.1L209.4,6.1z M210.7,4.7L210.7,4.7l1,0l0,0L210.7,4.7z M211.4,5.2
	c0.5-0.2,1.1-0.3,1.6-0.3l0-1c-0.6,0-1.3,0.1-1.9,0.3L211.4,5.2z M213,4.9c1.1,0,2.2,0.3,3.4,1.1l0.5-0.8c-1.3-0.8-2.6-1.2-3.9-1.2
	L213,4.9z M216.3,6c1.4,0.9,2.7,2,3.9,3.2l0.7-0.7c-1.3-1.2-2.6-2.3-4.1-3.3L216.3,6z M220.3,9.1c0.6,0.5,1.1,1.1,1.7,1.6l0.7-0.7
	c-0.6-0.5-1.1-1.1-1.7-1.6L220.3,9.1z M221.9,10.7L221.9,10.7l0.7-0.7l0,0L221.9,10.7z M221.9,10.7c1.7,1.6,3.4,3.3,5.3,4.8l0.6-0.8
	c-1.9-1.4-3.5-3-5.2-4.7L221.9,10.7z M227.2,15.5c2.2,1.7,4.6,2.6,7,2.5l0-1c-2.1,0.1-4.2-0.7-6.3-2.3L227.2,15.5z M234.2,18
	c2.4,0,4.8-1,7.3-3l-0.6-0.8c-2.3,1.9-4.5,2.7-6.6,2.7L234.2,18z M241.4,15c1.7-1.4,3.2-2.9,4.7-4.4l-0.7-0.7c-1.5,1.5-3,3-4.7,4.3
	L241.4,15z M246.2,10.7c1.1-1.1,2.2-2.1,3.3-3.1l-0.7-0.7c-1.2,1-2.3,2.1-3.3,3.2L246.2,10.7z M249.5,7.5c2.6-2.3,4.6-3.1,6.7-2.6
	l0.2-1c-2.6-0.6-4.9,0.4-7.6,2.8L249.5,7.5z M256.2,4.9c1,0.2,2,0.8,3.2,1.6l0.6-0.8c-1.2-0.9-2.4-1.5-3.5-1.8L256.2,4.9z
	 M259.3,6.5c0.8,0.5,1.5,1.2,2.2,1.9l0.7-0.7c-0.7-0.7-1.5-1.4-2.3-2L259.3,6.5z M261.5,8.4L261.5,8.4l0.7-0.7l0,0L261.5,8.4z
	 M261.5,8.4c0.2,0.2,0.5,0.4,0.7,0.6l0.7-0.7c-0.2-0.2-0.5-0.4-0.7-0.6L261.5,8.4z M262.2,9c0.8,0.7,1.5,1.4,2.2,2.1l0.7-0.7
	c-0.7-0.7-1.5-1.5-2.3-2.2L262.2,9z M264.5,11.2L264.5,11.2l0.7-0.7v0L264.5,11.2z M264.5,11.2c1.7,1.6,3.4,3.3,5.3,4.6l0.6-0.8
	c-1.9-1.3-3.5-2.9-5.2-4.5L264.5,11.2z M269.8,15.8c0.4,0.3,0.8,0.5,1.1,0.7l0.5-0.9c-0.4-0.2-0.7-0.4-1-0.6L269.8,15.8z
	 M271.7,16.1L271.7,16.1l-1-0.2l0,0L271.7,16.1z M270.9,16.4c2.2,1.2,4.4,1.7,6.6,1.3c2.2-0.3,4.3-1.5,6.5-3.3l-0.7-0.8
	c-2,1.8-4,2.8-6,3.1c-1.9,0.3-3.9-0.1-5.9-1.2L270.9,16.4z M284,14.4c1.6-1.4,3.1-2.9,4.7-4.4l-0.7-0.7c-1.5,1.5-3,3-4.6,4.4
	L284,14.4z M288.6,10.1c1.6-1.6,3.2-3.1,5-4.3l-0.5-0.8c-2,1.3-3.6,2.8-5.2,4.4L288.6,10.1z M293.7,5.8c1.1-0.7,2.1-1.1,3.2-1.1
	c1.1,0,2.1,0.2,3.3,0.9l0.5-0.9c-1.3-0.8-2.5-1.1-3.8-1.1c-1.3,0.1-2.5,0.5-3.7,1.3L293.7,5.8z M300.1,5.6c2,1.2,3.7,2.7,5.4,4.4
	l0.7-0.7c-1.7-1.7-3.5-3.3-5.6-4.6L300.1,5.6z M305.5,10c1.7,1.8,3.6,3.5,5.5,5.1l0.6-0.8c-1.9-1.5-3.7-3.2-5.5-5L305.5,10z
	 M311.1,15c2.2,1.7,4.5,2.7,6.7,2.7c2.3,0.1,4.6-0.8,6.9-2.4l-0.6-0.8c-2.1,1.6-4.2,2.3-6.2,2.2c-2,0-4.1-0.9-6.2-2.5L311.1,15z
	 M324.7,15.3c0.6-0.5,1.2-1,1.8-1.5l-0.6-0.8c-0.6,0.5-1.2,1-1.8,1.4L324.7,15.3z M326.5,13.9c0.2-0.2,0.4-0.3,0.5-0.5l-0.6-0.8
	c-0.2,0.2-0.4,0.3-0.5,0.5L326.5,13.9z M327,13.4c1.2-1,2.3-2.1,3.4-3.2l-0.7-0.7c-1.1,1.1-2.1,2.1-3.3,3.1L327,13.4z M330.4,10.2
	L330.4,10.2l-0.8-0.7v0L330.4,10.2z M330.4,10.3c1.3-1.3,2.5-2.5,3.9-3.6l-0.6-0.8c-1.4,1.1-2.7,2.4-4,3.7L330.4,10.3z M334.3,6.7
	c0.6-0.5,1.2-0.9,1.7-1.2l-0.5-0.9c-0.6,0.3-1.2,0.8-1.9,1.3L334.3,6.7z M336.2,5V1.5h-1V5H336.2z"/>
</svg>
