<svg width="337" height="19" viewBox="0 0 337 19" fill="none" xmlns="http://www.w3.org/2000/svg">
<mask id="path-1-outside-1_1755_12534" maskUnits="userSpaceOnUse" x="0" y="0" width="337" height="19" fill="black">
<rect fill="white" width="337" height="19"/>
<path fill-rule="evenodd" clip-rule="evenodd" d="M335.745 1.53625C334.297 2.11723 332.828 3.07262 331.307 4.40423C329.924 5.6113 328.593 6.87862 327.262 8.14574C326.025 9.32286 324.789 10.4998 323.511 11.6281C319.876 14.8408 317.052 14.902 313.195 12.0686C311.375 10.7315 309.774 9.15478 308.172 7.57733L308.171 7.5769L308.171 7.57625C306.908 6.33334 305.646 5.08999 304.275 3.96301C299.66 0.180757 295.357 0.00806528 290.568 3.51079C288.547 4.99124 286.785 6.7499 285.022 8.50959L285.021 8.51036C284.443 9.08764 283.864 9.66504 283.277 10.2327C277.767 15.5454 274.6 15.5418 269.052 10.342C268.363 9.69734 267.687 9.03831 267.011 8.37903C265.235 6.64782 263.457 4.9149 261.445 3.43662C259.413 1.94287 257.418 1.16533 255.395 1.118C252.697 0.923699 250.097 2.03575 247.345 4.48844C246.3 5.42199 245.296 6.40089 244.292 7.37926L244.292 7.37966C243.138 8.50384 241.986 9.62732 240.772 10.6805C238.027 13.0549 235.976 14.273 233.98 14.3312C232.728 14.2862 231.46 13.8124 230.079 12.9228C228.618 11.9793 227.379 10.7871 226.251 9.70207C225.791 9.25963 225.35 8.83499 224.92 8.45226C224.53 8.0831 224.153 7.72014 223.783 7.36477C222.072 5.71873 220.531 4.23579 218.722 3.05532C217.925 2.54104 217.119 2.12738 216.304 1.82495C213.275 0.671047 210.235 1.13916 207.18 3.20222C206.207 3.86472 205.295 4.62913 204.429 5.42192C203.579 6.20298 202.747 7.00684 201.916 7.81079L201.915 7.81104C200.45 9.22724 198.985 10.6437 197.42 11.9365C193.207 15.4089 190.614 15.2863 186.416 11.8554C185.024 10.7179 183.743 9.46271 182.462 8.20756C181.001 6.77562 179.539 5.34368 177.913 4.08638C173.236 0.475958 168.788 0.425535 164.187 4.04897C162.42 5.44094 160.821 7.01461 159.223 8.58728L159.222 8.58757L159.222 8.58825C158.252 9.54251 157.283 10.4964 156.276 11.4091C151.712 15.5568 148.436 15.6081 143.886 11.5133C143.25 10.9449 142.637 10.3618 142.021 9.77582L142.02 9.77495C141.866 9.62815 141.711 9.48118 141.556 9.33422C141.107 8.90851 140.661 8.47767 140.216 8.04657C139.132 6.99875 138.046 5.94942 136.903 4.96849C131.442 0.25459 126.684 0.227319 121.27 4.96766C119.887 6.1747 118.556 7.44199 117.225 8.70907L117.224 8.7092C115.988 9.88632 114.751 11.0632 113.474 12.1915C109.839 15.4042 107.014 15.4655 103.157 12.632C101.338 11.2948 99.7364 9.71802 98.1342 8.14047L98.1341 8.14034C96.8716 6.89721 95.6086 5.65362 94.2381 4.52645C89.6231 0.744196 85.3198 0.571506 80.531 4.07423C78.5095 5.55492 76.7471 7.31391 74.9838 9.07389L74.9837 9.07397L74.9832 9.07451C74.4051 9.65156 73.8268 10.2287 73.2393 10.7962C67.7297 16.1088 64.563 16.1053 59.0146 10.9054C58.3259 10.2608 57.6498 9.6018 56.9734 8.94254L56.9734 8.94249C55.1973 7.21128 53.4194 5.47834 51.4078 4.00005C47.4752 1.10946 43.6815 0.900858 39.5558 3.4757C37.8967 4.51178 36.4751 5.84484 35.0614 7.19986C34.4835 7.74929 33.9158 8.31145 33.3477 8.87394C31.7745 10.4318 30.1988 11.992 28.3964 13.2908C25.486 15.389 23.0303 15.4108 20.0412 13.4862C18.581 12.5427 17.3418 11.3506 16.2139 10.2655C15.7541 9.82307 15.3127 9.39843 14.8823 9.01571C14.4927 8.64654 14.1154 8.28358 13.746 7.92822L13.746 7.92822C12.035 6.28217 10.4935 4.79923 8.68491 3.61875C6.20772 2.02074 3.6457 1.39423 1.00003 2.05736C1.05826 3.1212 1.1241 4.19224 1.19712 5.25569C3.80005 4.37915 6.14823 5.30736 9.26232 8.02762C10.3359 8.96747 11.3544 9.96771 12.3736 10.9686L12.3736 10.9686C14.0087 12.5744 15.6456 14.1819 17.5145 15.5445C22.2458 18.9758 26.4828 18.884 31.0742 15.1942C32.7406 13.852 34.2596 12.3556 35.7789 10.8589L35.779 10.8589C36.8677 9.78643 37.9565 8.71385 39.0997 7.69782C43.182 4.05874 46.1146 3.88361 50.4291 7.22264C51.2573 7.85795 52.019 8.58843 52.7809 9.31905L52.781 9.31915C53.0477 9.5749 53.3144 9.83067 53.584 10.0824C54.1721 10.6294 54.751 11.1861 55.3296 11.7424L55.3301 11.7428L55.3301 11.7429C56.3714 12.7442 57.4116 13.7443 58.5022 14.6851C63.5776 19.0765 68.571 19.053 73.5941 14.6339C75.1841 13.2298 76.72 11.7457 78.2412 10.262C79.8563 8.69437 81.4642 7.13435 83.3698 5.91405C85.6463 4.45441 87.979 4.25844 90.3711 5.71816C92.4095 6.95805 94.1753 8.51602 95.8265 10.2103C97.5611 11.9836 99.3677 13.6811 101.325 15.2191C105.619 18.5957 109.898 18.7024 114.325 15.5054C114.948 15.0575 115.535 14.5584 116.121 14.0606L116.121 14.0605C116.299 13.909 116.478 13.7576 116.656 13.6077C117.828 12.6236 118.908 11.5427 119.987 10.4621L119.987 10.462C121.246 9.20109 122.505 7.94065 123.91 6.83505C127.692 3.86254 130.532 3.81568 134.254 6.88209C135.208 7.66107 136.102 8.51841 136.993 9.37244C137.339 9.70416 137.684 10.0354 138.033 10.3613C138.475 10.7737 138.911 11.1922 139.347 11.6104L139.348 11.6115C140.743 12.9504 142.135 14.2872 143.733 15.4165C148.16 18.5454 152.302 18.493 156.601 15.2181C158.438 13.8178 160.069 12.202 161.702 10.5854L161.702 10.5852C162.421 9.87313 163.14 9.16093 163.877 8.46693C169.506 3.18071 172.583 3.15706 178.261 8.49402C178.92 9.11407 179.571 9.74192 180.223 10.3694C181.702 11.7945 183.178 13.2175 184.735 14.542C189.415 18.5445 194.079 18.6409 198.867 14.8644C200.345 13.7 201.708 12.3685 203.048 11.0451C203.271 10.8275 203.493 10.6092 203.715 10.3909C205.433 8.70181 207.148 7.01598 209.156 5.66459C209.846 5.202 210.537 4.86094 211.231 4.64603L211.234 4.69225C211.825 4.49332 212.403 4.38735 212.979 4.37418C214.177 4.37299 215.386 4.75318 216.61 5.53789C218.063 6.468 219.351 7.58752 220.596 8.76738C221.155 9.29687 221.707 9.83373 222.258 10.3706L222.259 10.3708C223.949 12.0149 225.638 13.6589 227.529 15.0916C229.701 16.7375 231.933 17.5394 234.17 17.4789C236.467 17.4809 238.742 16.5349 241.112 14.6308C242.778 13.2885 244.297 11.7921 245.816 10.2954C246.905 9.22298 247.994 8.15041 249.137 7.13438C251.773 4.78435 253.93 3.87888 256.289 4.43149C257.322 4.6989 258.404 5.25745 259.612 6.11145C260.413 6.6735 261.14 7.34819 261.864 8.02062L261.871 8.02655C262.1 8.23871 262.328 8.45062 262.558 8.65865C263.329 9.35794 264.074 10.0848 264.818 10.8112L264.819 10.8117C266.484 12.4363 268.146 14.0587 270.093 15.3662C270.455 15.608 270.816 15.8202 271.176 16.0177L271.177 16.0104C275.35 18.3723 279.481 17.722 283.631 14.0705C285.221 12.6663 286.757 11.1822 288.279 9.69855C289.894 8.13094 291.502 6.57092 293.407 5.35062C295.684 3.89098 298.016 3.695 300.408 5.15473C302.447 6.39462 304.213 7.95259 305.864 9.64682C307.598 11.4202 309.405 13.1176 311.363 14.6557C315.656 18.0322 319.935 18.139 324.363 14.942C324.986 14.4941 325.573 13.995 326.158 13.4972C326.337 13.3456 326.515 13.1942 326.694 13.0443C327.866 12.0601 328.945 10.9792 330.024 9.89862L330.025 9.8983C331.284 8.63746 332.543 7.37713 333.947 6.27162C334.569 5.78278 335.166 5.37307 335.745 5.04332V1.53625Z"/>
</mask>
<path fill-rule="evenodd" clip-rule="evenodd" d="M335.745 1.53625C334.297 2.11723 332.828 3.07262 331.307 4.40423C329.924 5.6113 328.593 6.87862 327.262 8.14574C326.025 9.32286 324.789 10.4998 323.511 11.6281C319.876 14.8408 317.052 14.902 313.195 12.0686C311.375 10.7315 309.774 9.15478 308.172 7.57733L308.171 7.5769L308.171 7.57625C306.908 6.33334 305.646 5.08999 304.275 3.96301C299.66 0.180757 295.357 0.00806528 290.568 3.51079C288.547 4.99124 286.785 6.7499 285.022 8.50959L285.021 8.51036C284.443 9.08764 283.864 9.66504 283.277 10.2327C277.767 15.5454 274.6 15.5418 269.052 10.342C268.363 9.69734 267.687 9.03831 267.011 8.37903C265.235 6.64782 263.457 4.9149 261.445 3.43662C259.413 1.94287 257.418 1.16533 255.395 1.118C252.697 0.923699 250.097 2.03575 247.345 4.48844C246.3 5.42199 245.296 6.40089 244.292 7.37926L244.292 7.37966C243.138 8.50384 241.986 9.62732 240.772 10.6805C238.027 13.0549 235.976 14.273 233.98 14.3312C232.728 14.2862 231.46 13.8124 230.079 12.9228C228.618 11.9793 227.379 10.7871 226.251 9.70207C225.791 9.25963 225.35 8.83499 224.92 8.45226C224.53 8.0831 224.153 7.72014 223.783 7.36477C222.072 5.71873 220.531 4.23579 218.722 3.05532C217.925 2.54104 217.119 2.12738 216.304 1.82495C213.275 0.671047 210.235 1.13916 207.18 3.20222C206.207 3.86472 205.295 4.62913 204.429 5.42192C203.579 6.20298 202.747 7.00684 201.916 7.81079L201.915 7.81104C200.45 9.22724 198.985 10.6437 197.42 11.9365C193.207 15.4089 190.614 15.2863 186.416 11.8554C185.024 10.7179 183.743 9.46271 182.462 8.20756C181.001 6.77562 179.539 5.34368 177.913 4.08638C173.236 0.475958 168.788 0.425535 164.187 4.04897C162.42 5.44094 160.821 7.01461 159.223 8.58728L159.222 8.58757L159.222 8.58825C158.252 9.54251 157.283 10.4964 156.276 11.4091C151.712 15.5568 148.436 15.6081 143.886 11.5133C143.25 10.9449 142.637 10.3618 142.021 9.77582L142.02 9.77495C141.866 9.62815 141.711 9.48118 141.556 9.33422C141.107 8.90851 140.661 8.47767 140.216 8.04657C139.132 6.99875 138.046 5.94942 136.903 4.96849C131.442 0.25459 126.684 0.227319 121.27 4.96766C119.887 6.1747 118.556 7.44199 117.225 8.70907L117.224 8.7092C115.988 9.88632 114.751 11.0632 113.474 12.1915C109.839 15.4042 107.014 15.4655 103.157 12.632C101.338 11.2948 99.7364 9.71802 98.1342 8.14047L98.1341 8.14034C96.8716 6.89721 95.6086 5.65362 94.2381 4.52645C89.6231 0.744196 85.3198 0.571506 80.531 4.07423C78.5095 5.55492 76.7471 7.31391 74.9838 9.07389L74.9837 9.07397L74.9832 9.07451C74.4051 9.65156 73.8268 10.2287 73.2393 10.7962C67.7297 16.1088 64.563 16.1053 59.0146 10.9054C58.3259 10.2608 57.6498 9.6018 56.9734 8.94254L56.9734 8.94249C55.1973 7.21128 53.4194 5.47834 51.4078 4.00005C47.4752 1.10946 43.6815 0.900858 39.5558 3.4757C37.8967 4.51178 36.4751 5.84484 35.0614 7.19986C34.4835 7.74929 33.9158 8.31145 33.3477 8.87394C31.7745 10.4318 30.1988 11.992 28.3964 13.2908C25.486 15.389 23.0303 15.4108 20.0412 13.4862C18.581 12.5427 17.3418 11.3506 16.2139 10.2655C15.7541 9.82307 15.3127 9.39843 14.8823 9.01571C14.4927 8.64654 14.1154 8.28358 13.746 7.92822L13.746 7.92822C12.035 6.28217 10.4935 4.79923 8.68491 3.61875C6.20772 2.02074 3.6457 1.39423 1.00003 2.05736C1.05826 3.1212 1.1241 4.19224 1.19712 5.25569C3.80005 4.37915 6.14823 5.30736 9.26232 8.02762C10.3359 8.96747 11.3544 9.96771 12.3736 10.9686L12.3736 10.9686C14.0087 12.5744 15.6456 14.1819 17.5145 15.5445C22.2458 18.9758 26.4828 18.884 31.0742 15.1942C32.7406 13.852 34.2596 12.3556 35.7789 10.8589L35.779 10.8589C36.8677 9.78643 37.9565 8.71385 39.0997 7.69782C43.182 4.05874 46.1146 3.88361 50.4291 7.22264C51.2573 7.85795 52.019 8.58843 52.7809 9.31905L52.781 9.31915C53.0477 9.5749 53.3144 9.83067 53.584 10.0824C54.1721 10.6294 54.751 11.1861 55.3296 11.7424L55.3301 11.7428L55.3301 11.7429C56.3714 12.7442 57.4116 13.7443 58.5022 14.6851C63.5776 19.0765 68.571 19.053 73.5941 14.6339C75.1841 13.2298 76.72 11.7457 78.2412 10.262C79.8563 8.69437 81.4642 7.13435 83.3698 5.91405C85.6463 4.45441 87.979 4.25844 90.3711 5.71816C92.4095 6.95805 94.1753 8.51602 95.8265 10.2103C97.5611 11.9836 99.3677 13.6811 101.325 15.2191C105.619 18.5957 109.898 18.7024 114.325 15.5054C114.948 15.0575 115.535 14.5584 116.121 14.0606L116.121 14.0605C116.299 13.909 116.478 13.7576 116.656 13.6077C117.828 12.6236 118.908 11.5427 119.987 10.4621L119.987 10.462C121.246 9.20109 122.505 7.94065 123.91 6.83505C127.692 3.86254 130.532 3.81568 134.254 6.88209C135.208 7.66107 136.102 8.51841 136.993 9.37244C137.339 9.70416 137.684 10.0354 138.033 10.3613C138.475 10.7737 138.911 11.1922 139.347 11.6104L139.348 11.6115C140.743 12.9504 142.135 14.2872 143.733 15.4165C148.16 18.5454 152.302 18.493 156.601 15.2181C158.438 13.8178 160.069 12.202 161.702 10.5854L161.702 10.5852C162.421 9.87313 163.14 9.16093 163.877 8.46693C169.506 3.18071 172.583 3.15706 178.261 8.49402C178.92 9.11407 179.571 9.74192 180.223 10.3694C181.702 11.7945 183.178 13.2175 184.735 14.542C189.415 18.5445 194.079 18.6409 198.867 14.8644C200.345 13.7 201.708 12.3685 203.048 11.0451C203.271 10.8275 203.493 10.6092 203.715 10.3909C205.433 8.70181 207.148 7.01598 209.156 5.66459C209.846 5.202 210.537 4.86094 211.231 4.64603L211.234 4.69225C211.825 4.49332 212.403 4.38735 212.979 4.37418C214.177 4.37299 215.386 4.75318 216.61 5.53789C218.063 6.468 219.351 7.58752 220.596 8.76738C221.155 9.29687 221.707 9.83373 222.258 10.3706L222.259 10.3708C223.949 12.0149 225.638 13.6589 227.529 15.0916C229.701 16.7375 231.933 17.5394 234.17 17.4789C236.467 17.4809 238.742 16.5349 241.112 14.6308C242.778 13.2885 244.297 11.7921 245.816 10.2954C246.905 9.22298 247.994 8.15041 249.137 7.13438C251.773 4.78435 253.93 3.87888 256.289 4.43149C257.322 4.6989 258.404 5.25745 259.612 6.11145C260.413 6.6735 261.14 7.34819 261.864 8.02062L261.871 8.02655C262.1 8.23871 262.328 8.45062 262.558 8.65865C263.329 9.35794 264.074 10.0848 264.818 10.8112L264.819 10.8117C266.484 12.4363 268.146 14.0587 270.093 15.3662C270.455 15.608 270.816 15.8202 271.176 16.0177L271.177 16.0104C275.35 18.3723 279.481 17.722 283.631 14.0705C285.221 12.6663 286.757 11.1822 288.279 9.69855C289.894 8.13094 291.502 6.57092 293.407 5.35062C295.684 3.89098 298.016 3.695 300.408 5.15473C302.447 6.39462 304.213 7.95259 305.864 9.64682C307.598 11.4202 309.405 13.1176 311.363 14.6557C315.656 18.0322 319.935 18.139 324.363 14.942C324.986 14.4941 325.573 13.995 326.158 13.4972C326.337 13.3456 326.515 13.1942 326.694 13.0443C327.866 12.0601 328.945 10.9792 330.024 9.89862L330.025 9.8983C331.284 8.63746 332.543 7.37713 333.947 6.27162C334.569 5.78278 335.166 5.37307 335.745 5.04332V1.53625Z" fill="#ACF0FF"/>
<path d="M335.745 1.53625H336.245V0.796786L335.558 1.07223L335.745 1.53625ZM331.307 4.40423L331.636 4.7809L331.637 4.78041L331.307 4.40423ZM327.262 8.14574L327.606 8.50791V8.50791L327.262 8.14574ZM323.511 11.6281L323.18 11.2533L323.18 11.2534L323.511 11.6281ZM313.195 12.0686L312.898 12.4715L312.898 12.4715L313.195 12.0686ZM308.172 7.57733L308.523 7.22094L308.514 7.21256L308.172 7.57733ZM308.171 7.5769L307.817 7.92927L307.823 7.93558L307.829 7.94167L308.171 7.5769ZM308.171 7.57625L308.526 7.22386L308.522 7.21997L308.171 7.57625ZM304.275 3.96301L304.593 3.57684L304.592 3.57629L304.275 3.96301ZM290.568 3.51079L290.273 3.10723L290.273 3.10742L290.568 3.51079ZM285.022 8.50959L284.669 8.15562L284.661 8.16322L285.022 8.50959ZM285.021 8.51036L285.375 8.86432L285.382 8.85673L285.021 8.51036ZM283.277 10.2327L283.624 10.5927L283.624 10.5924L283.277 10.2327ZM269.052 10.342L269.394 9.97714L269.394 9.97693L269.052 10.342ZM267.011 8.37903L267.36 8.02098V8.02098L267.011 8.37903ZM261.445 3.43662L261.149 3.8395L261.149 3.83953L261.445 3.43662ZM255.395 1.118L255.359 1.61671L255.371 1.61758L255.383 1.61786L255.395 1.118ZM247.345 4.48844L247.013 4.11518L247.012 4.11548L247.345 4.48844ZM244.292 7.37926L244.639 7.73964L244.641 7.73731L244.292 7.37926ZM244.292 7.37966L243.945 7.01928L243.943 7.02162L244.292 7.37966ZM240.772 10.6805L241.099 11.0587L241.1 11.0582L240.772 10.6805ZM233.98 14.3312L233.962 14.8309L233.978 14.8314L233.994 14.831L233.98 14.3312ZM230.079 12.9228L229.807 13.3427L229.808 13.3432L230.079 12.9228ZM226.251 9.70207L225.905 10.0624V10.0624L226.251 9.70207ZM224.92 8.45226L224.576 8.81521L224.581 8.82063L224.587 8.82588L224.92 8.45226ZM223.783 7.36477L224.13 7.00445V7.00444L223.783 7.36477ZM218.722 3.05532L218.996 2.6366L218.993 2.63515L218.722 3.05532ZM216.304 1.82495L216.126 2.29222L216.13 2.2937L216.304 1.82495ZM207.18 3.20222L206.9 2.78788L206.899 2.78885L207.18 3.20222ZM204.429 5.42192L204.091 5.05303L204.09 5.05382L204.429 5.42192ZM201.916 7.81079L202.258 8.17561L202.263 8.17029L201.916 7.81079ZM201.915 7.81104L201.573 7.44623L201.568 7.45154L201.915 7.81104ZM197.42 11.9365L197.738 12.3223L197.738 12.322L197.42 11.9365ZM186.416 11.8554L186.732 11.4682L186.732 11.4682L186.416 11.8554ZM182.462 8.20756L182.812 7.85045V7.85045L182.462 8.20756ZM177.913 4.08638L178.219 3.69077L178.218 3.69058L177.913 4.08638ZM164.187 4.04897L163.878 3.65617V3.65618L164.187 4.04897ZM159.223 8.58728L158.872 8.2309L158.866 8.23676L158.86 8.24281L159.223 8.58728ZM159.222 8.58757L159.574 8.9426L159.58 8.93739L159.585 8.93203L159.222 8.58757ZM159.222 8.58825L159.572 8.94463L159.574 8.94328L159.222 8.58825ZM156.276 11.4091L155.94 11.0387L155.94 11.039L156.276 11.4091ZM143.886 11.5133L144.221 11.1416L144.219 11.1404L143.886 11.5133ZM142.021 9.77582L141.675 10.137L141.677 10.1381L142.021 9.77582ZM142.02 9.77495L142.366 9.41376L142.365 9.41268L142.02 9.77495ZM141.556 9.33422L141.9 8.9713L141.9 8.97128L141.556 9.33422ZM140.216 8.04657L140.563 7.6871V7.68709L140.216 8.04657ZM136.903 4.96849L136.577 5.347L136.578 5.34791L136.903 4.96849ZM121.27 4.96766L121.599 5.34434L121.599 5.34384L121.27 4.96766ZM117.225 8.70907L116.88 8.34689L116.874 8.35204L116.869 8.35735L117.225 8.70907ZM117.224 8.7092L117.569 9.07138L117.575 9.06623L117.58 9.06092L117.224 8.7092ZM113.474 12.1915L113.143 11.8168L113.143 11.8169L113.474 12.1915ZM103.157 12.632L102.861 13.0349L102.861 13.035L103.157 12.632ZM98.1342 8.14047L98.4851 7.78416L98.4802 7.77948L98.1342 8.14047ZM98.1341 8.14034L97.7832 8.49665L97.7881 8.50134L98.1341 8.14034ZM94.2381 4.52645L94.5557 4.14028L94.5551 4.13973L94.2381 4.52645ZM80.531 4.07423L80.2358 3.67067L80.2355 3.67086L80.531 4.07423ZM74.9838 9.07389L75.3291 9.43566L75.337 9.42778L74.9838 9.07389ZM74.9837 9.07397L74.6385 8.71225L74.633 8.71765L74.9837 9.07397ZM74.9832 9.07451L74.6324 8.71818L74.63 8.72062L74.9832 9.07451ZM73.2393 10.7962L73.5863 11.1561L73.5866 11.1558L73.2393 10.7962ZM59.0146 10.9054L59.3565 10.5406L59.3562 10.5404L59.0146 10.9054ZM56.9734 8.94254L57.3224 8.58449L57.3153 8.57755L57.3079 8.57089L56.9734 8.94254ZM56.9734 8.94249L56.6244 9.30054L56.6315 9.30748L56.6389 9.31414L56.9734 8.94249ZM51.4078 4.00005L51.1116 4.40293L51.1117 4.40296L51.4078 4.00005ZM39.5558 3.4757L39.291 3.05152L39.2909 3.05161L39.5558 3.4757ZM35.0614 7.19986L35.4059 7.56225L35.4074 7.56082L35.0614 7.19986ZM33.3477 8.87394L33.6995 9.22922L33.3477 8.87394ZM28.3964 13.2908L28.1041 12.8852L28.104 12.8852L28.3964 13.2908ZM20.0412 13.4862L19.7698 13.9062L19.7705 13.9066L20.0412 13.4862ZM16.2139 10.2655L15.8673 10.6258H15.8673L16.2139 10.2655ZM14.8823 9.01571L14.5384 9.37865L14.5441 9.38407L14.55 9.38932L14.8823 9.01571ZM13.746 7.92822L13.3924 8.28184L13.3994 8.28855L13.746 7.92822ZM13.746 7.92822L14.0997 7.5746L14.0927 7.56788L13.746 7.92822ZM8.68491 3.61875L8.9582 3.20004L8.95595 3.19859L8.68491 3.61875ZM1.00003 2.05736L0.878463 1.57236L0.478219 1.67268L0.500773 2.08469L1.00003 2.05736ZM1.19712 5.25569L0.698293 5.28994L0.742676 5.93631L1.35669 5.72954L1.19712 5.25569ZM9.26232 8.02762L9.59166 7.65141L9.59126 7.65106L9.26232 8.02762ZM12.3736 10.9686L12.7272 10.6151L12.724 10.6119L12.3736 10.9686ZM12.3736 10.9686L12.0201 11.3222L12.0233 11.3254L12.3736 10.9686ZM17.5145 15.5445L17.2199 15.9485L17.2209 15.9492L17.5145 15.5445ZM31.0742 15.1942L31.3874 15.5839L31.3879 15.5836L31.0742 15.1942ZM35.7789 10.8589L36.1298 11.2151L36.1416 11.2035L36.1526 11.1911L35.7789 10.8589ZM35.779 10.8589L35.4281 10.5027L35.4163 10.5143L35.4053 10.5267L35.779 10.8589ZM39.0997 7.69782L39.4319 8.07155L39.4324 8.07106L39.0997 7.69782ZM50.4291 7.22264L50.1231 7.61806L50.1248 7.61935L50.4291 7.22264ZM52.7809 9.31905L53.1294 8.96054L53.1269 8.95817L52.7809 9.31905ZM52.781 9.31915L52.4324 9.67765L52.4349 9.68002L52.781 9.31915ZM53.584 10.0824L53.2427 10.4478L53.2434 10.4485L53.584 10.0824ZM55.3296 11.7424L54.9831 12.1028L54.9847 12.1044L55.3296 11.7424ZM55.3301 11.7428L55.6771 11.3829L55.6749 11.3808L55.3301 11.7428ZM55.3301 11.7429L54.9831 12.1028L54.9836 12.1033L55.3301 11.7429ZM58.5022 14.6851L58.8294 14.307L58.8288 14.3065L58.5022 14.6851ZM73.5941 14.6339L73.9244 15.0093L73.9251 15.0087L73.5941 14.6339ZM78.2412 10.262L77.893 9.90319L77.8921 9.90405L78.2412 10.262ZM83.3698 5.91405L83.6394 6.33512L83.6397 6.33496L83.3698 5.91405ZM90.3711 5.71816L90.1106 6.14497L90.1113 6.14535L90.3711 5.71816ZM95.8265 10.2103L95.4684 10.5592L95.469 10.5599L95.8265 10.2103ZM101.325 15.2191L101.634 14.8261L101.634 14.8259L101.325 15.2191ZM114.325 15.5054L114.033 15.0994L114.032 15.1L114.325 15.5054ZM116.121 14.0606L116.445 14.4415L116.451 14.4364L116.457 14.431L116.121 14.0606ZM116.121 14.0605L115.797 13.6795L115.791 13.6847L115.785 13.69L116.121 14.0605ZM116.656 13.6077L116.977 13.9911L116.978 13.9906L116.656 13.6077ZM119.987 10.4621L120.341 10.8154L120.348 10.8085L120.354 10.8012L119.987 10.4621ZM119.987 10.462L119.633 10.1087L119.626 10.1157L119.62 10.1229L119.987 10.462ZM123.91 6.83505L123.601 6.44194L123.601 6.44217L123.91 6.83505ZM134.254 6.88209L133.937 7.26802L133.938 7.2693L134.254 6.88209ZM136.993 9.37244L137.339 9.01152L137.339 9.01152L136.993 9.37244ZM138.033 10.3613L137.691 10.7264L137.692 10.7271L138.033 10.3613ZM139.347 11.6104L139.694 11.2508L139.693 11.2497L139.347 11.6104ZM139.348 11.6115L139 11.9711L139.002 11.9722L139.348 11.6115ZM143.733 15.4165L143.444 15.8248L143.444 15.8249L143.733 15.4165ZM156.601 15.2181L156.904 15.6158L156.904 15.6157L156.601 15.2181ZM161.702 10.5854L162.054 10.9406L162.062 10.9319L162.071 10.9228L161.702 10.5854ZM161.702 10.5852L161.35 10.2299L161.341 10.2386L161.333 10.2478L161.702 10.5852ZM163.877 8.46693L163.535 8.10247L163.534 8.10295L163.877 8.46693ZM178.261 8.49402L178.603 8.12987L178.603 8.1297L178.261 8.49402ZM180.223 10.3694L180.57 10.0093V10.0093L180.223 10.3694ZM184.735 14.542L185.06 14.162L185.059 14.1613L184.735 14.542ZM198.867 14.8644L198.558 14.4716L198.558 14.4718L198.867 14.8644ZM203.048 11.0451L202.699 10.6875L202.697 10.6893L203.048 11.0451ZM203.715 10.3909L204.066 10.7475V10.7475L203.715 10.3909ZM209.156 5.66459L208.877 5.24928L208.876 5.24979L209.156 5.66459ZM211.231 4.64603L211.73 4.61194L211.687 3.98152L211.083 4.16839L211.231 4.64603ZM211.234 4.69225L210.736 4.72634L210.78 5.37294L211.394 5.16611L211.234 4.69225ZM212.979 4.37418L212.979 3.87406L212.968 3.87431L212.979 4.37418ZM216.61 5.53789L216.34 5.95885L216.34 5.959L216.61 5.53789ZM220.596 8.76738L220.94 8.40444L220.94 8.40444L220.596 8.76738ZM222.258 10.3706L221.91 10.729L221.916 10.7354L222.258 10.3706ZM222.259 10.3708L222.607 10.0124L222.601 10.006L222.259 10.3708ZM227.529 15.0916L227.227 15.4901L227.227 15.4901L227.529 15.0916ZM234.17 17.4789L234.17 16.9787L234.156 16.9791L234.17 17.4789ZM241.112 14.6308L241.425 15.0205L241.425 15.0201L241.112 14.6308ZM245.816 10.2954L246.167 10.6516V10.6516L245.816 10.2954ZM249.137 7.13438L249.469 7.50811L249.47 7.50762L249.137 7.13438ZM256.289 4.43149L256.415 3.94733L256.403 3.94467L256.289 4.43149ZM259.612 6.11145L259.323 6.51976L259.324 6.52071L259.612 6.11145ZM261.864 8.02062L261.524 8.38715L261.525 8.38742L261.864 8.02062ZM261.871 8.02655L262.211 7.65999L262.211 7.65975L261.871 8.02655ZM262.558 8.65865L262.894 8.28832L262.893 8.2875L262.558 8.65865ZM264.818 10.8112L265.182 10.4676L265.175 10.4603L265.168 10.4533L264.818 10.8112ZM264.819 10.8117L264.456 11.1553L264.463 11.1626L264.47 11.1696L264.819 10.8117ZM270.093 15.3662L269.815 15.7813L269.815 15.7818L270.093 15.3662ZM271.176 16.0177L270.936 16.4562L271.561 16.7984L271.67 16.0947L271.176 16.0177ZM271.177 16.0104L271.424 15.5753L270.795 15.2193L270.683 15.9335L271.177 16.0104ZM283.631 14.0705L283.962 14.4459L283.962 14.4453L283.631 14.0705ZM288.279 9.69855L287.93 9.33976L287.929 9.34061L288.279 9.69855ZM293.407 5.35062L293.677 5.77168L293.677 5.77153L293.407 5.35062ZM300.408 5.15473L300.148 5.58153L300.149 5.58191L300.408 5.15473ZM305.864 9.64682L305.506 9.99579L305.506 9.99645L305.864 9.64682ZM311.363 14.6557L311.672 14.2626L311.672 14.2625L311.363 14.6557ZM324.363 14.942L324.071 14.5359L324.07 14.5366L324.363 14.942ZM326.158 13.4972L325.835 13.1162V13.1162L326.158 13.4972ZM326.694 13.0443L327.015 13.4277L327.015 13.4272L326.694 13.0443ZM330.024 9.89862L330.378 10.2519L330.39 10.24L330.401 10.2274L330.024 9.89862ZM330.025 9.8983L329.671 9.54498L329.659 9.55687L329.648 9.56953L330.025 9.8983ZM333.947 6.27162L333.638 5.8785L333.638 5.87873L333.947 6.27162ZM335.745 5.04332L335.992 5.47782L336.245 5.33399V5.04332H335.745ZM335.558 1.07223C334.045 1.67984 332.528 2.67078 330.978 4.02804L331.637 4.78041C333.128 3.47446 334.55 2.55461 335.931 2.00027L335.558 1.07223ZM330.979 4.02755C329.586 5.24288 328.247 6.5177 326.917 7.78357L327.606 8.50791C328.939 7.23955 330.263 5.97971 331.636 4.7809L330.979 4.02755ZM326.917 7.78357C325.679 8.96176 324.449 10.1322 323.18 11.2533L323.842 12.0028C325.128 10.8673 326.371 9.68396 327.606 8.50791L326.917 7.78357ZM323.18 11.2534C321.403 12.8239 319.895 13.5596 318.417 13.616C316.937 13.6725 315.378 13.0525 313.491 11.6656L312.898 12.4715C314.868 13.9181 316.65 14.6842 318.455 14.6153C320.262 14.5463 321.984 13.645 323.842 12.0027L323.18 11.2534ZM313.491 11.6657C311.705 10.3534 310.129 8.80269 308.523 7.22105L307.821 7.9336C309.419 9.50687 311.045 11.1095 312.898 12.4715L313.491 11.6657ZM308.514 7.21256L308.513 7.21213L307.829 7.94167L307.83 7.94209L308.514 7.21256ZM308.526 7.22452L308.526 7.22388L307.816 7.92862L307.817 7.92927L308.526 7.22452ZM308.522 7.21997C307.262 5.97967 305.983 4.72038 304.593 3.57684L303.958 4.34918C305.308 5.45959 306.555 6.687 307.82 7.93253L308.522 7.21997ZM304.592 3.57629C302.23 1.64061 299.899 0.588419 297.504 0.505335C295.108 0.422201 292.728 1.312 290.273 3.10723L290.863 3.91436C293.198 2.20686 295.363 1.43164 297.47 1.50473C299.578 1.57788 301.705 2.50316 303.959 4.34973L304.592 3.57629ZM290.273 3.10742C288.216 4.61413 286.427 6.40045 284.669 8.1557L285.375 8.86348C287.143 7.09936 288.878 5.36835 290.864 3.91416L290.273 3.10742ZM284.661 8.16322L284.661 8.16398L285.382 8.85673L285.383 8.85597L284.661 8.16322ZM284.668 8.15647C284.089 8.73424 283.514 9.30873 282.929 9.87311L283.624 10.5924C284.215 10.0213 284.797 9.44105 285.374 8.86424L284.668 8.15647ZM282.93 9.87282C280.186 12.5183 278.141 13.7176 276.176 13.7295C274.21 13.7415 272.157 12.5669 269.394 9.97714L268.71 10.7068C271.495 13.3169 273.8 14.744 276.182 14.7295C278.564 14.715 280.858 13.2598 283.624 10.5927L282.93 9.87282ZM269.394 9.97693C268.709 9.33634 268.037 8.68085 267.36 8.02098L266.662 8.73707C267.337 9.39577 268.017 10.0583 268.71 10.707L269.394 9.97693ZM267.36 8.02098C265.588 6.29376 263.785 4.53599 261.741 3.03372L261.149 3.83953C263.128 5.29381 264.882 7.00188 266.662 8.73708L267.36 8.02098ZM261.741 3.03375C259.65 1.49629 257.557 0.668462 255.407 0.618135L255.383 1.61786C257.278 1.6622 259.176 2.38946 261.149 3.8395L261.741 3.03375ZM255.431 0.61929C252.552 0.411932 249.824 1.60927 247.013 4.11518L247.678 4.86171C250.37 2.46223 252.843 1.43547 255.359 1.61671L255.431 0.61929ZM247.012 4.11548C245.957 5.05753 244.945 6.04412 243.943 7.02122L244.641 7.73731C245.646 6.75766 246.642 5.78646 247.678 4.8614L247.012 4.11548ZM243.945 7.0189L243.945 7.01929L244.638 7.74003L244.639 7.73963L243.945 7.0189ZM243.943 7.02162C242.787 8.1475 241.645 9.26076 240.444 10.3029L241.1 11.0582C242.326 9.99389 243.489 8.86018 244.641 7.7377L243.943 7.02162ZM240.445 10.3024C237.703 12.6738 235.77 13.7788 233.965 13.8314L233.994 14.831C236.181 14.7672 238.35 13.436 241.099 11.0587L240.445 10.3024ZM233.997 13.8315C232.865 13.7908 231.684 13.3617 230.349 12.5024L229.808 13.3432C231.237 14.2632 232.592 14.7816 233.962 14.8309L233.997 13.8315ZM230.35 12.5028C228.937 11.5896 227.731 10.4315 226.598 9.34175L225.905 10.0624C227.028 11.1428 228.3 12.3689 229.807 13.3427L230.35 12.5028ZM226.598 9.34175C226.14 8.90081 225.691 8.46908 225.252 8.07865L224.587 8.82588C225.009 9.2009 225.443 9.61845 225.905 10.0624L226.598 9.34175ZM225.264 8.08932C224.876 7.72166 224.5 7.36 224.13 7.00445L223.437 7.7251C223.806 8.08028 224.185 8.44453 224.576 8.81521L225.264 8.08932ZM224.13 7.00444C222.425 5.36461 220.85 3.84728 218.996 2.63661L218.449 3.47402C220.211 4.6243 221.719 6.07284 223.437 7.72511L224.13 7.00444ZM218.993 2.63515C218.17 2.10399 217.332 1.67293 216.478 1.3562L216.13 2.2937C216.907 2.58184 217.68 2.97809 218.451 3.47548L218.993 2.63515ZM216.482 1.3577C213.277 0.136686 210.067 0.649135 206.9 2.78789L207.46 3.61656C210.402 1.62919 213.273 1.20541 216.126 2.2922L216.482 1.3577ZM206.899 2.78885C205.899 3.46965 204.967 4.25118 204.091 5.05303L204.766 5.79082C205.623 5.00708 206.515 4.25979 207.462 3.61559L206.899 2.78885ZM204.09 5.05382C203.235 5.83983 202.399 6.64807 201.568 7.4513L202.263 8.17029C203.096 7.3656 203.923 6.56613 204.767 5.79002L204.09 5.05382ZM201.574 7.44603L201.573 7.44627L202.257 8.17581L202.258 8.17556L201.574 7.44603ZM201.568 7.45154C200.1 8.87005 198.649 10.2728 197.101 11.551L197.738 12.322C199.321 11.0147 200.8 9.58442 202.263 8.17054L201.568 7.45154ZM197.102 11.5507C195.024 13.2638 193.439 14.0075 191.92 13.9848C190.396 13.9619 188.81 13.1661 186.732 11.4682L186.099 12.2426C188.22 13.9757 190.03 14.9566 191.905 14.9847C193.786 15.0128 195.604 14.0816 197.738 12.3223L197.102 11.5507ZM186.732 11.4682C185.36 10.3473 184.095 9.10822 182.812 7.85045L182.112 8.56467C183.39 9.81721 184.687 11.0884 186.1 12.2426L186.732 11.4682ZM182.812 7.85045C181.354 6.42189 179.872 4.96899 178.219 3.69077L177.607 4.48198C179.207 5.71837 180.647 7.12935 182.112 8.56467L182.812 7.85045ZM178.218 3.69058C175.821 1.84006 173.436 0.866642 171.024 0.854984C168.61 0.843318 166.241 1.79517 163.878 3.65617L164.497 4.44177C166.734 2.67934 168.89 1.84468 171.019 1.85497C173.15 1.86527 175.327 2.72227 177.607 4.48217L178.218 3.69058ZM163.878 3.65618C162.085 5.06805 160.467 6.66144 158.872 8.2309L159.573 8.94365C161.175 7.36778 162.755 5.81384 164.497 4.44177L163.878 3.65618ZM158.86 8.24281L158.86 8.2431L159.585 8.93203L159.585 8.93175L158.86 8.24281ZM158.87 8.23254L158.87 8.23322L159.574 8.94328L159.574 8.9426L158.87 8.23254ZM158.871 8.23187C157.9 9.18733 156.938 10.134 155.94 11.0387L156.612 11.7794C157.627 10.8588 158.604 9.89769 159.572 8.94462L158.871 8.23187ZM155.94 11.039C153.689 13.0851 151.844 14.0346 150.071 14.0522C148.3 14.0697 146.462 13.1591 144.221 11.1416L143.552 11.8849C145.86 13.9622 147.935 15.0734 150.081 15.0521C152.224 15.0308 154.3 13.8808 156.613 11.7791L155.94 11.039ZM144.219 11.1404C143.59 10.5781 142.983 10.0004 142.366 9.41355L141.677 10.1381C142.292 10.7232 142.91 11.3117 143.553 11.8862L144.219 11.1404ZM142.367 9.41464L142.366 9.41376L141.674 10.1361L141.675 10.137L142.367 9.41464ZM142.365 9.41268C142.211 9.26594 142.056 9.11864 141.9 8.9713L141.212 9.69715C141.367 9.84372 141.521 9.99036 141.676 10.1372L142.365 9.41268ZM141.9 8.97128C141.453 8.54758 141.009 8.11849 140.563 7.6871L139.868 8.40603C140.314 8.83684 140.761 9.26943 141.212 9.69717L141.9 8.97128ZM140.563 7.68709C139.481 6.64102 138.385 5.58126 137.229 4.58907L136.578 5.34791C137.708 6.31758 138.782 7.35649 139.868 8.40604L140.563 7.68709ZM137.23 4.58998C134.45 2.1907 131.784 0.926475 129.07 0.922735C126.354 0.918993 123.698 2.17694 120.941 4.59148L121.599 5.34384C124.256 3.01804 126.686 1.91945 129.068 1.92273C131.452 1.92602 133.895 3.03238 136.577 5.34699L137.23 4.58998ZM120.941 4.59098C119.549 5.80628 118.21 7.08106 116.88 8.34689L117.569 9.07124C118.902 7.80291 120.225 6.54311 121.599 5.34434L120.941 4.59098ZM116.869 8.35735L116.869 8.35749L117.58 9.06092L117.58 9.06078L116.869 8.35735ZM116.88 8.34703C115.642 9.52522 114.412 10.6957 113.143 11.8168L113.805 12.5662C115.09 11.4308 116.334 10.2474 117.569 9.07138L116.88 8.34703ZM113.143 11.8169C111.366 13.3873 109.858 14.123 108.38 14.1794C106.9 14.2359 105.341 13.616 103.453 12.2291L102.861 13.035C104.83 14.4815 106.612 15.2476 108.418 15.1787C110.225 15.1097 111.947 14.2084 113.805 12.5662L113.143 11.8169ZM103.453 12.2291C101.668 10.9168 100.091 9.36593 98.485 7.7842L97.7834 8.49675C99.3813 10.0701 101.008 11.6728 102.861 13.0349L103.453 12.2291ZM98.4802 7.77948L98.48 7.77935L97.7881 8.50134L97.7883 8.50147L98.4802 7.77948ZM98.4849 7.78406C97.225 6.54355 95.9464 5.28402 94.5557 4.14028L93.9205 4.91262C95.2709 6.02322 96.5181 7.25087 97.7833 8.49662L98.4849 7.78406ZM94.5551 4.13973C92.1932 2.20405 89.8616 1.15186 87.4671 1.06877C85.0711 0.985642 82.6902 1.87544 80.2358 3.67067L80.8262 4.4778C83.1606 2.7703 85.3258 1.99508 87.4324 2.06817C89.5405 2.14132 91.668 3.0666 93.9212 4.91317L94.5551 4.13973ZM80.2355 3.67086C78.1781 5.17782 76.3895 6.96447 74.6306 8.72L75.337 9.42778C77.1048 7.66336 78.8408 5.93203 80.8264 4.47761L80.2355 3.67086ZM74.6386 8.71221L74.6385 8.71229L75.329 9.43565L75.3291 9.43557L74.6386 8.71221ZM74.633 8.71765L74.6324 8.71819L75.334 9.43084L75.3345 9.4303L74.633 8.71765ZM74.63 8.72062C74.0513 9.29816 73.476 9.8724 72.8919 10.4365L73.5866 11.1558C74.1776 10.585 74.7588 10.005 75.3364 9.4284L74.63 8.72062ZM72.8922 10.4363C70.1487 13.0817 68.1037 14.281 66.1385 14.293C64.1729 14.3049 62.1198 13.1303 59.3565 10.5406L58.6726 11.2702C61.4577 13.8804 63.7622 15.3074 66.1445 15.293C68.5271 15.2785 70.8203 13.8232 73.5863 11.1561L72.8922 10.4363ZM59.3562 10.5404C58.6719 9.8998 57.9994 9.24434 57.3224 8.58449L56.6244 9.30059C57.3002 9.95926 57.9799 10.6218 58.6729 11.2704L59.3562 10.5404ZM57.3079 8.57089L57.3079 8.57084L56.6389 9.31414L56.639 9.31419L57.3079 8.57089ZM57.3224 8.58444C55.5504 6.85722 53.7481 5.09943 51.7038 3.59715L51.1117 4.40296C53.0906 5.85726 54.8442 7.56533 56.6244 9.30054L57.3224 8.58444ZM51.7039 3.59718C49.6803 2.10976 47.656 1.28625 45.5776 1.18889C43.4979 1.09146 41.4187 1.72367 39.291 3.05152L39.8205 3.89987C41.8186 2.65288 43.6991 2.10198 45.5308 2.18779C47.3638 2.27366 49.2027 2.99975 51.1116 4.40293L51.7039 3.59718ZM39.2909 3.05161C37.5824 4.1186 36.1267 5.48622 34.7155 6.8389L35.4074 7.56082C36.8235 6.20346 38.2111 4.90497 39.8206 3.89979L39.2909 3.05161ZM34.7169 6.83748C34.1347 7.391 33.5634 7.95677 32.9959 8.51865L33.6995 9.22922C34.2682 8.66614 34.8323 8.10757 35.4059 7.56225L34.7169 6.83748ZM32.9959 8.51865C31.418 10.0811 29.8695 11.613 28.1041 12.8852L28.6887 13.6965C30.5281 12.371 32.131 10.7824 33.6995 9.22922L32.9959 8.51865ZM28.104 12.8852C26.7014 13.8964 25.4568 14.3727 24.2383 14.3972C23.0187 14.4216 21.755 13.995 20.3119 13.0658L19.7705 13.9066C21.3165 14.902 22.7752 15.4267 24.2584 15.397C25.7426 15.3671 27.181 14.7834 28.6888 13.6964L28.104 12.8852ZM20.3125 13.0662C18.8992 12.153 17.6933 10.9949 16.5606 9.90518L15.8673 10.6258C16.9903 11.7062 18.2628 12.9324 19.7698 13.9062L20.3125 13.0662ZM16.5606 9.90518C16.1023 9.46426 15.6536 9.03252 15.2146 8.64209L14.55 9.38932C14.9717 9.76434 15.4058 10.1819 15.8673 10.6258L16.5606 9.90518ZM15.2262 8.65276C14.8382 8.28511 14.4623 7.92344 14.0927 7.56789L13.3994 8.28855C13.7686 8.64372 14.1472 9.00798 14.5384 9.37865L15.2262 8.65276ZM14.0996 7.57467L14.0996 7.57466L13.3925 8.28177L13.3925 8.28177L14.0996 7.57467ZM14.0927 7.56788C12.3881 5.92805 10.8131 4.41072 8.95819 3.20005L8.41162 4.03746C10.174 5.18774 11.6819 6.63628 13.3994 8.28855L14.0927 7.56788ZM8.95595 3.19859C6.39253 1.54496 3.68947 0.867796 0.878463 1.57236L1.12159 2.54235C3.60193 1.92067 6.0229 2.49653 8.41386 4.03891L8.95595 3.19859ZM0.500773 2.08469C0.559131 3.15076 0.625106 4.22411 0.698293 5.28994L1.69594 5.22143C1.62308 4.16037 1.55739 3.09164 1.49928 2.03003L0.500773 2.08469ZM1.35669 5.72954C2.55089 5.32739 3.67352 5.33863 4.87063 5.764C6.08599 6.19585 7.3959 7.06114 8.93338 8.40418L9.59126 7.65106C8.01465 6.27384 6.59342 5.3149 5.20544 4.82171C3.79921 4.32204 2.44628 4.30744 1.03755 4.78183L1.35669 5.72954ZM8.93298 8.40383C9.99401 9.33267 11.0024 10.3228 12.0233 11.3254L12.724 10.6119C11.7065 9.61266 10.6778 8.60227 9.59166 7.65141L8.93298 8.40383ZM12.0201 11.3222L12.0201 11.3222L12.7272 10.6151L12.7272 10.6151L12.0201 11.3222ZM12.0233 11.3254C13.6541 12.927 15.3165 14.5607 17.2199 15.9485L17.809 15.1404C15.9746 13.803 14.3633 12.2218 12.724 10.6119L12.0233 11.3254ZM17.2209 15.9492C19.6445 17.7069 21.9922 18.5984 24.3592 18.5396C26.7262 18.4808 29.0359 17.4737 31.3874 15.5839L30.761 14.8044C28.5211 16.6045 26.4166 17.4882 24.3344 17.5399C22.2523 17.5916 20.1157 16.8134 17.808 15.1397L17.2209 15.9492ZM31.3879 15.5836C33.0769 14.2231 34.6135 12.7089 36.1298 11.2151L35.4281 10.5027C33.9058 12.0023 32.4042 13.4809 30.7606 14.8048L31.3879 15.5836ZM36.1526 11.1911L36.1527 11.1911L35.4053 10.5267L35.4052 10.5268L36.1526 11.1911ZM36.1299 11.2151C37.2201 10.1411 38.2999 9.07763 39.4319 8.07155L38.7676 7.32409C37.6132 8.35006 36.5153 9.43172 35.4281 10.5027L36.1299 11.2151ZM39.4324 8.07106C41.4428 6.27896 43.0887 5.4164 44.7001 5.34292C46.3082 5.26959 48.0027 5.97707 50.1231 7.61805L50.7351 6.82722C48.541 5.12918 46.6119 4.25471 44.6545 4.34396C42.7004 4.43306 40.8389 5.47761 38.767 7.32459L39.4324 8.07106ZM50.1248 7.61935C50.9274 8.23506 51.6694 8.94594 52.4348 9.67993L53.1269 8.95817C52.3686 8.23091 51.5872 7.48085 50.7334 6.82592L50.1248 7.61935ZM52.4323 9.67755L52.4324 9.67765L53.1295 8.96065L53.1294 8.96055L52.4323 9.67755ZM52.4349 9.68002C52.7012 9.93539 52.9703 10.1935 53.2427 10.4478L53.9252 9.71693C53.6585 9.46787 53.3941 9.21441 53.1271 8.95827L52.4349 9.68002ZM53.2434 10.4485C53.828 10.9922 54.404 11.546 54.9831 12.1028L55.6762 11.382C55.0981 10.8261 54.5162 10.2666 53.9245 9.71626L53.2434 10.4485ZM54.9847 12.1044L54.9852 12.1048L55.6749 11.3808L55.6745 11.3804L54.9847 12.1044ZM54.983 12.1027L54.9831 12.1028L55.6772 11.383L55.6771 11.3829L54.983 12.1027ZM54.9836 12.1033C56.0232 13.103 57.0731 14.1126 58.1756 15.0637L58.8288 14.3065C57.7502 13.376 56.7196 12.3853 55.6767 11.3825L54.9836 12.1033ZM58.1751 15.0632C60.7728 17.3109 63.4024 18.4733 66.0696 18.4634C68.737 18.4535 71.3531 17.2715 73.9244 15.0093L73.2639 14.2585C70.8121 16.4155 68.4199 17.4547 66.0659 17.4634C63.7118 17.4722 61.307 16.4507 58.8294 14.307L58.1751 15.0632ZM73.9251 15.0087C75.5252 13.5955 77.069 12.1037 78.5903 10.6199L77.8921 9.90405C76.371 11.3876 74.8429 12.864 73.2632 14.2592L73.9251 15.0087ZM78.5894 10.6208C80.2104 9.04743 81.7833 7.52378 83.6394 6.33512L83.1002 5.49299C81.1452 6.74493 79.5022 8.34131 77.893 9.90319L78.5894 10.6208ZM83.6397 6.33496C84.7214 5.64142 85.7889 5.26537 86.8481 5.22091C87.9037 5.17659 88.9881 5.45996 90.1106 6.14497L90.6315 5.29136C89.362 4.51664 88.084 4.16814 86.8061 4.22179C85.5318 4.27529 84.2947 4.72705 83.0999 5.49314L83.6397 6.33496ZM90.1113 6.14535C92.1008 7.35553 93.8337 8.88187 95.4684 10.5592L96.1845 9.86129C94.517 8.15017 92.7182 6.56058 90.6309 5.29098L90.1113 6.14535ZM95.469 10.5599C97.2131 12.3429 99.0362 14.0565 101.016 15.6123L101.634 14.8259C99.6992 13.3057 97.9092 11.6244 96.1839 9.86063L95.469 10.5599ZM101.016 15.6121C103.225 17.3488 105.469 18.275 107.764 18.3272C110.059 18.3794 112.34 17.5559 114.618 15.9108L114.032 15.1C111.883 16.6519 109.811 17.3735 107.786 17.3275C105.761 17.2814 103.72 16.466 101.634 14.8261L101.016 15.6121ZM114.617 15.9114C115.26 15.4497 115.862 14.9371 116.445 14.4415L115.797 13.6796C115.209 14.1797 114.637 14.6654 114.033 15.0994L114.617 15.9114ZM116.457 14.431L116.457 14.431L115.785 13.69L115.785 13.6901L116.457 14.431ZM116.445 14.4414C116.624 14.2897 116.8 14.1395 116.977 13.9911L116.335 13.2244C116.155 13.3756 115.975 13.5282 115.797 13.6795L116.445 14.4414ZM116.978 13.9906C118.17 12.9901 119.264 11.8934 120.341 10.8154L119.633 10.1088C118.552 11.1919 117.487 12.2571 116.335 13.2248L116.978 13.9906ZM120.354 10.8012L120.355 10.8012L119.62 10.1229L119.62 10.123L120.354 10.8012ZM120.341 10.8153C121.604 9.55091 122.842 8.31202 124.219 7.22794L123.601 6.44217C122.169 7.56928 120.889 8.85126 119.633 10.1087L120.341 10.8153ZM124.219 7.22817C126.071 5.7727 127.618 5.09395 129.104 5.09397C130.588 5.09399 132.118 5.77032 133.937 7.26802L134.572 6.49615C132.668 4.92744 130.917 4.094 129.104 4.09397C127.295 4.09395 125.531 4.9249 123.601 6.44194L124.219 7.22817ZM133.938 7.2693C134.874 8.03362 135.754 8.87698 136.647 9.73336L137.339 9.01152C136.451 8.15984 135.542 7.28852 134.571 6.49487L133.938 7.2693ZM136.647 9.73335C136.993 10.0647 137.34 10.398 137.691 10.7264L138.374 9.99628C138.029 9.67273 137.685 9.34359 137.339 9.01152L136.647 9.73335ZM137.692 10.7271C138.131 11.1366 138.564 11.5525 139 11.9711L139.693 11.2497C139.258 10.8319 138.819 10.4109 138.374 9.99556L137.692 10.7271ZM138.999 11.97L139 11.9711L139.695 11.2519L139.694 11.2508L138.999 11.97ZM139.002 11.9722C140.392 13.307 141.811 14.6703 143.444 15.8248L144.021 15.0083C142.459 13.904 141.093 12.5939 139.694 11.2508L139.002 11.9722ZM143.444 15.8249C145.719 17.4324 147.962 18.252 150.222 18.2187C152.482 18.1854 154.693 17.2996 156.904 15.6158L156.298 14.8203C154.209 16.4115 152.2 17.1894 150.207 17.2188C148.214 17.2482 146.174 16.5296 144.021 15.0082L143.444 15.8249ZM156.904 15.6157C158.771 14.1926 160.425 12.5535 162.054 10.9406L161.35 10.2301C159.714 11.8505 158.105 13.443 156.298 14.8204L156.904 15.6157ZM162.071 10.9228L162.071 10.9226L161.333 10.2478L161.333 10.248L162.071 10.9228ZM162.054 10.9404C162.774 10.2277 163.488 9.5199 164.22 8.83092L163.534 8.10295C162.792 8.80196 162.068 9.5186 161.35 10.2299L162.054 10.9404ZM164.219 8.8314C167.026 6.19569 169.077 4.99639 171.05 4.99678C173.024 4.99717 175.088 6.19754 177.918 8.85834L178.603 8.1297C175.756 5.45354 173.442 3.99725 171.051 3.99678C168.659 3.99631 166.357 5.45195 163.535 8.10247L164.219 8.8314ZM177.918 8.85817C178.575 9.47585 179.224 10.1016 179.876 10.7294L180.57 10.0093C179.919 9.3822 179.265 8.75229 178.603 8.12987L177.918 8.85817ZM179.876 10.7294C181.353 12.1527 182.841 13.5865 184.411 14.9228L185.059 14.1613C183.516 12.8484 182.05 11.4362 180.57 10.0093L179.876 10.7294ZM184.41 14.922C186.81 16.9745 189.253 18.0646 191.749 18.1202C194.246 18.1758 196.72 17.195 199.177 15.257L198.558 14.4718C196.226 16.3103 193.973 17.1695 191.771 17.1204C189.569 17.0714 187.34 16.1119 185.06 14.162L184.41 14.922ZM199.177 15.2571C200.68 14.0731 202.061 12.7227 203.4 11.4009L202.697 10.6893C201.355 12.0144 200.011 13.3269 198.558 14.4716L199.177 15.2571ZM203.398 11.4027C203.621 11.1844 203.844 10.9656 204.066 10.7475L203.365 10.0344C203.143 10.2527 202.921 10.4705 202.699 10.6875L203.398 11.4027ZM204.066 10.7475C205.789 9.05295 207.472 7.40067 209.435 6.0794L208.876 5.24979C206.824 6.63128 205.077 8.35067 203.365 10.0344L204.066 10.7475ZM209.434 6.07991C210.09 5.63991 210.738 5.32208 211.379 5.12366L211.083 4.16839C210.336 4.3998 209.601 4.76409 208.877 5.24928L209.434 6.07991ZM210.732 4.68011L210.736 4.72634L211.733 4.65817L211.73 4.61194L210.732 4.68011ZM211.394 5.16611C211.941 4.98178 212.469 4.88596 212.991 4.87405L212.968 3.87431C212.337 3.88873 211.709 4.00487 211.075 4.2184L211.394 5.16611ZM212.98 4.87418C214.066 4.8731 215.182 5.21633 216.34 5.95885L216.88 5.11692C215.589 4.29003 214.289 3.87287 212.979 3.87418L212.98 4.87418ZM216.34 5.959C217.754 6.8641 219.016 7.95875 220.252 9.13032L220.94 8.40444C219.686 7.21628 218.372 6.07189 216.88 5.11678L216.34 5.959ZM220.252 9.13032C220.808 9.65717 221.358 10.1917 221.91 10.729L222.607 10.0122C222.056 9.47574 221.501 8.93658 220.94 8.40444L220.252 9.13032ZM221.916 10.7354L221.917 10.7356L222.601 10.006L222.6 10.0058L221.916 10.7354ZM221.91 10.7292C223.596 12.3697 225.308 14.0357 227.227 15.4901L227.831 14.6931C225.969 13.2821 224.301 11.66 222.607 10.0124L221.91 10.7292ZM227.227 15.4901C229.469 17.1893 231.81 18.0429 234.183 17.9787L234.156 16.9791C232.056 17.0359 229.932 16.2857 227.831 14.6931L227.227 15.4901ZM234.169 17.9789C236.615 17.981 238.997 16.9712 241.425 15.0205L240.798 14.241C238.487 16.0987 236.319 16.9808 234.17 16.9789L234.169 17.9789ZM241.425 15.0201C243.114 13.6597 244.651 12.1454 246.167 10.6516L245.465 9.93925C243.943 11.4388 242.442 12.9174 240.798 14.2414L241.425 15.0201ZM246.167 10.6516C247.257 9.57769 248.337 8.51419 249.469 7.50811L248.805 6.76066C247.651 7.78662 246.553 8.86828 245.465 9.93925L246.167 10.6516ZM249.47 7.50762C252.06 5.19867 254.052 4.42108 256.175 4.91832L256.403 3.94467C253.808 3.33668 251.487 4.37004 248.804 6.76115L249.47 7.50762ZM256.164 4.91552C257.117 5.16227 258.143 5.68526 259.323 6.51976L259.9 5.70315C258.664 4.82964 257.527 4.23553 256.415 3.94746L256.164 4.91552ZM259.324 6.52071C260.093 7.05987 260.795 7.71059 261.524 8.38715L262.204 7.65408C261.484 6.98579 260.732 6.28713 259.899 5.7022L259.324 6.52071ZM261.525 8.38742L261.531 8.39336L262.211 7.65975L262.204 7.65381L261.525 8.38742ZM261.531 8.39311C261.759 8.60486 261.99 8.8191 262.223 9.02981L262.893 8.2875C262.666 8.08213 262.44 7.87257 262.211 7.66L261.531 8.39311ZM262.222 9.02899C262.985 9.72113 263.724 10.4415 264.469 11.169L265.168 10.4533C264.424 9.72797 263.673 8.99475 262.894 8.28832L262.222 9.02899ZM264.455 11.1547L264.456 11.1553L265.182 10.4682L265.182 10.4676L264.455 11.1547ZM264.47 11.1696C266.129 12.7889 267.823 14.4442 269.815 15.7813L270.372 14.9511C268.469 13.6732 266.838 12.0837 265.168 10.4539L264.47 11.1696ZM269.815 15.7818C270.192 16.0339 270.566 16.2538 270.936 16.4562L271.416 15.5792C271.065 15.3867 270.717 15.1821 270.371 14.9505L269.815 15.7818ZM271.67 16.0947L271.671 16.0874L270.683 15.9335L270.682 15.9407L271.67 16.0947ZM270.931 16.4456C273.101 17.6737 275.29 18.1331 277.49 17.7895C279.683 17.447 281.838 16.3147 283.962 14.4459L283.301 13.6951C281.275 15.4779 279.289 16.4964 277.336 16.8015C275.39 17.1054 273.427 16.709 271.424 15.5753L270.931 16.4456ZM283.962 14.4453C285.563 13.0321 287.106 11.5403 288.628 10.0565L287.929 9.34061C286.408 10.8242 284.88 12.3006 283.3 13.6957L283.962 14.4453ZM288.627 10.0573C290.248 8.484 291.821 6.96034 293.677 5.77168L293.137 4.92956C291.182 6.18149 289.54 7.77787 287.93 9.33976L288.627 10.0573ZM293.677 5.77153C294.759 5.07798 295.826 4.70194 296.885 4.65747C297.941 4.61315 299.025 4.89652 300.148 5.58153L300.669 4.72792C299.399 3.9532 298.121 3.6047 296.843 3.65835C295.569 3.71185 294.332 4.16361 293.137 4.92971L293.677 5.77153ZM300.149 5.58191C302.138 6.79209 303.871 8.31843 305.506 9.99579L306.222 9.29786C304.554 7.58674 302.756 5.99714 300.668 4.72754L300.149 5.58191ZM305.506 9.99645C307.25 11.7794 309.074 13.4931 311.054 15.0488L311.672 14.2625C309.737 12.7422 307.947 11.061 306.221 9.29719L305.506 9.99645ZM311.054 15.0487C313.262 16.7854 315.507 17.7116 317.801 17.7638C320.096 17.816 322.377 16.9925 324.655 15.3473L324.07 14.5366C321.921 16.0885 319.849 16.8101 317.824 16.7641C315.799 16.718 313.757 15.9025 311.672 14.2626L311.054 15.0487ZM324.654 15.348C325.297 14.8863 325.899 14.3738 326.482 13.8781L325.835 13.1162C325.246 13.6163 324.675 14.102 324.071 14.5359L324.654 15.348ZM326.482 13.8781C326.661 13.7264 326.837 13.5761 327.015 13.4277L326.373 12.6609C326.192 12.8122 326.013 12.9649 325.835 13.1162L326.482 13.8781ZM327.015 13.4272C328.207 12.4266 329.302 11.3299 330.378 10.2519L329.671 9.54529C328.589 10.6285 327.525 11.6937 326.372 12.6614L327.015 13.4272ZM330.401 10.2274L330.401 10.2271L329.648 9.56953L329.648 9.56985L330.401 10.2274ZM330.379 10.2516C331.641 8.98729 332.879 7.7485 334.256 6.6645L333.638 5.87873C332.206 7.00576 330.927 8.28763 329.671 9.54498L330.379 10.2516ZM334.256 6.66473C334.863 6.18763 335.439 5.79277 335.992 5.47782L335.497 4.60882C334.892 4.95338 334.275 5.37793 333.638 5.8785L334.256 6.66473ZM336.245 5.04332V1.53625H335.245V5.04332H336.245Z" fill="#0094FF" mask="url(#path-1-outside-1_1755_12534)"/>
</svg>
