<svg width="272" height="272" viewBox="0 0 272 272" fill="none" xmlns="http://www.w3.org/2000/svg">
<path d="M46.7225 230.298C50.3833 230.172 54.0442 230.549 57.705 230.036C62.6733 229.336 65.7275 226.512 66.6165 221.575C66.8362 220.361 66.9198 219.117 67.0558 217.882C67.4219 214.65 67.1709 211.387 67.6834 208.155C68.3423 203.971 70.1309 202.13 74.2938 201.534C78.3521 200.948 82.4418 201.503 86.5105 201.262C92.8909 200.886 96.2693 197.831 97.2002 191.566C97.4408 189.976 97.4826 188.387 97.5663 186.797C97.7127 184.088 97.6709 181.358 98.1834 178.68C98.926 174.779 100.892 172.969 104.857 172.54C107.032 172.31 109.218 172.206 111.404 172.373C113.59 172.509 115.776 172.394 117.952 172.174C123.223 171.651 126.225 168.984 127.355 163.828C127.847 161.568 127.972 159.267 128.003 156.956C128.035 154.299 128.119 151.632 128.704 149.027C129.374 146.078 131.162 144.31 134.185 143.745C136.423 143.327 138.662 143.432 140.9 143.411C143.557 143.39 146.214 143.536 148.86 143.149C153.985 142.386 156.882 139.635 157.813 134.52C158.43 131.131 158.378 127.7 158.524 124.28C158.859 116.718 161.223 114.459 168.806 114.396C171.881 114.375 174.956 114.49 178.021 114.323C183.816 114.009 187.215 111.038 188.219 105.568C188.449 104.292 188.554 102.995 188.648 101.698C188.867 98.6334 188.742 95.5478 189.244 92.5041C190.039 87.6718 192.005 85.9773 196.921 85.5799C200.812 85.2661 204.714 85.7681 208.615 85.3602C214.933 84.7013 218.206 81.5739 218.813 75.204C219.158 71.6164 219.221 68.0079 219.514 64.4202C219.943 59.1382 222.223 56.9208 227.495 56.5965C228.969 56.5024 230.444 56.5442 231.929 56.5338C234.827 56.5233 237.713 56.7116 240.6 56.1991C242.263 55.9062 243.686 55.3518 244.899 54.5465C244.272 53.7201 243.644 52.8938 243.006 52.078C241.824 52.8206 240.287 53.2286 238.32 53.3331C236.552 53.4273 234.774 53.3645 233.007 53.3959C230.936 53.4273 228.854 53.3122 226.815 53.5528C219.901 54.3686 216.962 57.496 216.355 64.4516C216.303 65.0374 216.313 65.6335 216.251 66.2193C215.947 69.3362 216.156 72.4845 215.644 75.591C214.964 79.7748 213.144 81.5948 208.981 82.1596C204.975 82.7035 200.948 82.2014 196.932 82.4211C190.395 82.7767 186.88 85.8832 186.138 92.3576C185.73 95.9348 185.698 99.5433 185.426 103.141C185.018 108.675 182.832 110.819 177.341 111.237C173.335 111.54 169.308 111.028 165.292 111.499C160.041 112.105 157.05 114.772 155.941 119.918C155.041 124.113 155.47 128.401 154.979 132.627C154.382 137.668 152.343 139.76 147.312 140.21C146.433 140.283 145.544 140.283 144.655 140.283C141.998 140.283 139.331 140.2 136.674 140.304C129.677 140.587 126.361 143.515 125.263 150.262C125.159 150.9 125.158 151.559 125.096 152.207C124.73 155.617 124.991 159.058 124.447 162.457C123.778 166.673 121.864 168.513 117.617 169.068C113.611 169.58 109.584 169.068 105.578 169.319C99.2293 169.716 95.8614 172.77 94.9409 179.046C94.4493 182.393 94.533 185.772 94.3238 189.129C93.9159 195.75 91.6776 197.988 85.0985 198.177C84.2094 198.198 83.3308 198.187 82.4418 198.177C79.6073 198.166 76.7727 198.051 73.9382 198.407C68.8653 199.034 65.9157 201.649 64.7861 206.618C63.8238 210.864 64.284 215.215 63.7924 219.504C63.2276 224.388 61.4914 226.292 56.6486 227.024C55.9478 227.129 55.2366 227.16 54.5253 227.17C51.3979 227.191 48.26 227.087 45.1327 227.223C41.7856 227.369 39.2858 228.196 37.4972 229.806C38.2294 230.57 38.9615 231.323 39.7146 232.076C40.9175 231.082 42.5701 230.538 44.7666 230.392C45.4151 230.35 46.0635 230.34 46.712 230.319L46.7225 230.298Z" fill="#FF6454"/>
<path d="M185.75 249.156C188.711 249.146 191.66 249.23 194.62 249.115C201.471 248.843 204.85 245.684 205.78 238.927C206.042 236.981 206.042 235.036 206.126 233.091C206.23 230.852 206.272 228.603 206.722 226.386C207.485 222.621 209.337 220.905 213.144 220.403C215.612 220.079 218.091 220.121 220.581 220.309C222.589 220.215 224.597 220.215 226.595 220.006C231.459 219.504 234.45 217.025 235.663 212.579C235.946 211.565 236.134 210.498 236.218 209.452C236.479 205.864 236.573 202.256 236.929 198.668C237.421 193.679 239.732 191.587 244.753 191.326C246.165 191.252 247.587 191.273 249.01 191.273C251.729 191.252 254.438 191.378 257.158 191.022C258.549 190.845 259.773 190.499 260.85 190.018C263.308 184.36 265.379 178.502 267.063 172.467C267.073 172.143 267.094 171.808 267.115 171.484C267.282 168.545 267.816 166.463 268.904 165.02C269.228 163.503 269.542 161.987 269.824 160.46C266.477 161.987 264.647 164.894 264.228 169.465C263.894 173.053 263.81 176.661 263.527 180.249C263.12 185.426 261.059 187.497 255.892 188.041C255.244 188.115 254.595 188.125 253.947 188.125C250.987 188.136 248.026 188.041 245.087 188.177C241.719 188.334 238.498 189.004 236.218 191.87C234.576 193.941 233.948 196.388 233.749 198.951C233.467 202.538 233.383 206.147 233.038 209.734C232.578 214.473 230.528 216.387 225.842 216.951C221.773 217.433 217.694 216.857 213.625 217.203C207.831 217.694 204.483 220.633 203.573 226.323C203.364 227.662 203.281 229.022 203.166 230.371C202.894 233.425 203.071 236.521 202.538 239.565C201.869 243.351 200.247 245.046 196.503 245.747C195.635 245.914 194.746 245.956 193.867 246.008C190.206 246.217 186.545 245.757 182.885 246.217C176.766 246.991 173.691 249.983 173.063 256.154C172.707 259.616 172.624 263.109 172.394 266.582C172.383 266.76 172.362 266.917 172.352 267.084C173.44 266.781 174.517 266.467 175.594 266.143C175.803 263.664 175.814 261.164 175.929 258.685C176.264 251.552 178.68 249.188 185.792 249.156H185.75Z" fill="#FF6454"/>
<path d="M21.2744 201.22C28.4496 200.917 31.8595 197.8 32.6439 190.698C33.0205 187.236 33.0414 183.743 33.3133 180.27C33.7108 175.061 35.6876 173.022 40.8651 172.404C44.5782 171.965 48.3018 172.425 52.0254 172.227C58.8973 171.871 62.5268 168.461 63.1021 161.568C63.3949 158.096 63.4577 154.602 63.7715 151.14C64.2735 145.701 66.4491 143.745 71.9717 143.4C75.8627 143.16 79.7641 143.63 83.6655 143.17C89.2404 142.522 92.3469 139.708 93.2778 134.196C93.874 130.692 93.8008 127.125 93.9786 123.59C94.3342 116.822 96.6981 114.521 103.424 114.385C104.365 114.364 105.317 114.385 106.258 114.375C108.444 114.375 110.641 114.448 112.816 114.344C119.573 114.009 123.014 110.892 123.788 104.198C124.186 100.746 124.228 97.2422 124.468 93.7697C124.855 88.1111 126.811 86.0715 132.407 85.538C133.871 85.402 135.356 85.4125 136.831 85.3916C139.07 85.3602 141.318 85.4439 143.557 85.3184C150.104 84.9627 153.64 81.5948 154.246 75.089C154.581 71.5013 154.612 67.8928 154.947 64.3052C155.46 58.8558 157.688 56.7534 163.137 56.5651C166.379 56.4501 169.643 56.607 172.885 56.471C180.332 56.1572 183.564 53.3227 184.652 46.3148C184.757 45.614 184.757 44.9028 184.83 44.1915C185.175 40.8968 184.935 37.5706 185.458 34.2863C186.117 30.1548 187.832 28.4081 191.943 27.7282C194.244 27.3517 196.545 27.519 198.846 27.4458C200.676 27.4458 202.517 27.5399 204.337 27.4249C208.155 27.1948 210.916 25.9606 212.705 23.6908C211.837 23.0946 210.958 22.5089 210.079 21.9441C209.159 22.99 207.851 23.6385 205.979 24.036C204.463 24.3602 202.925 24.3393 201.387 24.3602C198.145 24.4021 194.892 24.1824 191.65 24.5904C186.692 25.2075 183.721 27.8433 182.602 32.6965C181.64 36.8803 182.069 41.1792 181.619 45.4048C181.054 50.7078 178.973 52.852 173.659 53.2808C172.833 53.3436 172.007 53.3331 171.18 53.3436C168.398 53.3541 165.616 53.2495 162.844 53.3959C159.466 53.5737 156.265 54.3686 154.079 57.2973C152.5 59.4101 152.039 61.8995 151.757 64.4516C151.36 67.9765 151.621 71.5432 151.109 75.068C150.439 79.7853 148.483 81.6785 143.776 82.1701C139.77 82.5884 135.743 82.0759 131.727 82.4002C125.859 82.8708 122.512 85.8727 121.602 91.6568C121.037 95.234 121.142 98.8426 120.912 102.441C120.514 108.716 118.192 111.007 111.969 111.206C110.965 111.237 109.961 111.206 108.957 111.227C106.363 111.268 103.758 111.049 101.164 111.384C94.6898 112.231 91.7716 115.118 91.0918 121.665C90.7466 125.012 90.6943 128.391 90.4537 131.748C90.0144 137.742 87.7656 139.969 81.7619 140.189C78.5717 140.304 75.3815 140.168 72.1914 140.241C64.8383 140.43 61.2193 143.986 60.5709 151.328C60.2571 154.864 60.4349 158.42 59.9433 161.945C59.3053 166.599 57.2343 168.576 52.6007 169.047C49.3478 169.382 46.1053 168.974 42.8629 169.151C33.6585 169.633 30.4997 172.854 30.05 182.059C29.9035 185.06 29.9872 188.094 29.4956 191.075C28.7111 195.823 26.7657 197.675 22.038 198.041C20.4481 198.166 18.8478 198.103 17.258 198.114C16.5049 198.114 15.7622 198.114 15.0092 198.114C15.5531 199.181 16.1179 200.237 16.6931 201.283C18.2307 201.294 19.7682 201.315 21.3058 201.241L21.2744 201.22Z" fill="#FF6454"/>
<path d="M32.4242 215.77C34.7253 215.77 37.0369 215.916 39.3275 215.592C45.6974 214.713 48.7306 211.586 49.2745 205.153C49.5256 202.151 49.4942 199.128 49.787 196.137C50.5401 188.575 52.5693 186.786 60.1629 186.755C63.1229 186.744 66.083 186.839 69.0221 186.692C74.7539 186.41 78.1637 183.648 79.3143 178.46C79.5653 177.31 79.7013 176.128 79.785 174.956C80.0046 171.777 80.0046 168.566 80.3916 165.407C81.061 159.989 83.0274 158.294 88.435 157.897C92.2736 157.615 96.1123 158.075 99.9509 157.688C105.829 157.092 109.093 154.069 109.94 148.274C110.463 144.697 110.348 141.078 110.62 137.49C111.08 131.34 113.423 129.05 119.542 128.893C120.608 128.861 121.665 128.872 122.732 128.872C124.855 128.872 126.989 128.945 129.112 128.84C136.319 128.506 139.791 125.253 140.461 118.088C140.795 114.563 140.837 111.007 141.151 107.482C141.58 102.65 143.588 100.662 148.337 100.066C152.343 99.5642 156.37 100.098 160.386 99.8152C166.338 99.3864 169.58 96.5519 170.647 90.7154C171.243 87.4416 171.17 84.1259 171.316 80.8207C171.661 73.1748 173.963 70.9992 181.567 70.9574C184.987 70.9365 188.418 71.1666 191.838 70.7377C196.681 70.1311 199.578 67.6731 200.802 62.9663C201.293 61.0731 201.408 59.1277 201.502 57.1717C201.659 54.1699 201.586 51.1366 202.151 48.1661C202.82 44.6412 204.588 42.9363 208.082 42.2774C210.487 41.8276 212.914 42.0368 214.901 41.974C217.924 41.974 220.528 42.0996 223.112 41.6289C226.009 41.085 228.3 39.7775 229.764 37.4764C228.99 36.7443 228.206 36.0121 227.421 35.2904C226.135 37.717 223.792 38.6584 219.66 38.8257C215.947 38.9722 212.223 38.5642 208.5 39.0454C202.705 39.8089 199.693 42.7899 198.898 48.6263C198.406 52.2662 198.542 55.9375 198.229 59.5879C197.768 65.0373 195.76 67.1815 190.332 67.7254C188.93 67.8718 187.497 67.8091 186.075 67.8195C183.826 67.8405 181.577 67.7568 179.339 67.8614C172.634 68.1647 169.026 71.6163 168.419 78.2791C168.231 80.3919 168.137 82.5256 168.053 84.6489C167.959 86.8977 167.865 89.1361 167.321 91.3326C166.672 93.9579 165.114 95.7046 162.373 96.2904C160.041 96.7924 157.688 96.8761 155.324 96.782C152.845 96.6878 150.366 96.6983 147.887 96.9284C142.448 97.4305 139.268 100.296 138.254 105.662C138.065 106.645 137.982 107.649 137.867 108.643C137.49 111.938 137.741 115.264 137.26 118.548C136.559 123.307 134.53 125.295 129.719 125.629C128.014 125.755 126.288 125.692 124.583 125.703C122.041 125.723 119.51 125.588 116.969 125.954C111.603 126.728 108.632 129.614 107.764 134.949C107.231 138.233 107.314 141.549 107.126 144.854C106.676 152.563 104.459 154.696 96.6666 154.728C93.7066 154.738 90.7465 154.634 87.8074 154.791C81.6572 155.104 78.2056 158.242 77.327 164.277C77.055 166.139 76.9818 168.043 76.9191 169.925C76.8145 172.645 76.7831 175.364 76.1869 178.032C75.5384 180.908 73.823 182.686 70.863 183.251C69.1685 183.575 67.4636 183.648 65.7483 183.648C62.6209 183.648 59.4935 183.481 56.3661 183.826C51.2514 184.391 48.0508 187.288 47.1199 192.351C46.942 193.334 46.8375 194.338 46.7224 195.332C46.3145 198.679 46.5864 202.068 46.1053 205.415C45.4673 209.912 43.7519 211.764 39.2543 212.412C37.9782 212.6 36.6603 212.558 35.3634 212.59C31.9954 212.663 28.6274 212.339 25.2804 212.904C24.8515 212.977 24.4436 213.071 24.0461 213.176C24.6842 214.106 25.3431 215.027 26.0125 215.947C26.5773 215.864 27.1735 215.811 27.822 215.78C29.3596 215.717 30.8971 215.738 32.4347 215.738L32.4242 215.77Z" fill="#FF6454"/>
<path d="M134.834 263.978C136.946 263.58 139.07 263.59 141.193 263.622C144.027 263.653 146.862 263.768 149.686 263.35C154.163 262.691 157.196 260.369 158.284 255.85C158.577 254.648 158.734 253.413 158.89 252.19C159.34 248.612 159.016 244.983 159.591 241.406C160.24 237.337 162.049 235.475 166.108 234.879C170.103 234.293 174.14 234.806 178.146 234.607C184.757 234.283 188.114 231.302 189.098 224.817C189.621 221.355 189.516 217.861 189.736 214.378C190.123 208.416 192.194 206.262 198.082 205.76C201.921 205.425 205.76 205.927 209.598 205.551C215.027 205.028 218.123 202.392 219.284 197.078C219.702 195.164 219.849 193.229 219.88 191.273C219.932 188.324 219.974 185.364 220.602 182.456C221.24 179.506 222.986 177.686 226.02 177.101C227.662 176.776 229.304 176.766 230.957 176.745C234.262 176.682 237.567 176.975 240.872 176.484C245.83 175.741 248.696 173.063 249.69 168.126C250.38 164.685 250.275 161.192 250.443 157.709C250.809 150.01 253.173 147.772 260.84 147.741C263.8 147.741 266.76 147.835 269.709 147.678C270.326 147.647 270.933 147.584 271.519 147.49C271.613 146.412 271.686 145.325 271.749 144.237C271.069 144.383 270.326 144.488 269.5 144.53C265.787 144.718 262.042 144.509 258.34 144.791C251.206 145.335 248.1 148.525 247.514 155.638C247.221 159.173 247.138 162.719 246.824 166.244C246.437 170.71 244.554 172.687 240.161 173.388C239 173.576 237.808 173.586 236.626 173.607C233.906 173.639 231.187 173.524 228.467 173.649C221.198 173.973 217.621 177.509 217.056 184.767C217.014 185.353 217.014 185.949 216.962 186.535C216.658 189.652 216.868 192.8 216.345 195.907C215.654 200.017 213.73 201.858 209.588 202.392C205.456 202.915 201.314 202.381 197.183 202.674C191.106 203.103 187.675 206.325 186.828 212.328C186.378 215.56 186.472 218.813 186.242 222.056C185.719 229.419 183.585 231.459 176.18 231.532C172.697 231.563 169.214 231.312 165.731 231.762C160.7 232.411 157.771 235.099 156.673 240.077C155.826 243.927 156.213 247.859 155.784 251.729C155.02 258.612 152.949 260.474 145.952 260.515C142.94 260.536 139.917 260.432 136.905 260.568C130.932 260.85 127.522 263.507 126.33 268.695C126.11 269.657 126.006 270.651 125.901 271.644C126.937 271.718 127.972 271.791 129.008 271.843C129.102 271.006 129.227 270.18 129.405 269.354C130.054 266.394 131.79 264.584 134.823 264.009L134.834 263.978Z" fill="#FF6454"/>
<path d="M73.75 244.606C79.3563 243.937 82.4732 240.998 83.3413 235.402C83.9062 231.773 83.7806 228.091 84.0421 224.441C84.4814 218.332 86.8557 216.021 92.985 215.832C94.5749 215.78 96.1752 215.832 97.7755 215.822C99.4281 215.822 101.091 215.864 102.744 215.79C109.626 215.487 113.172 212.224 113.862 205.383C114.228 201.806 114.26 198.187 114.573 194.599C115.023 189.485 117.094 187.487 122.157 186.985C126.163 186.587 130.19 187.11 134.206 186.744C139.446 186.263 142.71 183.701 143.871 178.879C144.132 177.791 144.237 176.672 144.383 175.553C144.833 172.028 144.54 168.461 145.042 164.947C145.649 160.732 147.322 158.859 151.496 158.159C152.772 157.949 154.079 157.97 155.376 157.939C158.681 157.845 161.987 158.138 165.292 157.688C170.522 156.987 173.618 154.079 174.486 148.881C175.103 145.199 174.988 141.455 175.228 137.742C175.636 131.424 178.021 129.123 184.349 128.935C185.29 128.903 186.242 128.935 187.184 128.935C189.61 128.924 192.037 129.018 194.453 128.872C200.865 128.495 204.327 125.242 205.007 118.883C205.383 115.306 205.446 111.687 205.718 108.099C206.126 102.618 208.27 100.547 213.688 100.077C217.412 99.7525 221.125 100.255 224.848 99.9094C231.668 99.2609 234.973 96.0498 235.517 89.2198C235.768 86.0401 235.747 82.8394 236.082 79.6702C236.804 72.9552 238.791 71.2398 245.506 71.0516C248.822 70.9574 252.158 71.2607 255.474 70.9365C254.909 69.9115 254.334 68.8969 253.748 67.8823C252.796 67.9032 251.844 67.8928 250.893 67.9032C247.88 67.9346 244.868 67.715 241.866 68.217C237.442 68.9492 234.597 71.4176 233.509 75.7897C233.237 76.8671 233.132 77.9967 232.986 79.1054C232.526 82.6302 232.818 86.1865 232.327 89.7218C231.72 94.188 229.827 96.1126 225.444 96.6879C221.438 97.2213 217.412 96.6879 213.406 96.9389C207.13 97.3363 203.762 100.296 202.8 106.488C202.622 107.649 202.549 108.831 202.444 110.013C202.172 113.13 202.36 116.279 201.795 119.375C201.074 123.36 199.066 125.253 195.049 125.661C194.286 125.744 193.512 125.755 192.748 125.786C189.087 125.954 185.426 125.556 181.765 126.006C176.776 126.633 173.816 129.175 172.645 134.039C172.143 136.12 172.007 138.233 171.965 140.367C171.902 143.201 171.881 146.046 171.285 148.839C170.532 152.333 168.869 153.881 165.344 154.477C161.411 155.146 157.437 154.623 153.483 154.78C146.057 155.062 142.417 158.42 141.81 165.794C141.507 169.382 141.454 173.001 141.099 176.578C140.66 181.075 138.536 183.063 134.07 183.565C132.24 183.774 130.42 183.795 128.589 183.774C126.288 183.753 123.977 183.732 121.686 183.868C115.996 184.213 112.649 187.226 111.676 192.811C111.059 196.378 111.164 199.997 110.954 203.595C110.557 210.236 108.361 212.36 101.74 212.653C98.0788 212.81 94.418 212.402 90.7571 212.883C85.0149 213.625 81.9816 216.585 81.1658 222.296C80.6428 225.999 80.7892 229.733 80.4754 233.436C80.0048 238.99 77.7978 241.249 72.2229 241.605C70.4552 241.72 68.6771 241.626 66.9094 241.626C66.9094 241.657 66.9094 241.688 66.9094 241.72C65.0162 241.72 63.1231 241.605 61.2404 241.741C58.1025 241.96 55.7073 242.881 53.9814 244.46C54.8391 245.109 55.6968 245.747 56.5649 246.374C57.7887 245.464 59.4518 245.004 61.711 244.858C65.7275 244.606 69.7439 245.077 73.7604 244.596L73.75 244.606Z" fill="#FF6454"/>
<path d="M12.8441 81.0196C15.8042 81.0196 18.7538 81.0928 21.7138 80.9882C28.7112 80.7371 32.2675 77.4738 32.9787 70.5496C33.3448 66.9724 33.3657 63.3534 33.6795 59.7658C34.1188 54.7452 36.1689 52.7579 41.1267 52.2036C45.1327 51.7433 49.1596 52.3291 53.1761 51.9734C58.5941 51.4923 61.9307 48.8251 63.0394 43.8778C63.2695 42.8423 63.3741 41.7754 63.4996 40.7295C63.9494 37.2674 63.6461 33.7634 64.1377 30.2908C64.7966 25.6154 66.9722 23.5131 71.6999 23.2307C73.1747 23.147 74.6495 23.147 76.1347 23.147C78.9693 23.147 81.8038 23.2725 84.6279 22.875C89.3765 22.2161 92.1901 19.7476 93.372 15.0827C93.8009 13.4196 93.9264 11.7147 94.031 9.99937C94.0938 8.85928 94.1251 7.71919 94.167 6.5791C93.1105 6.92427 92.0541 7.27989 91.0082 7.64597C90.935 9.09985 90.8513 10.5537 90.7362 11.9971C90.3074 17.3943 88.0481 19.5908 82.6824 19.9464C81.5632 20.0196 80.4336 19.9987 79.3144 19.9987C76.8878 20.0091 74.4612 19.9255 72.0451 20.0301C65.1418 20.3438 61.5228 23.8269 60.958 30.6779C60.6546 34.3282 60.5814 37.9995 60.2258 41.6394C59.7865 46.3044 57.6318 48.2917 52.9774 48.8147C48.9609 49.2644 44.9444 48.7101 40.928 49.0448C34.987 49.5364 31.734 52.3918 30.7404 58.2387C30.1442 61.7531 30.2593 65.3093 30.0396 68.8447C29.6421 75.4655 27.4143 77.6097 20.7934 77.8817C18.1994 77.9863 15.6055 77.8189 13.0115 77.8817C12.5094 78.9381 12.0283 79.9945 11.5576 81.0614C11.7459 81.0614 11.9237 81.0405 12.1224 81.03C12.363 81.03 12.5931 81.03 12.8337 81.03L12.8441 81.0196Z" fill="#FF6454"/>
<path d="M8.83804 124.374C15.2602 123.715 18.4399 120.724 19.1198 114.312C19.4963 110.735 19.5381 107.116 19.831 103.528C20.2808 98.079 22.6342 95.8511 28.0836 95.5792C28.8471 95.5373 29.6211 95.5373 30.3847 95.5373C32.5707 95.5373 34.7567 95.6001 36.9428 95.5373C38.4176 95.4955 39.9028 95.3804 41.3462 95.1085C46.2936 94.1671 49.1281 90.705 49.5988 84.9941C49.9021 81.2915 49.9649 77.5574 50.3414 73.8547C50.8017 69.2002 52.8203 67.2966 57.4225 66.7318C61.4285 66.2402 65.4555 66.7632 69.4719 66.4808C75.5698 66.0624 78.8332 63.1442 79.8268 57.0881C80.0047 55.9794 80.0779 54.8602 80.1825 53.7411C80.4858 50.5091 80.2766 47.2352 80.8414 44.0242C81.4794 40.3947 83.153 38.6689 86.7615 37.9158C88.1631 37.6229 89.5856 37.6438 90.9976 37.6229C94.3028 37.5706 97.608 37.8112 100.913 37.4033C105.913 36.7966 108.821 34.2759 110.003 29.3494C110.463 27.4458 110.609 25.5003 110.662 23.5549C110.745 20.6053 110.756 17.6452 111.331 14.727C112.032 11.1917 113.758 9.52863 117.335 8.93244C121.33 8.27349 125.357 8.80692 129.374 8.62911C135.796 8.3467 139.352 5.66906 140.492 0.0627572C139.415 0.0313786 138.337 0.0104595 137.26 0C136.266 3.85957 134.07 5.29252 129.248 5.45987C126.121 5.56447 122.983 5.39712 119.855 5.53309C111.749 5.87825 108.214 9.44495 107.796 17.5302C107.743 18.4715 107.743 19.4233 107.67 20.3647C107.461 22.9587 107.586 25.5631 107.095 28.1361C106.373 31.9539 104.658 33.6378 100.788 34.234C96.7294 34.8721 92.6398 34.3282 88.571 34.5374C81.8874 34.8825 78.2893 38.125 77.6094 44.7145C77.2433 48.2393 77.2015 51.7851 76.9296 55.3204C76.5112 60.8535 74.4611 62.8722 68.9908 63.3638C65.0371 63.7194 61.0729 63.1965 57.1192 63.5939C51.6175 64.1483 48.4901 66.8782 47.4232 72.2649C46.7329 75.7061 46.9003 79.21 46.7015 82.6826C46.2518 90.2971 44.0553 92.3472 36.4826 92.3995C33.7003 92.4204 30.9181 92.2844 28.1463 92.4413C20.8351 92.8492 17.6659 95.8197 16.7141 102.953C16.6095 103.769 16.6199 104.606 16.5572 105.432C16.2957 108.549 16.463 111.697 15.9296 114.804C15.2393 118.799 13.4088 120.577 9.44469 121.153C7.09129 121.498 4.72744 121.393 2.36359 121.456C1.83015 121.456 1.30718 121.456 0.77374 121.435C0.669145 122.45 0.575009 123.464 0.491333 124.489C3.27357 124.447 6.0558 124.657 8.8485 124.374H8.83804Z" fill="#FF6454"/>
<path d="M19.1094 173.482C19.5068 169.905 19.5382 166.286 19.8206 162.698C20.239 157.249 22.425 155.083 27.8326 154.749C29.5375 154.644 31.2529 154.665 32.9682 154.676C35.0392 154.676 37.0997 154.728 39.1707 154.529C45.7916 153.891 49.055 150.649 49.6093 144.017C49.9127 140.315 49.9859 136.581 50.352 132.878C50.7913 128.474 52.6426 126.56 56.9938 125.912C60.7487 125.347 64.5455 125.828 68.3319 125.692C75.6849 125.42 79.147 122.303 80.057 115.065C80.1512 114.302 80.1407 113.528 80.2035 112.764C80.4859 109.647 80.308 106.499 80.8206 103.392C81.5004 99.2714 83.425 97.441 87.5774 96.9076C91.6462 96.3846 95.7254 96.9075 99.7942 96.6356C106.101 96.2068 109.522 93.0166 110.348 86.8036C110.777 83.6239 110.651 80.4338 110.902 77.2541C111.488 69.8174 113.559 67.851 120.975 67.7778C124.102 67.7464 127.24 68.0288 130.367 67.6523C137.229 66.8155 140.22 63.8241 140.816 56.9731C141.13 53.3855 141.193 49.7769 141.528 46.1893C141.946 41.629 143.85 39.6521 148.368 39.0141C152.186 38.4806 156.045 38.9722 159.884 38.7944C166.84 38.4702 170.239 35.4055 171.212 28.5545C171.285 28.0316 171.275 27.4981 171.337 26.9647C171.703 23.5026 171.452 19.9882 172.007 16.5365C172.676 12.4155 174.632 10.5328 178.743 10.0412C181.159 9.74831 183.575 9.81107 186.002 9.96796C186.357 9.94704 186.723 9.93658 187.079 9.92612C184.391 8.83833 181.65 7.82376 178.879 6.90332C172.655 7.4263 169.434 10.6687 168.796 17.0909C168.43 20.7308 168.398 24.4021 168.074 28.0525C167.624 33.1149 165.271 35.3323 160.229 35.6043C158.692 35.6879 157.154 35.667 155.627 35.667C152.97 35.667 150.314 35.5729 147.657 35.9285C142.574 36.6084 139.582 39.4011 138.63 44.4739C137.971 47.9779 138.076 51.5341 137.888 55.0694C137.49 62.3911 135.2 64.5772 127.899 64.6817C124.887 64.7236 121.864 64.5981 118.862 64.734C112.346 65.0269 109.061 68.0288 108.089 74.4823C107.89 75.7584 107.848 77.0658 107.743 78.3628C107.524 81.1241 107.67 83.9273 107.189 86.6677C106.373 91.364 104.501 93.0271 99.8151 93.5082C95.9241 93.9057 92.0227 93.3932 88.1213 93.7279C81.6469 94.2822 78.3103 97.3573 77.6513 103.779C77.2748 107.419 77.2225 111.091 76.9296 114.741C76.5008 120.002 74.1474 122.261 68.9072 122.512C67.2546 122.596 65.602 122.554 63.9389 122.565C61.3449 122.565 58.7405 122.46 56.157 122.868C51.3979 123.611 48.4902 126.288 47.5174 130.995C47.3187 131.978 47.1723 132.972 47.099 133.976C46.8585 137.396 46.7643 140.827 46.4296 144.226C45.9903 148.829 44.0762 150.732 39.5473 151.36C35.604 151.904 31.6399 151.402 27.6757 151.611C21.2954 151.935 17.917 154.906 16.8919 161.192C16.4003 164.236 16.4213 167.311 16.2957 170.386C16.0029 177.739 14.0679 180.134 7.43652 180.479C7.79215 181.515 8.15823 182.54 8.54523 183.554C14.9569 183.136 18.4086 179.977 19.1198 173.513L19.1094 173.482Z" fill="#FF6454"/>
<path d="M87.8912 261.258C93.7381 260.704 97.0433 257.629 97.8905 251.845C98.1311 250.202 98.2043 248.55 98.288 246.897C98.4239 244.063 98.3926 241.218 98.9469 238.425C99.5536 235.329 101.3 233.383 104.501 232.777C106.091 232.473 107.67 232.463 109.26 232.432C112.335 232.369 115.41 232.672 118.475 232.254C124.824 231.386 127.805 228.363 128.38 222.003C128.704 218.416 128.788 214.807 129.081 211.22C129.489 206.272 131.424 204.264 136.287 203.626C137.281 203.501 138.285 203.438 139.289 203.427C142.187 203.396 145.084 203.501 147.981 203.375C154.215 203.103 157.499 200.206 158.639 194.087C158.775 193.334 158.828 192.57 158.922 191.807C159.33 188.523 159.047 185.196 159.518 181.902C160.261 176.808 162.217 174.977 167.405 174.58C171.358 174.287 175.312 174.758 179.276 174.35C184.924 173.764 188.177 170.762 189.045 165.125C189.61 161.495 189.495 157.813 189.746 154.163C190.164 148.044 192.581 145.712 198.679 145.555C200.038 145.523 201.398 145.555 202.758 145.544C204.651 145.544 206.544 145.618 208.427 145.503C215.508 145.084 218.834 141.978 219.577 134.928C219.943 131.466 219.974 127.972 220.246 124.5C220.664 119.343 222.61 117.335 227.672 116.718C231.563 116.247 235.465 116.739 239.366 116.498C245.422 116.122 248.665 113.319 249.784 107.367C250.296 104.627 250.349 101.844 250.39 99.0727C250.422 97.0017 250.6 94.9411 251.112 92.9225C251.782 90.2657 253.445 88.634 256.143 88.0379C258.402 87.5463 260.693 87.6195 263.141 87.6195C262.743 86.5735 262.325 85.5276 261.906 84.4921C260.819 84.4712 259.741 84.4712 258.664 84.5235C251.792 84.8477 248.121 88.2889 247.545 95.1503C247.253 98.6229 247.19 102.116 246.876 105.578C246.384 110.997 244.334 112.9 238.906 113.371C234.952 113.716 230.998 113.162 227.045 113.59C221.522 114.187 218.311 117.074 217.391 122.523C217.192 123.684 217.119 124.866 217.004 126.037C216.679 129.269 216.899 132.533 216.366 135.754C215.707 139.677 214.023 141.444 210.111 142.135C209.305 142.281 208.469 142.354 207.642 142.365C204.567 142.396 201.492 142.302 198.427 142.406C191.085 142.678 187.748 145.649 186.828 152.887C186.43 156.046 186.42 159.246 186.232 162.436C185.834 168.89 183.7 171.076 177.257 171.358C173.952 171.505 170.637 171.327 167.331 171.453C160.637 171.714 157.008 175.166 156.412 181.839C156.087 185.427 156.025 189.035 155.711 192.623C155.251 197.769 153.054 199.808 147.929 200.216C143.912 200.541 139.896 200.028 135.88 200.467C130.399 201.064 127.24 203.835 126.246 209.211C125.598 212.715 125.702 216.272 125.514 219.807C125.138 226.972 122.763 229.221 115.588 229.273C112.691 229.294 109.793 229.179 106.896 229.304C99.9719 229.587 96.6458 232.609 95.6731 239.398C95.4744 240.799 95.4325 242.222 95.3384 243.634C95.1606 246.343 95.2233 249.062 94.7317 251.761C93.9996 255.819 92.1482 257.514 88.0167 258.047C84.1885 258.539 80.3394 258.11 76.5112 258.288C78.7287 259.365 80.9879 260.4 83.2681 261.363C84.8161 261.384 86.3641 261.373 87.9226 261.227L87.8912 261.258Z" fill="#FF6454"/>
<path d="M115.201 255.056C115.755 249.502 118.004 247.221 123.537 247.023C125.723 246.939 127.909 247.023 130.095 246.991C131.685 246.96 133.296 246.96 134.875 246.772C141.454 245.977 144.425 242.797 145.063 236.187C145.418 232.473 145.209 228.739 145.743 225.047C146.381 220.675 148.148 218.876 152.521 218.186C154.288 217.903 156.056 217.966 157.823 217.956C160.072 217.956 162.321 218.018 164.559 217.914C170.94 217.61 174.255 214.598 175.26 208.281C175.416 207.287 175.479 206.283 175.573 205.289C175.856 202.172 175.667 199.024 176.19 195.917C176.943 191.357 178.847 189.642 183.439 189.16C187.393 188.742 191.357 189.265 195.31 188.92C201.68 188.376 204.881 185.332 205.739 178.983C206.22 175.396 206.042 171.787 206.387 168.189C206.931 162.551 209.222 160.282 214.891 160.125C217.662 160.041 220.445 160.146 223.227 160.083C224.702 160.052 226.187 159.957 227.63 159.696C232.776 158.796 235.663 155.439 236.186 149.665C236.521 145.9 236.573 142.114 236.95 138.348C237.41 133.746 239.335 131.884 243.895 131.277C247.901 130.754 251.928 131.277 255.944 131.026C261.802 130.66 265.327 127.784 266.331 122.46C266.561 121.247 266.644 120.002 266.77 118.768C267.094 115.421 266.875 112.032 267.439 108.695C267.659 107.388 268.036 106.321 268.569 105.432C268.276 104.177 267.973 102.922 267.649 101.677C265.693 103.371 264.542 105.913 264.218 109.333C263.873 112.921 263.81 116.53 263.517 120.117C263.099 125.378 260.913 127.46 255.693 127.889C251.855 128.202 248.016 127.7 244.177 128.098C237.556 128.778 234.283 131.989 233.749 138.631C233.509 141.57 233.498 144.53 233.299 147.479C232.797 154.832 230.559 156.903 223.196 156.935C220.361 156.945 217.516 156.841 214.681 156.966C207.695 157.29 204.536 160.167 203.437 167.039C203.27 168.085 203.26 169.151 203.166 170.208C202.904 173.21 203.071 176.233 202.559 179.224C201.858 183.355 199.986 185.154 195.802 185.698C191.733 186.232 187.654 185.698 183.585 185.96C177.31 186.378 173.879 189.6 173.032 195.802C172.592 199.034 172.739 202.287 172.467 205.53C171.85 212.809 169.779 214.755 162.405 214.818C158.984 214.849 155.554 214.619 152.133 215.027C146.914 215.654 143.954 218.353 142.866 223.531C141.998 227.672 142.427 231.898 141.925 236.061C141.297 241.238 139.321 243.247 134.143 243.728C133.442 243.791 132.731 243.78 132.02 243.791C129.06 243.801 126.1 243.707 123.161 243.843C117.063 244.136 113.58 246.939 112.502 252.305C112.272 253.455 112.189 254.648 112.063 255.819C111.707 259.166 111.948 262.555 111.415 265.892C111.174 267.377 110.797 268.559 110.222 269.5C111.279 269.699 112.345 269.898 113.412 270.075C113.799 269.218 114.113 268.266 114.343 267.199C115.232 263.183 114.835 259.072 115.243 255.014L115.201 255.056Z" fill="#FF6454"/>
<path d="M3.09587 149.707C3.47241 142.501 5.59569 140.367 12.7291 140.147C16.1494 140.043 19.5801 140.377 23.0003 139.98C29.0669 139.269 32.2989 136.194 32.916 130.137C33.2925 126.435 33.3553 122.711 33.6586 118.998C34.0874 113.883 36.0852 111.875 41.1581 111.258C41.7438 111.185 42.34 111.174 42.9257 111.174C45.9381 111.164 48.9609 111.237 51.9732 111.143C59.2322 110.902 62.8302 107.357 63.4892 100.129C63.8134 96.5311 63.6356 92.9225 64.1272 89.3349C64.7443 84.8582 66.7212 82.9127 71.2188 82.3688C75.3503 81.8668 79.4818 82.4525 83.6133 82.1074C89.3347 81.6367 92.7445 78.593 93.6126 72.9239C93.8218 71.5851 93.895 70.2253 94.0101 68.8761C94.2716 65.8219 94.1042 62.7259 94.6481 59.6926C95.328 55.9272 96.9597 54.2432 100.725 53.5529C101.593 53.396 102.482 53.3541 103.371 53.3123C107.262 53.1136 111.164 53.5842 115.055 53.0194C119.793 52.3291 122.648 49.8293 123.767 45.1957C124.249 43.2398 124.416 41.242 124.458 39.2233C124.521 36.326 124.521 33.4287 125.096 30.5733C125.87 26.7137 127.564 25.1239 131.476 24.5486C135.482 23.9524 139.509 24.4754 143.515 24.2766C150.387 23.9315 154.037 20.4798 154.613 13.6288C154.905 10.0412 154.979 6.43268 155.313 2.84507C155.366 2.33255 155.428 1.86187 155.512 1.42257C154.487 1.27614 153.462 1.14016 152.437 1.01465C152.416 1.09832 152.395 1.182 152.374 1.27614C151.548 5.35535 151.977 9.5287 151.464 13.6393C150.816 18.7435 148.672 20.7936 143.536 21.1179C139.582 21.3689 135.618 20.8982 131.664 21.3584C125.859 22.0383 122.816 24.8519 121.906 30.5733C121.341 34.0877 121.435 37.6439 121.226 41.1792C120.849 47.6746 118.381 50.0489 111.906 50.1535C110.254 50.1744 108.601 50.1326 106.938 50.1535C105.338 50.1535 103.737 50.1221 102.148 50.2267C95.4953 50.666 92.1065 53.8248 91.4057 60.4248C91.0291 63.9496 90.9873 67.4954 90.7153 71.0307C90.3074 76.4697 88.3201 78.4256 82.9125 79.0218C79.2517 79.4297 75.5909 78.9172 71.93 79.1891C64.9012 79.7017 61.5019 82.9232 60.9266 89.8997C60.6337 93.4873 60.5501 97.0959 60.2258 100.683C59.797 105.463 57.5168 107.639 52.7159 107.974C51.3666 108.068 49.9964 108.057 48.6367 108.068C45.8021 108.078 42.9676 107.932 40.1331 108.288C34.715 108.967 31.7341 111.708 30.7718 117.094C30.1337 120.661 30.2488 124.28 30.0501 127.878C29.6735 134.635 27.3201 136.915 20.5528 137.062C17.3627 137.135 14.162 136.988 10.9823 137.135C4.73801 137.428 1.45372 140.294 0.355469 146.172C0.721552 151.109 1.34912 155.973 2.22772 160.753C2.32186 160.345 2.40554 159.916 2.47875 159.476C2.98081 156.255 2.90759 152.992 3.08541 149.749L3.09587 149.707Z" fill="#FF6454"/>
</svg>
