<svg width="30" height="31" viewBox="0 0 30 31" fill="none" xmlns="http://www.w3.org/2000/svg">
<path d="M9.59687 1.9668C5.29637 1.9668 1.79688 5.46629 1.79688 9.7668V20.5668C1.79688 24.8673 5.29637 28.3668 9.59687 28.3668H20.3969C24.6974 28.3668 28.1969 24.8673 28.1969 20.5668V9.7668C28.1969 5.46629 24.6974 1.9668 20.3969 1.9668H9.59687ZM9.59687 3.1668H20.3969C24.0488 3.1668 26.9969 6.11491 26.9969 9.7668V20.5668C26.9969 24.2187 24.0488 27.1668 20.3969 27.1668H9.59687C5.94498 27.1668 2.99687 24.2187 2.99687 20.5668V9.7668C2.99687 6.11491 5.94498 3.1668 9.59687 3.1668ZM22.1969 6.7668C21.8786 6.7668 21.5734 6.89323 21.3483 7.11827C21.1233 7.34331 20.9969 7.64854 20.9969 7.9668C20.9969 8.28506 21.1233 8.59028 21.3483 8.81532C21.5734 9.04037 21.8786 9.1668 22.1969 9.1668C22.5151 9.1668 22.8204 9.04037 23.0454 8.81532C23.2704 8.59028 23.3969 8.28506 23.3969 7.9668C23.3969 7.64854 23.2704 7.34331 23.0454 7.11827C22.8204 6.89323 22.5151 6.7668 22.1969 6.7668ZM14.9969 8.5668C11.3589 8.5668 8.39687 11.5288 8.39687 15.1668C8.39687 18.8048 11.3589 21.7668 14.9969 21.7668C18.6348 21.7668 21.5969 18.8048 21.5969 15.1668C21.5969 11.5288 18.6348 8.5668 14.9969 8.5668ZM14.9969 9.7668C17.9863 9.7668 20.3969 12.1774 20.3969 15.1668C20.3969 18.1562 17.9863 20.5668 14.9969 20.5668C12.0074 20.5668 9.59687 18.1562 9.59687 15.1668C9.59687 12.1774 12.0074 9.7668 14.9969 9.7668Z" fill="white"/>
</svg>
