<svg width="31" height="31" viewBox="0 0 31 31" fill="none" xmlns="http://www.w3.org/2000/svg">
<g clip-path="url(#clip0_1825_18240)">
<path d="M21.4697 3.448C17.8814 3.448 14.9634 6.36597 14.9634 9.95425C14.9634 10.1699 15.0173 10.3808 15.0384 10.5917C10.6017 10.1675 6.67827 8.03003 4.01343 4.7605C3.88921 4.60347 3.69702 4.51909 3.49546 4.53315C3.29624 4.54722 3.11812 4.66206 3.01968 4.8355C2.45952 5.79878 2.13843 6.90737 2.13843 8.098C2.13843 9.5394 2.65405 10.8589 3.45093 11.9417C3.29624 11.8738 3.12749 11.8363 2.98218 11.7542C2.79702 11.6558 2.57437 11.6605 2.3939 11.7683C2.21343 11.8761 2.10327 12.0707 2.10093 12.2792V12.3542C2.10093 14.5644 3.24468 16.4839 4.93218 17.6605C4.91343 17.6582 4.89468 17.6652 4.87593 17.6605C4.66968 17.6253 4.46109 17.698 4.3228 17.855C4.18452 18.0121 4.13999 18.23 4.20093 18.4292C4.87124 20.5128 6.58218 22.1042 8.70093 22.6855C7.01343 23.6886 5.0564 24.2792 2.94468 24.2792C2.48765 24.2792 2.04937 24.2558 1.61343 24.2042C1.33218 24.1667 1.06265 24.3308 0.968898 24.598C0.872804 24.8652 0.978273 25.1628 1.21968 25.3105C3.92671 27.0472 7.13999 28.0667 10.5947 28.0667C16.1939 28.0667 20.5861 25.7277 23.5322 22.3855C26.4783 19.0433 28.0134 14.7027 28.0134 10.648C28.0134 10.4769 27.9994 10.3105 27.9947 10.1417C29.0939 9.30034 30.0759 8.31362 30.8447 7.1605C30.997 6.93784 30.9806 6.64019 30.8048 6.43394C30.6314 6.22769 30.3384 6.1644 30.0947 6.27925C29.7853 6.41753 29.4244 6.43159 29.1009 6.54175C29.5275 5.97222 29.8931 5.35815 30.1134 4.66675C30.1884 4.43003 30.1064 4.16987 29.9119 4.01519C29.7173 3.86284 29.4455 3.84409 29.2322 3.973C28.208 4.58003 27.0736 5.00659 25.8759 5.26675C24.7134 4.17925 23.183 3.448 21.4697 3.448ZM21.4697 4.648C23.0001 4.648 24.383 5.3019 25.3509 6.3355C25.4962 6.4855 25.7095 6.54878 25.9134 6.50425C26.6962 6.34956 27.4392 6.12222 28.1634 5.82925C27.7462 6.39175 27.2306 6.87222 26.6259 7.2355C26.3517 7.36909 26.2228 7.6855 26.3236 7.97378C26.422 8.25972 26.722 8.42612 27.0197 8.3605C27.6197 8.28784 28.1541 8.04409 28.7259 7.89175C28.2127 8.44722 27.6502 8.94878 27.0384 9.39175C26.872 9.51362 26.7806 9.7105 26.7947 9.91675C26.8041 10.1605 26.8134 10.4019 26.8134 10.648C26.8134 14.398 25.3744 18.4691 22.6322 21.5792C19.89 24.6894 15.8634 26.8667 10.5947 26.8667C8.20171 26.8667 5.94234 26.3371 3.90093 25.4042C6.43218 25.2097 8.76655 24.3144 10.6509 22.8355C10.8478 22.6785 10.9251 22.416 10.8455 22.1769C10.7658 21.9378 10.5455 21.7738 10.2947 21.7667C8.31655 21.7316 6.65952 20.5808 5.77593 18.9542C5.80874 18.9542 5.83687 18.9542 5.86968 18.9542C6.46265 18.9542 7.04859 18.8792 7.59468 18.7292C7.85718 18.6519 8.03765 18.4082 8.02827 18.1339C8.0189 17.8597 7.82437 17.6253 7.55718 17.5667C5.42202 17.1355 3.82124 15.3964 3.45093 13.2355C4.05562 13.4441 4.67437 13.6082 5.34468 13.6292C5.6189 13.6457 5.86734 13.4746 5.95171 13.2144C6.03609 12.9542 5.93296 12.6683 5.70093 12.523C4.27593 11.5691 3.33843 9.94487 3.33843 8.098C3.33843 7.41362 3.51655 6.7855 3.75093 6.1855C6.75093 9.47847 10.9509 11.6652 15.6947 11.9042C15.8822 11.9136 16.065 11.8363 16.1869 11.6933C16.3087 11.548 16.3556 11.3558 16.3134 11.173C16.222 10.7839 16.1634 10.3714 16.1634 9.95425C16.1634 7.01519 18.5306 4.648 21.4697 4.648Z" fill="white"/>
</g>
<defs>
<clipPath id="clip0_1825_18240">
<rect width="30" height="30" fill="white" transform="translate(0.9375 0.166748)"/>
</clipPath>
</defs>
</svg>
