<svg width="31" height="31" viewBox="0 0 31 31" fill="none" xmlns="http://www.w3.org/2000/svg">
<path d="M5.45312 2.56665C3.80342 2.56665 2.45312 3.91694 2.45312 5.56665V24.7667C2.45312 26.4164 3.80342 27.7667 5.45312 27.7667H24.6531C26.3028 27.7667 27.6531 26.4164 27.6531 24.7667V5.56665C27.6531 3.91694 26.3028 2.56665 24.6531 2.56665H5.45312ZM5.45312 3.76665H24.6531C25.6542 3.76665 26.4531 4.56556 26.4531 5.56665V24.7667C26.4531 25.7677 25.6542 26.5667 24.6531 26.5667H5.45312C4.45203 26.5667 3.65313 25.7677 3.65313 24.7667V5.56665C3.65313 4.56556 4.45203 3.76665 5.45312 3.76665ZM8.45312 6.77368C7.79599 6.77368 7.20466 6.9701 6.7668 7.33853C6.32894 7.70695 6.06016 8.25736 6.06016 8.84673C6.06016 9.96704 7.0319 10.8404 8.26797 10.9268L8.27031 10.928C8.32921 10.9481 8.3909 10.9587 8.45312 10.9596C9.81693 10.9596 10.8461 10.0043 10.8461 8.84673C10.846 8.83617 10.8456 8.82562 10.8449 8.81509C10.7839 7.67495 9.76739 6.77368 8.45312 6.77368ZM8.45312 7.95962C9.28846 7.95962 9.61831 8.33267 9.6543 8.86196C9.64701 9.37571 9.32918 9.77368 8.45312 9.77368C7.62188 9.77368 7.24609 9.34799 7.24609 8.84673C7.24609 8.5961 7.33755 8.40723 7.52969 8.24556C7.72183 8.08388 8.03026 7.95962 8.45312 7.95962ZM6.65313 11.5667C6.494 11.5667 6.3414 11.6299 6.22888 11.7424C6.11636 11.8549 6.05314 12.0075 6.05313 12.1667V23.5667C6.05314 23.7258 6.11636 23.8784 6.22888 23.9909C6.3414 24.1034 6.494 24.1666 6.65313 24.1667H10.2531C10.4123 24.1666 10.5649 24.1034 10.6774 23.9909C10.7899 23.8784 10.8531 23.7258 10.8531 23.5667V20.0475V12.1667C10.8531 12.0075 10.7899 11.8549 10.6774 11.7424C10.5649 11.6299 10.4123 11.5667 10.2531 11.5667H6.65313ZM12.0531 11.5667C11.894 11.5667 11.7414 11.6299 11.6289 11.7424C11.5164 11.8549 11.4531 12.0075 11.4531 12.1667V23.5667C11.4531 23.7258 11.5164 23.8784 11.6289 23.9909C11.7414 24.1034 11.894 24.1666 12.0531 24.1667H15.6531C15.8123 24.1666 15.9649 24.1034 16.0774 23.9909C16.1899 23.8784 16.2531 23.7258 16.2531 23.5667V17.5667C16.2531 17.0689 16.389 16.5737 16.6281 16.2495C16.8673 15.9253 17.169 15.7307 17.7426 15.7409C18.334 15.751 18.6471 15.9537 18.884 16.2717C19.1208 16.5898 19.2531 17.0667 19.2531 17.5667V23.5667C19.2531 23.7258 19.3164 23.8784 19.4289 23.9909C19.5414 24.1034 19.694 24.1666 19.8531 24.1667H23.4531C23.6123 24.1666 23.7649 24.1034 23.8774 23.9909C23.9899 23.8784 24.0531 23.7258 24.0531 23.5667V17.1237C24.0531 15.3468 23.5268 13.9392 22.6246 12.987C21.7224 12.0347 20.4676 11.5667 19.1406 11.5667C17.8794 11.5667 16.9196 11.9896 16.2531 12.4209V12.1667C16.2531 12.0075 16.1899 11.8549 16.0774 11.7424C15.9649 11.6299 15.8123 11.5667 15.6531 11.5667H12.0531ZM7.25313 12.7667H9.65313V20.0475V22.9667H7.25313V12.7667ZM12.6531 12.7667H15.0531V13.703C15.0532 13.8288 15.0927 13.9514 15.1663 14.0535C15.2398 14.1556 15.3436 14.232 15.4629 14.2719C15.5822 14.3118 15.711 14.3132 15.8312 14.2759C15.9513 14.2385 16.0567 14.1644 16.1324 14.0639C16.1324 14.0639 17.0746 12.7667 19.1406 12.7667C20.1926 12.7667 21.0947 13.1162 21.7539 13.812C22.4131 14.5077 22.8531 15.5796 22.8531 17.1237V22.9667H20.4531V17.5667C20.4531 16.8667 20.2854 16.1429 19.8473 15.5545C19.4091 14.9662 18.6722 14.5565 17.7637 14.5409C16.8504 14.5247 16.1016 14.9428 15.6625 15.5381C15.2234 16.1334 15.0531 16.8645 15.0531 17.5667V22.9667H12.6531V12.7667Z" fill="white"/>
</svg>
