<svg width="33" height="33" viewBox="0 0 33 33" fill="none" xmlns="http://www.w3.org/2000/svg">
<path d="M16.9375 4.16675C19.2862 4.16675 21.5821 4.8632 23.5349 6.16805C25.4877 7.47289 27.0098 9.32751 27.9086 11.4974C28.8074 13.6673 29.0425 16.0549 28.5843 18.3584C28.1261 20.662 26.9951 22.7779 25.3344 24.4386C23.6736 26.0994 21.5577 27.2304 19.2542 27.6886C16.9507 28.1468 14.563 27.9116 12.3931 27.0128C10.2233 26.114 8.36865 24.592 7.0638 22.6391C5.75896 20.6863 5.06251 18.3904 5.06251 16.0417C5.06581 12.8933 6.31799 9.87479 8.54427 7.64851C10.7705 5.42223 13.7891 4.17006 16.9375 4.16675ZM16.9375 2.54175C14.2675 2.54175 11.6574 3.33351 9.43731 4.81691C7.21724 6.30031 5.48692 8.40872 4.46513 10.8755C3.44335 13.3423 3.176 16.0567 3.6969 18.6755C4.21781 21.2942 5.50356 23.6997 7.39156 25.5877C9.27957 27.4757 11.685 28.7614 14.3038 29.2823C16.9225 29.8032 19.6369 29.5359 22.1037 28.5141C24.5705 27.4923 26.6789 25.762 28.1623 23.5419C29.6457 21.3219 30.4375 18.7118 30.4375 16.0417C30.4375 12.4613 29.0152 9.02755 26.4834 6.49581C23.9517 3.96407 20.5179 2.54175 16.9375 2.54175Z" fill="white"/>
<path d="M17.2052 4.16675C17.7277 4.16675 18.6502 5.08175 19.4377 7.08925C20.3652 9.45425 20.8752 12.6342 20.8752 16.0417C20.8752 19.4492 20.3752 22.6292 19.4377 24.9942C18.6502 26.9942 17.7302 27.9167 17.2052 27.9167C16.6802 27.9167 15.7602 27.0017 14.9727 24.9942C14.0477 22.6292 13.5352 19.4492 13.5352 16.0417C13.5352 12.6342 14.0352 9.45425 14.9727 7.08925C15.7627 5.07925 16.6852 4.16675 17.2052 4.16675ZM17.2052 2.54175C14.2802 2.54175 11.9102 8.58675 11.9102 16.0417C11.9102 23.4967 14.2802 29.5417 17.2052 29.5417C20.1302 29.5417 22.5002 23.4967 22.5002 16.0417C22.5002 8.58675 20.1302 2.54175 17.2052 2.54175Z" fill="white"/>
<path d="M5.35156 20.2593H29.0616" stroke="white" stroke-width="1.625" stroke-miterlimit="10"/>
<path d="M5.35156 11.8218H29.0616" stroke="white" stroke-width="1.625" stroke-miterlimit="10"/>
</svg>
